{"glyphs":{"0":{"ha":904,"x_min":0,"x_max":0,"o":"m 451 13 b 644 488 564 13 644 119 b 451 964 644 860 564 964 b 260 489 340 964 260 858 b 451 13 260 118 340 13 m 451 990 b 843 488 697 990 843 828 b 451 -14 843 150 697 -14 b 63 490 208 -14 63 151 b 451 990 63 828 208 990 "},"1":{"ha":554,"x_min":0,"x_max":0,"o":"m 383 117 b 401 86 383 101 385 97 l 528 3 l 528 0 l 64 0 l 64 3 l 192 86 b 208 117 207 97 208 101 l 208 806 b 192 835 208 821 207 829 l 47 876 l 47 879 l 383 996 "},"2":{"ha":756,"x_min":0,"x_max":0,"o":"m 26 0 l 26 3 l 190 189 b 324 351 250 256 293 311 b 481 729 438 500 481 599 b 321 965 481 885 425 965 b 276 963 303 965 290 965 b 247 938 263 960 254 954 l 144 693 l 142 693 l 51 919 b 357 990 136 961 250 990 b 679 722 561 990 679 885 b 247 196 679 525 494 378 l 183 149 l 529 149 b 592 174 569 149 572 150 l 688 289 l 690 289 l 654 0 "},"3":{"ha":767,"x_min":0,"x_max":0,"o":"m 713 275 b 317 -14 713 106 572 -14 b 38 33 226 -14 122 3 l 136 286 l 139 286 l 222 39 b 246 15 228 22 232 18 b 304 10 264 13 286 10 b 515 260 440 10 515 122 b 272 499 515 397 442 490 l 272 501 b 481 760 414 532 481 621 b 318 965 481 882 421 965 b 274 963 303 965 290 965 b 247 938 258 960 256 956 l 144 694 l 142 694 l 53 921 b 356 990 139 964 254 990 b 672 757 540 990 672 904 b 450 519 672 621 578 551 l 450 517 b 713 275 604 501 713 411 "},"4":{"ha":808,"x_min":0,"x_max":0,"o":"m 575 117 b 592 85 575 100 576 96 l 697 3 l 697 0 l 272 0 l 272 3 l 383 85 b 400 117 397 96 400 100 l 400 249 l 10 249 l 10 251 l 429 976 l 575 976 l 575 275 l 615 275 b 650 294 632 275 639 278 l 786 528 l 789 528 l 767 249 l 575 249 l 575 117 m 400 275 l 400 868 l 56 275 "},"5":{"ha":776,"x_min":0,"x_max":0,"o":"m 728 300 b 335 -14 728 99 575 -14 b 56 33 244 -14 135 3 l 151 285 l 154 285 l 239 39 b 275 14 246 19 250 17 b 325 10 288 13 308 10 b 531 278 454 10 531 118 b 300 518 531 422 451 518 b 128 465 238 518 181 497 l 125 467 l 142 978 l 399 969 b 496 968 436 968 460 968 b 633 1004 565 968 603 975 l 674 1043 l 676 1043 l 660 924 b 493 811 647 833 604 811 b 389 814 458 811 421 813 l 161 822 l 153 504 b 422 590 236 561 318 590 b 728 300 613 590 728 467 "},"6":{"ha":836,"x_min":0,"x_max":0,"o":"m 783 318 b 438 -14 783 118 639 -14 b 63 486 194 -14 63 174 b 489 990 63 803 199 990 b 747 946 568 990 656 975 l 660 721 l 657 721 l 544 946 b 513 965 538 960 533 963 b 481 967 500 967 490 967 b 256 488 321 967 256 817 b 511 610 319 567 411 610 b 783 318 669 610 783 507 m 432 556 b 256 469 369 556 311 528 b 436 10 257 142 332 10 b 601 294 519 10 601 99 b 432 556 601 451 547 556 "},"7":{"ha":697,"x_min":0,"x_max":0,"o":"m 164 0 b 574 826 293 332 485 690 l 161 826 b 115 806 136 826 132 824 l 36 708 l 33 708 l 64 976 l 706 976 l 706 974 l 618 853 b 589 800 607 838 597 821 b 389 0 508 596 450 297 "},"8":{"ha":803,"x_min":0,"x_max":0,"o":"m 399 -14 b 57 224 190 -14 57 94 b 294 453 57 354 151 415 l 267 468 b 88 728 156 529 88 608 b 401 990 88 888 221 990 b 701 765 563 990 701 903 b 490 556 701 646 608 582 l 556 521 b 758 258 689 450 758 381 b 399 -14 758 115 626 -14 m 306 446 b 197 229 229 399 197 326 b 411 11 197 108 290 11 b 601 183 515 11 601 72 b 449 367 601 267 544 314 m 235 810 b 388 613 235 725 283 672 l 478 561 b 565 758 542 610 565 672 b 399 965 565 888 496 965 b 235 810 307 965 235 904 "},"9":{"ha":836,"x_min":0,"x_max":0,"o":"m 335 369 b 54 665 192 369 54 469 b 401 990 54 858 197 990 b 775 486 646 990 775 813 b 358 -14 775 185 631 -14 b 89 33 269 -14 186 -1 l 181 271 l 183 271 l 286 31 b 318 13 293 15 297 14 b 358 10 331 10 347 10 b 581 486 515 10 581 164 l 581 489 b 335 369 515 410 433 369 m 415 421 b 581 507 476 421 533 457 b 400 967 578 846 507 967 b 236 679 318 967 236 881 b 415 421 236 526 289 421 "}," ":{"ha":276,"x_min":0,"x_max":0,"o":""},"!":{"ha":378,"x_min":0,"x_max":0,"o":"m 188 300 l 185 300 l 65 976 l 313 976 m 90 83 b 188 182 90 140 135 182 b 286 83 243 182 286 140 b 188 -11 286 29 243 -11 b 90 83 135 -11 90 29 "},"\"":{"ha":493,"x_min":0,"x_max":0,"o":"m 132 651 l 129 651 l 64 865 b 57 911 60 879 57 893 b 131 990 57 956 81 990 b 206 911 182 990 206 956 b 199 865 206 893 203 879 m 363 651 l 360 651 l 294 865 b 288 911 290 879 288 893 b 361 990 288 956 311 990 b 436 911 413 990 436 956 b 428 865 436 893 432 879 "},"#":{"ha":817,"x_min":0,"x_max":0,"o":"m 492 300 l 415 36 l 392 43 l 465 300 l 251 300 l 175 36 l 151 43 l 225 300 l 49 300 l 49 325 l 232 325 l 313 607 l 136 607 l 136 632 l 319 632 l 399 907 l 425 900 l 347 632 l 560 632 l 639 907 l 665 900 l 588 632 l 768 632 l 768 607 l 581 607 l 499 325 l 682 325 l 682 300 m 258 325 l 472 325 l 553 607 l 340 607 "},"$":{"ha":756,"x_min":0,"x_max":0,"o":"m 353 -14 b 83 24 268 -14 164 0 l 83 333 l 86 333 l 238 40 b 268 15 247 24 251 18 b 339 10 292 13 317 10 l 367 10 l 367 383 b 281 425 346 394 322 406 b 60 714 171 476 60 561 b 367 990 60 872 182 982 l 367 1101 l 392 1101 l 392 990 b 639 958 464 990 544 981 l 639 660 l 636 660 l 479 940 b 444 965 471 956 464 964 b 400 967 428 967 417 967 l 392 967 l 392 599 l 471 561 b 710 286 606 497 710 431 b 392 -12 710 124 588 1 l 392 -144 l 367 -144 l 367 -14 l 353 -14 m 549 186 b 392 371 549 274 493 319 l 392 13 b 549 186 482 28 549 83 m 213 792 b 367 610 213 700 276 651 l 367 964 b 213 792 274 953 213 890 "},"%":{"ha":915,"x_min":0,"x_max":0,"o":"m 267 971 b 199 783 208 971 199 910 b 267 597 199 658 208 597 b 335 783 326 597 335 658 b 267 971 335 910 326 971 m 267 990 b 451 783 393 990 451 906 b 267 578 451 663 393 578 b 83 783 142 578 83 663 b 267 990 83 904 142 990 m 643 381 b 575 193 585 381 575 319 b 643 7 575 68 585 7 b 711 193 703 7 711 68 b 643 381 711 319 703 381 m 643 400 b 828 193 769 400 828 315 b 643 -12 828 72 769 -12 b 460 193 518 -12 460 72 b 643 400 460 314 518 400 m 118 -14 l 96 4 l 794 990 l 817 974 "},"&":{"ha":1051,"x_min":0,"x_max":0,"o":"m 915 131 b 1046 263 972 131 1033 172 l 1049 263 b 1051 219 1050 254 1051 233 b 842 -14 1051 74 961 -14 b 603 115 753 -14 683 32 b 321 -14 526 40 443 -14 b 47 215 150 -14 47 82 b 283 485 47 353 165 435 b 161 747 206 575 161 650 b 432 990 161 889 264 990 b 676 803 572 990 676 928 b 435 569 676 676 564 617 l 672 297 b 706 260 683 283 694 271 b 801 415 742 307 779 365 b 788 463 810 433 803 443 l 676 586 l 676 589 l 1007 589 l 1007 586 l 863 453 b 824 401 844 436 838 426 b 722 243 800 358 760 294 b 915 131 810 154 857 131 m 290 475 b 200 283 229 421 200 361 b 408 60 200 147 304 60 b 588 131 494 60 538 83 b 524 201 567 151 546 175 m 307 821 b 426 579 307 740 340 672 b 542 801 501 639 542 713 b 428 969 542 917 492 969 b 307 821 354 969 307 911 "},"'":{"ha":263,"x_min":0,"x_max":0,"o":"m 206 911 b 199 865 206 893 203 879 l 132 651 l 129 651 l 64 865 b 57 911 60 879 57 893 b 131 990 57 956 81 990 b 206 911 182 990 206 956 "},"(":{"ha":456,"x_min":0,"x_max":0,"o":"m 75 406 b 278 931 75 650 151 819 b 439 1025 322 971 379 1004 l 442 1022 b 329 883 397 985 358 938 b 224 406 254 747 224 606 b 329 -72 224 206 254 64 b 442 -211 358 -126 397 -174 l 439 -214 b 278 -119 379 -193 322 -160 b 75 406 151 -8 75 161 "},")":{"ha":456,"x_min":0,"x_max":0,"o":"m 382 406 b 178 -119 382 161 304 -8 b 17 -214 133 -160 76 -193 l 14 -211 b 128 -72 58 -174 97 -126 b 232 406 201 64 232 206 b 128 883 232 606 201 747 b 14 1022 97 938 58 985 l 17 1025 b 178 931 76 1004 133 971 b 382 406 304 819 382 650 "},"*":{"ha":529,"x_min":0,"x_max":0,"o":"m 268 763 l 447 635 l 325 546 l 263 760 l 197 547 l 75 636 l 257 763 l 39 757 l 86 901 l 260 768 l 189 976 l 340 976 l 265 768 l 443 899 l 490 757 "},"+":{"ha":750,"x_min":0,"x_max":0,"o":"m 69 461 l 363 461 l 363 754 l 389 754 l 389 461 l 681 461 l 681 436 l 389 436 l 389 143 l 363 143 l 363 436 l 69 436 "},",":{"ha":326,"x_min":0,"x_max":0,"o":"m 260 69 b 60 -185 260 -40 174 -157 l 58 -182 b 163 -12 131 -144 163 -65 b 146 6 163 0 160 4 b 68 97 101 11 68 49 b 160 189 68 149 106 189 b 260 69 215 189 260 150 "},"-":{"ha":488,"x_min":0,"x_max":0,"o":"m 64 353 l 425 353 l 425 326 l 64 326 "},".":{"ha":326,"x_min":0,"x_max":0,"o":"m 65 83 b 163 182 65 140 108 182 b 261 83 218 182 261 140 b 163 -11 261 29 218 -11 b 65 83 108 -11 65 29 "},"/":{"ha":528,"x_min":0,"x_max":0,"o":"m 71 -212 l 44 -204 l 458 1025 l 483 1017 "},":":{"ha":326,"x_min":0,"x_max":0,"o":"m 65 83 b 163 182 65 140 108 182 b 261 83 218 182 261 140 b 163 -11 261 29 218 -11 b 65 83 108 -11 65 29 m 65 540 b 163 639 65 597 108 639 b 261 540 218 639 261 597 b 163 446 261 486 218 446 b 65 540 108 446 65 486 "},";":{"ha":326,"x_min":0,"x_max":0,"o":"m 58 -182 b 163 -12 131 -144 163 -65 b 146 6 163 0 160 4 b 68 97 101 11 68 49 b 160 189 68 149 106 189 b 260 69 215 189 260 150 b 60 -185 260 -40 174 -157 m 65 540 b 163 639 65 597 108 639 b 261 540 218 639 261 597 b 163 446 261 486 218 446 b 65 540 108 446 65 486 "},"<":{"ha":750,"x_min":0,"x_max":0,"o":"m 632 699 l 642 675 l 149 449 l 642 222 l 632 199 l 90 447 l 90 450 "},"=":{"ha":750,"x_min":0,"x_max":0,"o":"m 69 561 l 69 586 l 681 586 l 681 561 m 69 313 l 69 338 l 681 338 l 681 313 "},">":{"ha":750,"x_min":0,"x_max":0,"o":"m 660 447 l 118 199 l 108 222 l 601 449 l 108 675 l 118 699 l 660 450 "},"?":{"ha":615,"x_min":0,"x_max":0,"o":"m 367 471 b 294 339 315 429 294 393 b 297 307 294 329 296 318 l 296 306 b 196 433 226 335 196 378 b 281 582 196 489 236 536 b 360 665 288 589 353 657 b 426 818 403 714 426 756 b 285 965 426 907 365 965 b 244 963 272 965 254 964 b 210 939 219 958 217 954 l 106 693 l 103 693 l 14 919 b 317 990 101 963 215 990 b 606 778 490 990 606 910 b 501 586 606 696 560 635 l 367 471 m 182 83 b 279 182 182 140 226 182 b 378 83 335 182 378 140 b 279 -11 378 29 335 -11 b 182 83 226 -11 182 29 "},"@":{"ha":1397,"x_min":0,"x_max":0,"o":"m 932 288 b 911 150 918 233 911 188 b 1007 22 911 67 944 22 b 1301 457 1146 22 1301 196 b 760 953 1301 747 1082 953 b 96 267 379 953 96 667 b 686 -292 96 -99 367 -292 b 1033 -185 833 -292 943 -237 l 1044 -207 b 685 -317 949 -267 826 -317 b 69 267 358 -317 69 -122 b 763 978 69 682 367 978 b 1328 458 1100 978 1328 756 b 969 -11 1328 186 1167 -11 b 756 182 850 -11 756 50 b 763 249 756 203 757 225 l 760 249 b 532 -11 704 89 632 -11 b 382 199 450 -11 382 56 b 736 692 382 442 547 692 b 861 621 803 692 843 664 l 1035 693 l 1038 690 l 932 288 m 742 243 b 854 611 763 293 839 543 b 789 643 842 635 811 643 b 649 540 733 643 682 596 b 553 189 593 450 553 306 b 611 82 553 107 581 82 b 742 243 658 82 703 151 "},"A":{"ha":885,"x_min":0,"x_max":0,"o":"m 799 132 b 829 76 807 108 815 93 l 888 3 l 888 0 l 513 0 l 513 3 l 596 86 b 601 122 606 96 607 104 l 529 342 l 211 342 l 158 182 b 169 140 151 163 154 157 l 296 3 l 296 0 l -24 0 l -24 3 l 97 135 b 132 189 119 160 124 165 l 346 835 b 336 885 356 863 353 867 l 257 974 l 257 976 l 522 976 l 799 132 m 219 368 l 521 368 l 372 825 "},"B":{"ha":890,"x_min":0,"x_max":0,"o":"m 465 976 b 806 744 678 976 806 899 b 549 517 806 617 697 532 l 549 513 b 842 276 719 506 842 418 b 483 0 842 100 699 0 l 24 0 l 24 3 l 131 78 b 146 108 144 88 146 92 l 146 868 b 131 899 146 885 144 889 l 24 974 l 24 976 m 339 494 l 339 57 b 381 26 339 29 343 26 l 418 26 b 635 263 569 26 635 111 b 417 494 635 411 574 494 m 339 519 l 415 519 b 601 740 525 519 601 590 b 421 950 601 879 532 950 l 364 950 b 339 921 344 950 339 944 "},"C":{"ha":850,"x_min":0,"x_max":0,"o":"m 43 485 b 504 990 43 786 208 990 b 779 961 590 990 685 982 l 779 647 l 776 647 l 604 939 b 560 965 592 960 586 963 b 519 967 546 967 532 967 b 264 488 332 967 264 771 b 525 10 264 186 342 10 b 560 11 536 10 550 10 b 603 35 586 14 592 18 l 776 336 l 779 336 l 779 10 b 518 -14 689 -8 593 -14 b 43 485 188 -14 43 189 "},"D":{"ha":964,"x_min":0,"x_max":0,"o":"m 24 3 l 131 78 b 146 108 144 88 146 92 l 146 868 b 131 899 146 885 144 889 l 24 974 l 24 976 l 454 976 b 922 506 767 976 922 794 b 442 0 922 196 754 0 l 24 0 m 401 26 b 703 493 597 26 703 163 b 422 950 703 815 596 950 l 361 950 b 339 924 344 950 339 946 l 339 57 b 372 26 339 29 343 26 "},"E":{"ha":832,"x_min":0,"x_max":0,"o":"m 24 0 l 24 3 l 131 78 b 146 108 144 88 146 92 l 146 868 b 131 899 146 885 144 889 l 24 974 l 24 976 l 750 976 l 750 660 l 747 660 l 601 926 b 563 950 590 947 582 950 l 361 950 b 339 921 343 950 339 946 l 339 507 l 475 507 b 513 531 493 508 499 513 l 618 664 l 621 664 l 621 325 l 618 325 l 513 460 b 474 482 499 476 493 482 l 339 482 l 339 56 b 361 26 339 31 343 26 l 569 26 b 614 44 596 26 604 29 l 760 317 l 763 317 l 763 0 "},"F":{"ha":788,"x_min":0,"x_max":0,"o":"m 24 0 l 24 3 l 131 78 b 146 108 144 88 146 92 l 146 868 b 131 899 146 885 144 889 l 24 974 l 24 976 l 750 976 l 750 660 l 747 660 l 601 926 b 563 950 590 947 583 950 l 363 950 b 339 921 344 950 339 946 l 339 507 l 475 507 b 513 531 493 508 499 513 l 618 664 l 621 664 l 621 325 l 618 325 l 513 460 b 474 482 499 476 493 482 l 339 482 l 339 117 b 356 88 339 101 340 97 l 501 3 l 501 0 "},"G":{"ha":925,"x_min":0,"x_max":0,"o":"m 475 -14 b 43 486 189 -14 43 185 b 506 990 43 785 211 990 b 796 960 596 990 692 983 l 796 644 l 793 644 l 619 938 b 579 965 608 957 604 964 b 531 967 560 967 547 967 b 265 494 333 967 265 775 b 503 13 265 165 340 13 b 594 29 535 13 564 18 b 611 56 606 33 611 40 l 611 317 b 597 351 611 339 610 340 l 503 429 l 503 432 l 914 432 l 914 429 l 819 353 b 804 317 806 342 804 339 l 804 -14 l 636 18 b 475 -14 589 0 542 -14 "},"H":{"ha":1051,"x_min":0,"x_max":0,"o":"m 906 108 b 922 78 906 92 907 88 l 1029 3 l 1029 0 l 590 0 l 590 3 l 697 78 b 713 108 710 88 713 92 l 713 488 l 339 488 l 339 108 b 356 78 339 92 340 88 l 463 3 l 463 0 l 24 0 l 24 3 l 131 78 b 146 108 144 88 146 92 l 146 868 b 131 899 146 885 144 889 l 24 974 l 24 976 l 463 976 l 463 974 l 356 899 b 339 868 340 888 339 885 l 339 514 l 713 514 l 713 868 b 697 899 713 885 711 889 l 590 974 l 590 976 l 1029 976 l 1029 974 l 922 899 b 906 868 907 888 906 885 "},"I":{"ha":486,"x_min":0,"x_max":0,"o":"m 339 108 b 356 78 339 92 340 88 l 463 3 l 463 0 l 24 0 l 24 3 l 131 78 b 146 108 144 88 146 92 l 146 868 b 131 899 146 885 144 889 l 24 974 l 24 976 l 463 976 l 463 974 l 356 899 b 339 868 340 888 339 885 "},"J":{"ha":444,"x_min":0,"x_max":0,"o":"m 126 868 b 110 899 126 885 124 889 l 3 974 l 3 976 l 442 976 l 442 974 l 335 899 b 318 868 319 888 318 885 l 318 94 b -47 -293 318 -137 178 -274 l -49 -290 b 126 56 76 -228 126 -96 "},"K":{"ha":938,"x_min":0,"x_max":0,"o":"m 339 108 b 356 78 339 92 340 88 l 463 3 l 463 0 l 24 0 l 24 3 l 131 78 b 146 108 144 88 146 92 l 146 868 b 131 899 146 885 144 889 l 24 974 l 24 976 l 463 976 l 463 974 l 356 899 b 339 868 340 888 339 885 m 500 603 l 824 128 b 865 81 836 110 850 93 l 956 3 l 956 0 l 681 0 l 351 483 l 679 828 b 675 865 694 844 690 850 l 563 974 l 563 976 l 956 976 l 956 974 l 768 863 b 704 815 738 844 728 839 "},"L":{"ha":788,"x_min":0,"x_max":0,"o":"m 24 0 l 24 3 l 131 78 b 146 108 144 88 146 92 l 146 868 b 131 899 146 885 144 889 l 24 974 l 24 976 l 463 976 l 463 974 l 356 899 b 339 868 340 888 339 885 l 339 56 b 361 26 339 31 343 26 l 540 26 b 585 44 567 26 576 29 l 743 333 l 746 333 l 746 0 "},"M":{"ha":1210,"x_min":0,"x_max":0,"o":"m 1063 108 b 1079 78 1063 92 1064 88 l 1186 3 l 1186 0 l 747 0 l 747 3 l 854 78 b 871 108 868 88 871 92 l 871 726 b 875 815 871 751 872 788 l 549 -8 l 546 -8 l 222 736 b 192 814 211 760 200 790 l 192 182 b 213 139 192 160 194 157 l 347 3 l 347 0 l 8 0 l 8 3 l 144 139 b 164 182 161 157 164 161 l 164 828 b 150 865 164 851 163 854 l 33 974 l 33 976 l 328 976 l 631 275 l 910 976 l 1186 976 l 1186 974 l 1079 892 b 1063 861 1064 882 1063 878 l 1063 108 "},"N":{"ha":963,"x_min":0,"x_max":0,"o":"m 306 976 l 792 199 l 792 794 b 772 838 792 814 790 819 l 636 974 l 636 976 l 975 976 l 975 974 l 840 838 b 819 794 824 819 819 815 l 819 0 l 690 0 l 194 792 l 194 182 b 215 139 194 160 197 156 l 351 3 l 351 0 l 11 0 l 11 3 l 147 139 b 167 182 164 156 167 161 l 167 806 b 151 851 167 829 163 839 l 25 974 l 25 976 "},"O":{"ha":983,"x_min":0,"x_max":0,"o":"m 493 10 b 719 489 626 10 719 140 b 493 967 719 838 626 967 b 265 489 358 967 265 838 b 493 10 265 140 358 11 m 493 990 b 939 489 775 990 939 808 b 493 -14 939 168 775 -14 b 44 489 210 -14 44 168 b 493 990 44 808 210 990 "},"P":{"ha":857,"x_min":0,"x_max":0,"o":"m 339 372 l 339 122 b 354 83 339 100 339 93 l 508 3 l 508 0 l 24 0 l 24 3 l 131 78 b 146 108 144 88 146 92 l 146 868 b 131 899 146 885 144 889 l 24 974 l 24 976 l 471 976 b 826 681 664 976 826 896 b 444 372 826 476 661 372 m 339 399 l 419 399 b 621 678 529 399 621 482 b 426 950 621 861 540 950 l 365 950 b 339 922 344 950 339 944 "},"Q":{"ha":985,"x_min":0,"x_max":0,"o":"m 719 -328 b 529 -293 647 -328 588 -314 l 244 -194 b 157 -178 208 -182 182 -178 b 114 -181 147 -178 124 -179 l 113 -179 l 331 10 b 44 489 147 68 44 235 b 493 990 44 808 210 990 b 939 489 775 990 939 808 b 493 -14 939 168 775 -14 b 357 3 443 -14 399 -7 l 288 -60 l 596 -157 b 775 -185 653 -175 708 -185 b 940 -136 835 -185 893 -171 l 990 -99 l 993 -100 l 929 -211 b 719 -328 888 -285 813 -328 m 493 10 b 719 489 626 10 719 140 b 493 967 719 838 626 967 b 265 489 358 967 265 838 b 493 10 265 140 358 11 "},"R":{"ha":922,"x_min":0,"x_max":0,"o":"m 339 449 l 339 107 b 356 76 339 90 340 86 l 465 3 l 465 0 l 24 0 l 24 3 l 131 78 b 146 108 144 88 146 92 l 146 868 b 131 899 146 885 144 889 l 24 974 l 24 976 l 496 976 b 818 718 672 976 818 900 b 557 464 818 586 718 489 l 557 461 l 660 407 l 831 113 b 872 61 842 93 854 78 l 939 3 l 939 0 l 672 0 l 435 428 b 399 449 429 438 421 449 m 339 475 l 408 475 b 608 707 524 475 608 536 b 419 950 608 890 533 950 l 365 950 b 339 922 344 950 339 944 "},"S":{"ha":747,"x_min":0,"x_max":0,"o":"m 353 -14 b 83 24 268 -14 164 0 l 83 333 l 86 333 l 238 40 b 268 15 247 24 251 18 b 339 10 292 13 317 10 b 549 186 456 10 549 65 b 365 385 549 282 483 328 l 281 425 b 60 714 171 476 60 561 b 388 990 60 878 192 990 b 639 958 461 990 543 982 l 639 660 l 636 660 l 479 940 b 449 965 471 956 464 964 b 400 967 432 967 417 967 b 213 792 289 967 213 901 b 368 610 213 700 278 653 l 471 561 b 710 286 606 497 710 431 b 353 -14 710 114 571 -14 "},"T":{"ha":857,"x_min":0,"x_max":0,"o":"m 525 113 b 540 82 525 94 526 92 l 657 3 l 657 0 l 200 0 l 200 3 l 315 82 b 332 113 329 92 332 94 l 332 950 l 210 950 b 174 925 188 950 183 949 l 29 633 l 26 633 l 26 976 l 829 976 l 829 633 l 826 633 l 683 925 b 647 950 674 946 669 950 l 525 950 l 525 113 "},"U":{"ha":919,"x_min":0,"x_max":0,"o":"m 475 -14 b 122 306 218 -14 122 100 l 122 865 b 106 896 122 882 121 885 l 8 974 l 8 976 l 435 976 l 435 974 l 331 896 b 315 865 317 886 315 882 l 315 329 b 539 31 315 124 394 31 b 761 347 679 31 761 140 l 761 794 b 740 838 761 814 760 821 l 606 974 l 606 976 l 943 976 l 943 974 l 808 838 b 789 794 790 821 789 814 l 789 349 b 475 -14 789 131 704 -14 "},"V":{"ha":850,"x_min":0,"x_max":0,"o":"m 358 0 l 75 844 b 44 900 67 868 58 883 l -14 974 l -14 976 l 363 976 l 363 974 l 278 890 b 274 856 269 881 268 874 l 510 149 l 714 789 b 700 839 721 813 717 819 l 576 974 l 576 976 l 897 976 l 897 974 l 779 844 b 743 788 757 821 751 815 l 492 0 "},"W":{"ha":1368,"x_min":0,"x_max":0,"o":"m 878 0 l 682 615 l 485 0 l 351 0 l 75 844 b 44 900 67 868 58 883 l -14 974 l -14 976 l 361 976 l 361 974 l 278 890 b 272 856 268 881 267 874 l 503 147 l 668 660 l 610 844 b 582 899 603 868 594 881 l 529 974 l 529 976 l 897 976 l 897 974 l 814 890 b 808 857 804 881 803 874 l 1029 151 l 1233 789 b 1218 839 1240 813 1235 819 l 1096 974 l 1096 976 l 1415 976 l 1415 974 l 1299 844 b 1263 788 1276 821 1271 815 l 1011 0 "},"X":{"ha":944,"x_min":0,"x_max":0,"o":"m 954 3 l 954 0 l 536 0 l 536 3 l 610 72 b 614 108 625 86 625 92 l 417 418 l 238 163 b 235 124 222 142 222 136 l 354 3 l 354 0 l -8 0 l -8 3 l 149 115 b 211 174 175 133 190 144 l 400 443 l 142 850 b 99 897 128 871 113 885 l 14 974 l 14 976 l 433 976 l 433 974 l 358 904 b 356 868 343 890 344 885 l 528 596 l 681 814 b 683 853 696 835 696 840 l 564 974 l 564 976 l 926 976 l 926 974 l 769 861 b 707 803 743 843 728 832 l 544 571 l 828 126 b 871 79 842 106 857 92 "},"Y":{"ha":856,"x_min":0,"x_max":0,"o":"m 531 113 b 547 82 531 94 532 92 l 663 3 l 663 0 l 206 0 l 206 3 l 322 82 b 338 113 336 92 338 94 l 338 367 b 328 406 338 385 336 392 l 90 846 b 53 897 78 869 67 882 l -18 974 l -18 976 l 390 976 l 390 974 l 304 892 b 299 863 293 881 292 876 l 517 449 l 699 804 b 694 842 708 824 706 829 l 575 974 l 575 976 l 906 976 l 906 974 l 767 844 b 724 792 744 825 738 817 l 542 438 b 531 386 532 419 531 411 "},"Z":{"ha":832,"x_min":0,"x_max":0,"o":"m 765 0 l 18 0 l 18 3 l 572 950 l 289 950 b 246 932 263 950 256 947 l 81 631 l 78 631 l 78 976 l 800 976 l 800 974 l 244 26 l 550 26 b 593 44 575 26 585 29 l 763 342 l 765 342 "},"[":{"ha":488,"x_min":0,"x_max":0,"o":"m 239 -83 b 256 -110 239 -99 240 -104 l 474 -175 l 474 -178 l 111 -197 l 111 1010 l 474 990 l 474 988 l 256 922 b 239 896 240 918 239 911 "},"\\":{"ha":528,"x_min":0,"x_max":0,"o":"m 44 1017 l 69 1025 l 483 -204 l 457 -212 "},"]":{"ha":488,"x_min":0,"x_max":0,"o":"m 249 896 b 232 922 249 911 247 917 l 14 988 l 14 990 l 376 1010 l 376 -197 l 14 -178 l 14 -175 l 232 -110 b 249 -83 247 -104 249 -99 "},"^":{"ha":750,"x_min":0,"x_max":0,"o":"m 624 449 l 601 438 l 374 932 l 147 438 l 124 449 l 372 990 l 375 990 "},"_":{"ha":694,"x_min":0,"x_max":0,"o":"m 7 -126 l 7 -101 l 688 -101 l 688 -126 "},"`":{"ha":449,"x_min":0,"x_max":0,"o":"m 263 976 l 379 750 l 376 747 l 69 974 l 69 976 "},"a":{"ha":676,"x_min":0,"x_max":0,"o":"m 415 490 l 415 496 b 288 668 415 597 375 668 b 246 650 257 668 254 667 l 149 454 l 146 454 l 72 643 b 326 692 157 676 243 692 b 521 635 414 692 476 678 b 586 411 561 593 586 525 l 586 386 l 578 165 b 624 78 575 107 590 78 b 665 111 644 78 658 90 l 668 111 b 658 64 669 96 665 79 b 539 -11 640 22 599 -11 b 411 131 469 -11 413 35 b 222 -11 383 43 311 -11 b 38 176 124 -11 38 56 b 267 383 38 314 154 383 b 413 342 319 383 374 371 m 344 343 b 210 197 257 343 210 276 b 306 78 210 122 251 78 b 410 143 346 78 385 103 l 413 332 b 344 343 390 340 367 343 "},"b":{"ha":754,"x_min":0,"x_max":0,"o":"m 253 542 b 464 692 297 639 365 692 b 713 353 619 692 713 557 b 424 -11 713 143 603 -11 b 250 71 335 -11 278 26 l 81 -11 l 78 -11 l 78 882 b 63 914 78 900 76 904 l -19 974 l -19 976 l 253 1008 m 381 604 b 253 526 335 604 289 579 l 253 86 b 356 44 281 56 319 44 b 526 339 457 44 526 125 b 381 604 526 519 469 604 "},"c":{"ha":631,"x_min":0,"x_max":0,"o":"m 336 -11 b 36 333 183 -11 36 94 b 381 692 36 597 211 692 b 597 653 442 692 515 682 l 522 433 l 519 433 l 426 651 b 400 669 419 664 415 669 l 386 669 b 219 388 276 669 219 569 b 414 92 219 171 311 92 b 599 229 492 92 556 135 l 601 229 b 336 -11 576 86 490 -11 "},"d":{"ha":783,"x_min":0,"x_max":0,"o":"m 675 104 b 689 72 675 86 676 82 l 772 3 l 772 0 l 500 0 l 500 136 b 299 -11 460 33 383 -11 b 39 336 147 -11 39 122 b 321 692 39 553 163 692 b 500 575 415 692 469 640 l 500 882 b 486 914 500 900 499 904 l 404 974 l 404 976 l 675 1008 m 382 74 b 500 149 424 74 463 97 l 500 561 b 386 625 471 601 432 625 b 226 349 300 625 226 546 b 382 74 226 151 299 74 "},"e":{"ha":675,"x_min":0,"x_max":0,"o":"m 217 386 l 217 364 b 417 90 217 179 306 90 b 632 242 506 90 585 132 l 635 242 b 349 -11 603 71 501 -11 b 38 335 188 -11 38 94 b 356 692 38 596 200 692 b 636 421 496 692 636 618 b 633 386 636 408 635 397 m 353 669 b 217 411 271 669 224 582 l 465 411 b 467 438 467 422 467 432 b 353 669 467 596 429 669 "},"f":{"ha":461,"x_min":0,"x_max":0,"o":"m 36 681 l 122 681 l 122 708 b 367 990 122 913 207 990 b 561 957 435 990 500 978 l 483 769 l 481 769 l 400 950 b 371 968 392 967 390 968 b 297 821 321 968 297 925 l 297 681 l 485 681 l 485 656 l 297 656 l 297 100 b 318 69 297 82 300 79 l 433 3 l 433 0 l 26 0 l 26 3 l 108 63 b 122 93 122 71 122 78 l 122 656 l 36 656 "},"g":{"ha":696,"x_min":0,"x_max":0,"o":"m 56 465 b 331 692 56 617 179 692 b 503 650 404 692 461 675 b 529 656 515 643 518 643 l 668 824 l 671 824 l 671 614 l 542 614 b 617 458 582 582 617 533 b 335 240 617 311 489 240 b 242 250 301 240 271 243 b 176 186 193 236 176 211 b 306 122 176 149 219 122 l 425 122 b 674 -68 585 122 674 56 b 317 -328 674 -232 510 -328 b 33 -174 178 -328 33 -278 b 194 -35 33 -110 85 -56 b 64 101 110 -17 64 36 b 222 256 64 174 124 232 b 56 465 125 283 56 351 m 210 -37 b 139 -146 165 -60 139 -94 b 354 -301 139 -249 246 -301 b 560 -156 458 -301 560 -254 b 406 -46 560 -92 519 -50 l 244 -40 m 229 467 b 336 263 229 325 267 263 b 443 467 407 263 443 326 b 336 671 443 607 407 671 b 229 467 265 671 229 607 "},"h":{"ha":796,"x_min":0,"x_max":0,"o":"m 694 93 b 710 63 694 76 697 72 l 793 3 l 793 0 l 424 0 l 424 3 l 503 63 b 518 92 515 72 518 79 b 522 369 518 107 522 308 b 408 596 522 519 493 596 b 282 511 353 596 311 561 l 282 93 b 297 63 282 78 283 74 l 379 3 l 379 0 l 11 0 l 11 3 l 93 63 b 107 93 106 72 107 78 l 107 882 b 93 914 107 900 106 904 l 11 974 l 11 976 l 282 1008 l 282 522 b 494 692 315 633 388 692 b 697 408 625 692 697 600 b 694 93 697 332 696 204 "},"i":{"ha":411,"x_min":0,"x_max":0,"o":"m 207 772 b 111 864 154 772 111 811 b 207 960 111 921 154 960 b 304 864 261 960 304 921 b 207 772 304 811 261 772 m 301 681 l 301 93 b 317 63 301 78 303 74 l 399 3 l 399 0 l 31 0 l 31 3 l 113 63 b 126 93 125 72 126 78 l 126 576 b 113 608 126 594 125 599 l 31 678 l 31 681 "},"j":{"ha":379,"x_min":0,"x_max":0,"o":"m 292 681 l 292 39 b -10 -304 292 -161 193 -304 b -47 -301 -21 -304 -35 -303 l -47 -299 b 117 -15 60 -283 117 -203 l 117 576 b 103 608 117 594 115 599 l 21 678 l 21 681 m 101 864 b 197 960 101 921 144 960 b 293 864 251 960 293 921 b 197 772 293 811 251 772 b 101 864 144 772 101 811 "},"k":{"ha":743,"x_min":0,"x_max":0,"o":"m 657 97 b 689 57 665 81 675 68 l 758 3 l 758 0 l 507 0 l 339 336 b 310 357 332 350 324 357 b 282 347 303 357 290 353 l 282 93 b 297 63 282 78 283 74 l 379 3 l 379 0 l 11 0 l 11 3 l 93 63 b 107 93 106 72 107 78 l 107 882 b 93 914 107 900 106 904 l 11 974 l 11 976 l 282 1008 l 282 360 l 532 549 b 533 572 542 556 540 564 l 433 678 l 433 681 l 740 681 l 740 678 l 476 479 b 468 456 465 471 463 467 l 657 97 "},"l":{"ha":390,"x_min":0,"x_max":0,"o":"m 282 93 b 297 63 282 78 283 74 l 379 3 l 379 0 l 11 0 l 11 3 l 93 63 b 107 93 106 72 107 78 l 107 882 b 93 914 107 900 106 904 l 11 974 l 11 976 l 282 1008 "},"m":{"ha":1228,"x_min":0,"x_max":0,"o":"m 717 408 b 714 93 717 332 715 204 b 729 63 714 76 717 72 l 811 3 l 811 0 l 443 0 l 443 3 l 521 63 b 538 92 535 72 538 79 b 542 369 538 107 542 308 b 428 596 542 519 513 596 b 301 511 371 596 331 561 l 301 93 b 317 63 301 78 303 74 l 399 3 l 399 0 l 31 0 l 31 3 l 113 63 b 126 93 125 72 126 78 l 126 576 b 113 608 126 594 125 599 l 31 678 l 31 681 l 301 681 l 301 522 b 514 692 335 633 407 692 b 706 524 614 692 681 636 b 929 692 738 625 818 692 b 1129 408 1056 692 1129 600 b 1126 93 1129 322 1128 204 b 1142 63 1126 76 1129 72 l 1224 3 l 1224 0 l 856 0 l 856 3 l 933 63 b 950 92 947 72 950 79 b 954 367 950 108 954 307 b 840 596 954 517 926 596 b 707 515 786 596 740 565 b 717 408 714 483 717 449 "},"n":{"ha":815,"x_min":0,"x_max":0,"o":"m 542 369 b 428 596 542 519 513 596 b 301 511 371 596 331 561 l 301 93 b 317 63 301 78 303 74 l 399 3 l 399 0 l 31 0 l 31 3 l 113 63 b 126 93 125 72 126 78 l 126 576 b 113 608 126 594 125 599 l 31 678 l 31 681 l 301 681 l 301 522 b 514 692 335 633 407 692 b 717 408 644 692 717 600 b 714 93 717 332 715 204 b 729 63 714 76 717 72 l 811 3 l 811 0 l 443 0 l 443 3 l 521 63 b 538 92 535 72 538 79 b 542 369 538 107 542 308 "},"o":{"ha":744,"x_min":0,"x_max":0,"o":"m 372 669 b 236 342 289 669 236 596 b 372 11 236 88 289 11 b 510 340 456 11 510 86 b 372 669 510 594 456 669 m 372 -11 b 38 342 171 -11 38 113 b 372 692 38 569 171 692 b 707 340 575 692 707 571 b 372 -11 707 113 575 -11 "},"p":{"ha":783,"x_min":0,"x_max":0,"o":"m 107 576 b 93 608 107 594 106 599 l 11 678 l 11 681 l 282 681 l 282 529 b 494 692 329 643 399 692 b 743 358 647 692 743 558 b 465 -11 743 132 628 -11 b 282 97 365 -11 310 33 l 282 -215 b 303 -247 282 -233 285 -237 l 418 -314 l 418 -317 l 11 -317 l 11 -314 l 93 -254 b 107 -224 106 -244 107 -239 m 411 604 b 282 515 358 604 313 568 l 282 107 b 397 56 308 75 347 56 b 556 349 489 56 556 149 b 411 604 556 511 500 604 "},"q":{"ha":753,"x_min":0,"x_max":0,"o":"m 501 142 b 293 -11 461 40 389 -11 b 40 332 161 -11 40 118 b 326 692 40 560 164 692 b 501 603 415 692 468 653 l 676 692 l 676 -224 b 690 -254 676 -239 678 -244 l 763 -314 l 763 -317 l 367 -317 l 367 -314 l 482 -247 b 501 -215 499 -237 501 -233 m 382 76 b 501 154 422 76 464 99 l 501 590 b 393 633 465 619 435 633 b 226 347 306 633 226 551 b 382 76 226 179 288 76 "},"r":{"ha":572,"x_min":0,"x_max":0,"o":"m 301 104 b 321 72 301 89 303 82 l 464 3 l 464 0 l 31 0 l 31 3 l 113 63 b 126 93 125 72 126 78 l 126 576 b 113 608 126 594 125 599 l 31 678 l 31 681 l 301 681 l 301 485 b 503 692 322 582 389 692 b 583 663 536 692 563 681 l 510 451 l 507 451 l 419 594 b 401 599 414 601 408 601 b 301 469 351 576 328 522 "},"s":{"ha":603,"x_min":0,"x_max":0,"o":"m 563 208 b 279 -11 563 64 436 -11 b 43 32 206 -11 115 4 l 110 235 l 113 235 l 206 32 b 231 15 211 21 214 18 b 278 11 246 13 260 11 b 414 128 367 11 414 65 b 283 257 414 196 363 221 l 194 297 b 61 488 119 332 61 392 b 317 692 61 614 174 692 b 542 657 386 692 464 682 l 478 468 l 475 468 l 378 649 b 335 669 369 664 361 669 l 318 669 b 199 558 254 669 199 632 b 315 435 199 494 247 464 l 407 396 b 563 208 490 360 563 314 "},"t":{"ha":447,"x_min":0,"x_max":0,"o":"m 269 176 b 346 78 269 114 297 78 b 442 146 390 78 426 110 l 444 144 b 257 -11 431 65 376 -11 b 94 161 151 -11 94 46 l 94 656 l 7 656 l 7 681 l 78 681 b 115 699 97 681 103 683 l 267 910 l 269 910 l 269 681 l 454 681 l 454 656 l 269 656 "},"u":{"ha":785,"x_min":0,"x_max":0,"o":"m 676 104 b 690 72 676 86 678 82 l 772 3 l 772 0 l 500 0 l 500 154 b 294 -11 464 51 396 -11 b 96 271 167 -11 96 81 b 99 576 96 358 97 465 b 85 610 99 594 97 599 l 1 678 l 1 681 l 274 681 b 271 313 274 674 271 350 b 381 85 271 164 299 85 b 500 169 432 85 471 119 l 500 576 b 486 608 500 594 499 599 l 404 678 l 404 681 l 676 681 "},"v":{"ha":628,"x_min":0,"x_max":0,"o":"m 363 0 l 257 0 l 53 557 b 28 611 44 582 40 592 l -15 678 l -15 681 l 294 681 l 294 678 l 238 608 b 232 574 228 596 226 592 l 386 144 l 514 504 b 507 551 522 526 518 533 l 426 678 l 426 681 l 653 681 l 653 678 l 565 553 b 539 501 550 532 547 525 "},"w":{"ha":1019,"x_min":0,"x_max":0,"o":"m 957 553 b 931 501 942 531 939 525 l 754 0 l 647 0 l 503 404 l 357 0 l 250 0 l 51 557 b 28 611 43 582 39 592 l -15 678 l -15 681 l 293 681 l 293 678 l 235 608 b 231 574 225 597 225 592 l 381 142 l 489 442 l 449 557 b 425 611 440 582 436 593 l 382 678 l 382 681 l 689 681 l 689 678 l 632 608 b 626 574 622 596 619 592 l 778 143 l 904 504 b 899 551 913 526 911 533 l 818 678 l 818 681 l 1044 681 l 1044 678 "},"x":{"ha":679,"x_min":0,"x_max":0,"o":"m 85 574 b 40 626 69 597 58 610 l -15 678 l -15 681 l 339 681 l 339 678 l 269 621 b 269 589 257 611 258 606 l 386 417 l 488 549 b 489 586 501 567 501 569 l 414 678 l 414 681 l 681 681 l 681 678 l 551 576 b 501 526 531 561 519 550 l 400 396 l 597 107 b 640 57 614 83 624 74 l 696 3 l 696 0 l 342 0 l 342 3 l 413 61 b 411 93 425 71 422 78 l 290 271 l 185 133 b 183 94 169 114 171 111 l 258 3 l 258 0 l -8 0 l -8 3 l 121 104 b 171 156 142 121 151 132 l 276 292 "},"y":{"ha":631,"x_min":0,"x_max":0,"o":"m 78 -328 b 15 -314 54 -328 33 -322 l 65 -89 l 68 -89 l 174 -226 b 192 -240 181 -236 185 -240 b 208 -226 197 -240 201 -236 b 296 -61 233 -193 265 -132 l 46 576 b 21 624 36 600 29 610 l -14 678 l -14 681 l 299 681 l 299 678 l 238 610 b 233 576 228 599 226 593 l 388 165 l 519 501 b 517 546 528 524 528 528 l 433 678 l 433 681 l 658 681 l 658 678 l 575 556 b 544 497 561 535 556 524 l 336 -37 b 243 -221 311 -101 281 -162 b 78 -328 196 -296 147 -328 "},"z":{"ha":628,"x_min":0,"x_max":0,"o":"m 583 278 l 588 278 l 567 0 l 19 0 l 19 3 l 406 657 l 238 657 b 200 636 214 657 213 656 l 57 417 l 53 417 l 53 681 l 606 681 l 606 678 l 224 25 l 392 25 b 431 46 417 25 418 26 "},"{":{"ha":489,"x_min":0,"x_max":0,"o":"m 279 17 b 475 -183 271 -67 319 -192 l 475 -186 b 385 -197 446 -193 415 -197 b 142 51 261 -197 125 -111 l 165 294 b 49 406 171 351 124 397 l 49 408 b 165 519 124 417 171 461 l 142 763 b 385 1011 126 924 261 1011 b 475 1000 415 1011 446 1007 l 475 997 b 279 796 319 1006 271 881 l 301 556 b 182 408 308 479 253 425 l 182 406 b 301 258 253 389 308 333 "},"|":{"ha":304,"x_min":0,"x_max":0,"o":"m 139 -347 l 139 1042 l 165 1042 l 165 -347 "},"}":{"ha":489,"x_min":0,"x_max":0,"o":"m 324 519 b 440 408 318 461 365 417 l 440 406 b 324 294 365 397 318 351 l 347 51 b 103 -197 364 -111 226 -197 b 14 -186 74 -197 43 -193 l 14 -183 b 210 17 169 -192 218 -67 l 188 258 b 307 406 181 333 235 389 l 307 408 b 188 556 235 425 181 479 l 210 796 b 14 997 218 881 169 1006 l 14 1000 b 103 1011 43 1007 74 1011 b 347 763 226 1011 364 924 "},"~":{"ha":697,"x_min":0,"x_max":0,"o":"m 506 385 b 190 476 381 385 304 476 b 57 394 131 476 86 442 l 35 408 b 190 501 57 446 103 501 b 506 410 315 501 392 410 b 642 490 565 410 613 443 l 663 478 b 506 385 640 440 593 385 "}," ":{"ha":0,"x_min":0,"x_max":0,"o":""},"¡":{"ha":378,"x_min":0,"x_max":0,"o":"m 185 379 l 188 379 l 313 -297 l 65 -297 m 90 596 b 188 690 90 650 135 690 b 286 596 243 690 286 650 b 188 497 286 539 243 497 b 90 596 135 497 90 539 "},"¢":{"ha":638,"x_min":0,"x_max":0,"o":"m 354 -146 l 354 -11 l 336 -11 b 36 335 172 -11 36 99 b 354 692 36 588 190 685 l 354 840 l 378 840 l 378 692 b 601 657 443 690 521 682 l 601 654 l 517 432 l 514 432 l 424 653 b 378 668 418 665 414 668 l 378 96 b 417 92 390 93 403 92 b 599 229 489 92 554 119 l 601 229 b 378 -10 582 103 513 6 l 378 -146 m 208 385 b 354 101 208 214 275 129 l 354 667 b 208 385 268 654 208 556 "},"£":{"ha":768,"x_min":0,"x_max":0,"o":"m 346 411 b 354 336 351 386 354 361 b 199 150 354 219 278 171 l 199 149 l 542 149 b 618 176 592 149 596 151 l 711 289 l 714 289 l 682 0 l 35 0 l 35 3 l 150 133 b 215 293 194 182 215 233 b 185 411 215 328 201 368 l 46 411 l 46 436 l 174 436 b 92 701 138 518 92 608 b 413 990 92 876 199 990 b 685 953 508 990 592 981 l 636 701 l 633 701 l 501 943 b 465 964 494 957 486 964 l 426 964 b 267 744 306 964 267 860 b 340 436 267 626 317 535 l 582 436 l 582 411 "},"¤":{"ha":922,"x_min":0,"x_max":0,"o":"m 461 167 b 238 246 375 167 296 194 l 81 90 l 64 107 l 218 263 b 132 489 164 318 132 396 b 219 715 132 582 165 660 l 64 872 l 81 890 l 238 733 b 461 813 296 783 375 813 b 685 733 547 813 625 783 l 842 890 l 860 872 l 703 715 b 792 489 758 660 792 582 b 703 263 792 394 757 318 l 858 108 l 842 90 l 686 246 b 461 167 626 194 547 167 m 461 192 b 765 489 629 192 765 306 b 461 788 765 671 629 788 b 158 489 293 788 158 671 b 461 192 158 306 293 192 "},"¥":{"ha":867,"x_min":0,"x_max":0,"o":"m 533 113 b 550 82 533 94 535 92 l 665 3 l 665 0 l 208 0 l 208 3 l 325 82 b 340 113 339 92 340 94 l 340 226 l 136 226 l 136 251 l 340 251 l 340 371 l 136 371 l 136 396 l 336 396 b 331 406 335 399 332 401 l 93 846 b 56 897 81 869 69 882 l -15 974 l -15 976 l 393 976 l 393 974 l 307 892 b 301 863 296 881 294 876 l 519 449 l 701 804 b 697 842 711 824 708 829 l 578 974 l 578 976 l 908 976 l 908 974 l 769 844 b 726 792 747 825 740 817 l 544 438 b 533 396 536 422 533 413 l 742 396 l 742 371 l 533 371 l 533 251 l 742 251 l 742 226 l 533 226 "},"¦":{"ha":304,"x_min":0,"x_max":0,"o":"m 139 -347 l 139 261 l 165 261 l 165 -347 m 139 447 l 139 1042 l 165 1042 l 165 447 "},"§":{"ha":708,"x_min":0,"x_max":0,"o":"m 640 372 b 471 181 640 264 542 204 b 590 -28 546 124 590 54 b 338 -236 590 -165 465 -236 b 125 -212 260 -236 203 -232 l 175 56 l 178 56 l 286 -190 b 324 -215 294 -207 303 -215 l 342 -215 b 471 -92 424 -215 471 -156 b 322 93 471 -28 425 26 l 258 135 b 71 381 125 222 71 282 b 240 572 71 488 169 550 b 121 782 165 631 121 699 b 375 990 121 918 246 990 b 586 967 453 990 510 985 l 536 699 l 533 699 l 425 943 b 390 969 417 961 413 969 l 369 969 b 240 844 289 969 240 910 b 389 660 240 782 286 726 l 453 618 b 640 372 588 531 640 471 m 251 564 b 192 456 221 549 192 499 b 301 300 192 417 211 363 l 460 189 b 521 297 489 204 521 254 b 410 454 521 338 501 392 "},"¨":{"ha":554,"x_min":0,"x_max":0,"o":"m 69 864 b 153 947 69 911 107 947 b 235 864 197 947 235 911 b 153 783 235 819 197 783 b 69 864 107 783 69 819 m 319 864 b 400 947 319 911 356 947 b 485 864 447 947 485 911 b 400 783 485 819 447 783 b 319 864 356 783 319 819 "},"©":{"ha":1129,"x_min":0,"x_max":0,"o":"m 63 488 b 564 990 63 793 288 990 b 1067 488 840 990 1067 793 b 564 -14 1067 181 840 -14 b 63 488 288 -14 63 181 m 89 488 b 564 11 89 196 301 11 b 1040 488 826 11 1040 196 b 564 965 1040 778 826 965 b 89 488 301 965 89 778 m 458 489 b 599 222 458 317 513 222 b 636 236 622 222 629 225 l 751 399 l 753 399 l 753 214 b 593 200 701 203 635 200 b 306 488 403 200 306 318 b 585 778 306 660 417 778 b 753 761 633 778 699 774 l 753 583 l 751 583 l 633 742 b 590 757 625 754 617 757 b 458 489 508 757 458 647 "},"ª":{"ha":558,"x_min":0,"x_max":0,"o":"m 436 628 b 468 568 435 589 444 568 b 496 592 482 568 490 578 l 499 592 b 492 557 499 581 497 569 b 410 507 479 529 451 507 b 321 597 364 507 325 536 b 193 507 300 543 251 507 b 67 636 125 507 67 554 b 224 779 67 731 146 779 b 322 750 260 779 296 769 l 325 853 b 231 967 326 925 296 967 b 206 954 215 967 211 964 l 142 822 l 140 822 l 90 957 b 265 990 149 979 207 990 b 397 950 325 990 367 981 b 442 781 428 919 444 868 m 322 739 b 276 747 308 744 293 747 b 185 650 217 747 185 704 b 250 571 185 599 213 571 b 321 613 276 571 301 588 "},"«":{"ha":624,"x_min":0,"x_max":0,"o":"m 335 646 l 336 644 l 203 349 l 336 53 l 335 51 l 40 347 l 40 350 m 581 646 l 582 644 l 449 349 l 582 53 l 581 51 l 286 347 l 286 350 "},"¬":{"ha":750,"x_min":0,"x_max":0,"o":"m 668 151 l 668 439 l 54 439 l 54 464 l 694 464 l 694 151 "},"­":{"ha":488,"x_min":0,"x_max":0,"o":"m 64 353 l 425 353 l 425 326 l 64 326 "},"®":{"ha":1129,"x_min":0,"x_max":0,"o":"m 63 488 b 564 990 63 793 288 990 b 1067 488 840 990 1067 793 b 564 -14 1067 181 840 -14 b 63 488 288 -14 63 181 m 89 488 b 564 11 89 196 301 11 b 1040 488 826 11 1040 196 b 564 965 1040 778 826 965 b 89 488 301 965 89 778 m 381 268 b 390 286 389 274 390 276 l 390 699 b 381 717 390 708 389 711 l 321 756 l 321 758 l 610 758 b 785 618 706 758 785 717 b 640 479 785 546 731 493 l 640 476 l 699 447 l 793 289 b 817 260 800 278 807 267 l 856 229 l 856 226 l 689 226 l 565 457 b 544 468 561 464 556 468 l 514 468 l 514 286 b 524 268 514 276 515 274 l 582 229 l 582 226 l 321 226 l 321 229 m 514 492 l 553 492 b 651 611 606 492 651 519 b 561 735 651 710 611 735 l 531 735 b 514 719 517 735 514 731 "},"¯":{"ha":503,"x_min":0,"x_max":0,"o":"m 69 822 l 69 847 l 433 847 l 433 822 "},"°":{"ha":450,"x_min":0,"x_max":0,"o":"m 49 818 b 225 988 49 921 131 988 b 401 818 321 988 401 921 b 225 653 401 718 321 653 b 49 818 131 653 49 718 m 75 818 b 225 678 75 735 147 678 b 375 818 304 678 375 735 b 225 963 375 904 304 963 b 75 818 147 963 75 904 "},"±":{"ha":750,"x_min":0,"x_max":0,"o":"m 69 532 l 363 532 l 363 756 l 389 756 l 389 532 l 681 532 l 681 507 l 389 507 l 389 282 l 363 282 l 363 507 l 69 507 m 69 171 l 681 171 l 681 146 l 69 146 "},"²":{"ha":410,"x_min":0,"x_max":0,"o":"m 353 583 l 19 583 l 19 586 b 153 711 94 653 136 694 b 254 882 213 769 254 825 b 179 969 254 940 231 969 l 163 969 b 146 958 154 969 149 965 l 89 831 l 86 831 l 31 960 b 194 990 79 978 136 990 b 368 876 304 990 368 949 b 133 669 368 789 290 740 l 133 667 l 279 667 b 319 678 304 667 308 667 l 369 725 l 372 725 "},"³":{"ha":410,"x_min":0,"x_max":0,"o":"m 379 697 b 188 578 379 631 311 578 b 25 603 136 578 71 586 l 94 738 l 97 738 l 136 611 b 150 600 139 604 142 601 b 182 599 160 599 172 599 b 268 696 229 599 268 633 b 154 789 268 753 232 785 l 154 792 b 256 896 222 803 256 839 b 192 969 256 944 232 969 l 167 969 b 150 958 157 969 153 965 l 93 833 l 90 833 l 35 960 b 201 990 81 978 139 990 b 364 893 308 990 364 956 b 254 797 364 839 321 811 l 254 794 b 379 697 333 790 379 754 "},"´":{"ha":449,"x_min":0,"x_max":0,"o":"m 379 976 l 379 974 l 72 747 l 69 750 l 188 976 "},"µ":{"ha":793,"x_min":0,"x_max":0,"o":"m 685 100 b 699 67 685 82 686 76 l 781 3 l 781 0 l 508 0 l 508 156 b 322 -3 479 58 407 -3 b 279 3 308 -3 296 -1 l 279 -211 b 299 -244 279 -228 281 -235 l 414 -314 l 414 -317 l 7 -317 l 7 -314 l 92 -254 b 106 -224 106 -244 106 -240 l 106 582 b 92 614 106 600 104 604 l 10 678 l 10 681 l 279 681 l 279 285 b 388 82 279 133 310 82 b 508 169 440 82 479 117 l 508 581 b 494 614 508 599 507 603 l 413 678 l 413 681 l 685 681 l 685 100 "},"¶":{"ha":840,"x_min":0,"x_max":0,"o":"m 586 -347 l 586 0 l 490 0 b 94 479 289 0 94 110 b 490 976 94 847 289 976 l 736 976 l 736 951 l 613 951 l 613 22 l 736 22 l 736 0 l 613 0 l 613 -347 m 586 22 l 586 951 l 486 951 l 486 22 "},"·":{"ha":326,"x_min":0,"x_max":0,"o":"m 65 589 b 163 688 65 646 108 688 b 261 589 218 688 261 646 b 163 493 261 535 218 493 b 65 589 108 493 65 535 "},"¸":{"ha":504,"x_min":0,"x_max":0,"o":"m 400 -197 b 244 -328 400 -271 343 -328 b 82 -204 154 -328 88 -274 l 85 -203 b 196 -281 100 -256 154 -281 b 286 -201 244 -281 286 -251 b 194 -121 286 -150 247 -121 b 143 -129 179 -121 161 -122 l 142 -126 l 239 -1 l 242 -1 l 229 -86 b 400 -197 324 -67 400 -122 "},"¹":{"ha":350,"x_min":0,"x_max":0,"o":"m 239 644 b 249 629 239 636 239 633 l 339 585 l 339 583 l 32 583 l 32 585 l 122 629 b 132 644 131 633 132 636 l 132 903 b 122 915 132 910 131 913 l 24 946 l 24 949 l 239 994 "},"º":{"ha":569,"x_min":0,"x_max":0,"o":"m 285 968 b 190 750 228 968 190 921 b 285 531 190 578 228 531 b 379 749 342 531 379 578 b 285 968 379 921 342 968 m 285 507 b 56 750 146 507 56 592 b 285 990 56 906 146 990 b 514 749 424 990 514 907 b 285 507 514 593 424 507 "},"»":{"ha":624,"x_min":0,"x_max":0,"o":"m 42 51 l 40 53 l 172 349 l 40 644 l 42 646 l 336 350 l 336 347 m 288 51 l 286 53 l 418 349 l 286 644 l 288 646 l 582 350 l 582 347 "},"¼":{"ha":674,"x_min":0,"x_max":0,"o":"m 590 500 l 590 475 l 83 475 l 83 500 m 256 1 l 318 39 b 326 54 324 43 326 46 l 326 100 l 128 100 l 128 103 l 347 401 l 428 401 l 428 121 l 449 121 b 469 132 460 121 464 122 l 535 246 l 538 246 l 528 100 l 428 100 l 428 54 b 438 39 428 46 429 44 l 496 1 l 496 0 l 256 0 m 326 121 l 326 335 l 169 121 m 496 585 l 496 583 l 189 583 l 189 585 l 279 629 b 289 644 288 633 289 636 l 289 903 b 279 915 289 910 288 913 l 181 946 l 181 949 l 396 994 l 396 644 b 406 629 396 636 396 633 "},"½":{"ha":674,"x_min":0,"x_max":0,"o":"m 590 475 l 83 475 l 83 500 l 590 500 m 496 583 l 189 583 l 189 585 l 279 629 b 289 644 288 633 289 636 l 289 903 b 279 915 289 910 288 913 l 181 946 l 181 949 l 396 994 l 396 644 b 406 629 396 636 396 633 l 496 585 m 489 0 l 156 0 l 156 3 b 289 128 231 69 272 111 b 390 299 349 186 390 242 b 315 386 390 357 367 386 l 299 386 b 282 375 290 386 285 382 l 225 247 l 222 247 l 167 376 b 331 407 215 394 272 407 b 504 293 440 407 504 365 b 269 86 504 206 426 157 l 269 83 l 415 83 b 456 94 440 83 444 83 l 506 142 l 508 142 "},"¾":{"ha":674,"x_min":0,"x_max":0,"o":"m 83 500 l 590 500 l 590 475 l 83 475 m 428 54 b 438 39 428 46 429 44 l 496 1 l 496 0 l 256 0 l 256 1 l 318 39 b 326 54 324 43 326 46 l 326 100 l 128 100 l 128 103 l 347 401 l 428 401 l 428 121 l 449 121 b 469 132 460 121 464 122 l 535 246 l 538 246 l 528 100 l 428 100 l 428 54 m 326 121 l 326 335 l 169 121 m 514 697 b 322 578 514 631 446 578 b 160 603 271 578 206 586 l 229 738 l 232 738 l 271 611 b 285 601 274 604 276 603 b 317 599 293 599 307 599 b 403 696 364 599 403 633 b 289 789 403 753 367 785 l 289 792 b 390 896 357 803 390 839 b 326 969 390 944 367 969 l 301 969 b 285 958 292 968 289 965 l 228 833 l 225 833 l 169 960 b 336 990 215 978 274 990 b 499 893 443 990 499 956 b 389 797 499 839 456 811 l 389 794 b 514 697 468 790 514 754 "},"¿":{"ha":568,"x_min":0,"x_max":0,"o":"m 319 374 b 419 246 389 344 419 301 b 335 97 419 190 378 144 b 256 14 328 90 263 22 b 189 -139 211 -33 189 -76 b 331 -286 189 -228 250 -286 b 371 -283 343 -286 351 -286 b 406 -260 396 -279 399 -278 l 510 -14 l 513 -14 l 601 -240 b 299 -311 514 -283 400 -311 b 10 -99 125 -311 10 -231 b 114 93 10 -17 58 42 b 249 208 132 107 235 199 b 321 340 297 254 321 286 b 318 372 321 350 319 361 l 319 374 m 433 596 b 336 497 433 539 389 497 b 238 596 281 497 238 539 b 336 690 238 650 281 690 b 433 596 389 690 433 650 "},"À":{"ha":885,"x_min":0,"x_max":0,"o":"m 799 132 b 829 76 807 108 815 93 l 888 3 l 888 0 l 513 0 l 513 3 l 596 86 b 601 122 606 96 607 104 l 529 342 l 211 342 l 158 182 b 169 140 151 163 154 157 l 296 3 l 296 0 l -24 0 l -24 3 l 97 135 b 132 189 119 160 124 165 l 346 835 b 336 885 356 863 353 867 l 257 974 l 257 976 l 522 976 l 799 132 m 219 368 l 521 368 l 372 825 m 394 1271 l 511 1044 l 508 1042 l 201 1268 l 201 1271 "},"Á":{"ha":885,"x_min":0,"x_max":0,"o":"m 799 132 b 829 76 807 108 815 93 l 888 3 l 888 0 l 513 0 l 513 3 l 596 86 b 601 122 606 96 607 104 l 529 342 l 211 342 l 158 182 b 169 140 151 163 154 157 l 296 3 l 296 0 l -24 0 l -24 3 l 97 135 b 132 189 119 160 124 165 l 346 835 b 336 885 356 863 353 867 l 257 974 l 257 976 l 522 976 l 799 132 m 219 368 l 521 368 l 372 825 m 643 1271 l 643 1268 l 336 1042 l 333 1044 l 451 1271 "},"Â":{"ha":885,"x_min":0,"x_max":0,"o":"m 799 132 b 829 76 807 108 815 93 l 888 3 l 888 0 l 513 0 l 513 3 l 596 86 b 601 122 606 96 607 104 l 529 342 l 211 342 l 158 182 b 169 140 151 163 154 157 l 296 3 l 296 0 l -24 0 l -24 3 l 97 135 b 132 189 119 160 124 165 l 346 835 b 336 885 356 863 353 867 l 257 974 l 257 976 l 522 976 l 799 132 m 219 368 l 521 368 l 372 825 m 631 1039 l 421 1139 l 211 1039 l 210 1042 l 419 1282 l 422 1282 l 632 1042 "},"Ã":{"ha":885,"x_min":0,"x_max":0,"o":"m 799 132 b 829 76 807 108 815 93 l 888 3 l 888 0 l 513 0 l 513 3 l 596 86 b 601 122 606 96 607 104 l 529 342 l 211 342 l 158 182 b 169 140 151 163 154 157 l 296 3 l 296 0 l -24 0 l -24 3 l 97 135 b 132 189 119 160 124 165 l 346 835 b 336 885 356 863 353 867 l 257 974 l 257 976 l 522 976 l 799 132 m 219 368 l 521 368 l 372 825 m 507 1075 b 318 1140 442 1075 378 1140 b 232 1074 279 1140 250 1119 l 229 1074 b 232 1115 229 1088 231 1101 b 339 1238 240 1189 278 1238 b 526 1171 404 1238 467 1171 b 614 1238 564 1171 596 1190 l 617 1238 b 614 1193 617 1222 615 1207 b 507 1075 606 1122 567 1075 "},"Ä":{"ha":885,"x_min":0,"x_max":0,"o":"m 799 132 b 829 76 807 108 815 93 l 888 3 l 888 0 l 513 0 l 513 3 l 596 86 b 601 122 606 96 607 104 l 529 342 l 211 342 l 158 182 b 169 140 151 163 154 157 l 296 3 l 296 0 l -24 0 l -24 3 l 97 135 b 132 189 119 160 124 165 l 346 835 b 336 885 356 863 353 867 l 257 974 l 257 976 l 522 976 l 799 132 m 219 368 l 521 368 l 372 825 m 214 1158 b 297 1242 214 1206 251 1242 b 379 1158 342 1242 379 1206 b 297 1078 379 1114 342 1078 b 214 1158 251 1078 214 1114 m 464 1158 b 544 1242 464 1206 500 1242 b 629 1158 592 1242 629 1206 b 544 1078 629 1114 592 1078 b 464 1158 500 1078 464 1114 "},"Å":{"ha":885,"x_min":0,"x_max":0,"o":"m 799 132 b 829 76 807 108 815 93 l 888 3 l 888 0 l 513 0 l 513 3 l 596 86 b 601 122 606 96 607 104 l 529 342 l 211 342 l 158 182 b 169 140 151 163 154 157 l 296 3 l 296 0 l -24 0 l -24 3 l 97 135 b 132 189 119 160 124 165 l 346 835 b 336 885 356 863 353 867 l 257 974 l 257 976 l 522 976 l 799 132 m 219 368 l 521 368 l 372 825 m 544 1164 b 422 1044 544 1096 490 1044 b 301 1164 357 1044 301 1097 b 422 1285 301 1232 354 1285 b 544 1164 490 1285 544 1233 m 517 1164 b 422 1258 517 1218 476 1258 b 329 1164 369 1258 329 1218 b 422 1071 329 1113 371 1071 b 517 1164 476 1071 517 1111 "},"Æ":{"ha":1288,"x_min":0,"x_max":0,"o":"m 929 507 b 967 531 947 508 953 513 l 1074 664 l 1076 664 l 1076 325 l 1074 325 l 967 460 b 929 482 953 476 947 482 l 793 482 l 793 56 b 817 26 793 31 797 26 l 1024 26 b 1068 44 1050 26 1058 29 l 1214 317 l 1218 317 l 1218 0 l 478 0 l 478 3 l 585 78 b 601 108 599 88 601 92 l 601 340 l 275 340 l 183 189 b 183 131 165 158 165 153 l 290 3 l 290 0 l -36 0 l -36 3 l 92 122 b 147 181 118 147 132 157 l 547 836 b 546 882 563 863 561 865 l 456 974 l 456 976 l 1204 976 l 1204 660 l 1201 660 l 1056 926 b 1017 950 1044 947 1036 950 l 817 950 b 793 921 797 950 793 946 l 793 507 l 929 507 m 601 874 l 292 367 l 601 367 "},"Ç":{"ha":850,"x_min":0,"x_max":0,"o":"m 651 -197 b 496 -328 651 -271 594 -328 b 333 -204 406 -328 339 -274 l 336 -203 b 447 -281 351 -256 406 -281 b 538 -201 496 -281 538 -251 b 446 -121 538 -150 499 -121 b 394 -129 431 -121 413 -122 l 393 -126 l 481 -12 b 43 485 176 1 43 200 b 504 990 43 786 208 990 b 779 961 590 990 685 982 l 779 647 l 776 647 l 604 939 b 560 965 592 960 586 963 b 519 967 546 967 532 967 b 264 488 332 967 264 771 b 525 10 264 186 342 10 b 560 11 536 10 550 10 b 603 35 586 14 592 18 l 776 336 l 779 336 l 779 10 b 518 -14 689 -8 593 -14 b 492 -12 508 -14 500 -12 l 481 -86 b 651 -197 575 -67 651 -122 "},"È":{"ha":832,"x_min":0,"x_max":0,"o":"m 24 0 l 24 3 l 131 78 b 146 108 144 88 146 92 l 146 868 b 131 899 146 885 144 889 l 24 974 l 24 976 l 750 976 l 750 660 l 747 660 l 601 926 b 563 950 590 947 582 950 l 361 950 b 339 921 343 950 339 946 l 339 507 l 475 507 b 513 531 493 508 499 513 l 618 664 l 621 664 l 621 325 l 618 325 l 513 460 b 474 482 499 476 493 482 l 339 482 l 339 56 b 361 26 339 31 343 26 l 569 26 b 614 44 596 26 604 29 l 760 317 l 763 317 l 763 0 m 408 1271 l 525 1044 l 522 1042 l 215 1268 l 215 1271 "},"É":{"ha":832,"x_min":0,"x_max":0,"o":"m 657 1271 l 657 1268 l 350 1042 l 347 1044 l 465 1271 m 24 0 l 24 3 l 131 78 b 146 108 144 88 146 92 l 146 868 b 131 899 146 885 144 889 l 24 974 l 24 976 l 750 976 l 750 660 l 747 660 l 601 926 b 563 950 590 947 582 950 l 361 950 b 339 921 343 950 339 946 l 339 507 l 475 507 b 513 531 493 508 499 513 l 618 664 l 621 664 l 621 325 l 618 325 l 513 460 b 474 482 499 476 493 482 l 339 482 l 339 56 b 361 26 339 31 343 26 l 569 26 b 614 44 596 26 604 29 l 760 317 l 763 317 l 763 0 "},"Ê":{"ha":832,"x_min":0,"x_max":0,"o":"m 644 1039 l 435 1139 l 225 1039 l 224 1042 l 433 1282 l 436 1282 l 646 1042 m 24 0 l 24 3 l 131 78 b 146 108 144 88 146 92 l 146 868 b 131 899 146 885 144 889 l 24 974 l 24 976 l 750 976 l 750 660 l 747 660 l 601 926 b 563 950 590 947 582 950 l 361 950 b 339 921 343 950 339 946 l 339 507 l 475 507 b 513 531 493 508 499 513 l 618 664 l 621 664 l 621 325 l 618 325 l 513 460 b 474 482 499 476 493 482 l 339 482 l 339 56 b 361 26 339 31 343 26 l 569 26 b 614 44 596 26 604 29 l 760 317 l 763 317 l 763 0 "},"Ë":{"ha":832,"x_min":0,"x_max":0,"o":"m 226 1158 b 310 1242 226 1206 264 1242 b 392 1158 354 1242 392 1206 b 310 1078 392 1114 354 1078 b 226 1158 264 1078 226 1114 m 476 1158 b 557 1242 476 1206 513 1242 b 642 1158 604 1242 642 1206 b 557 1078 642 1114 604 1078 b 476 1158 513 1078 476 1114 m 24 0 l 24 3 l 131 78 b 146 108 144 88 146 92 l 146 868 b 131 899 146 885 144 889 l 24 974 l 24 976 l 750 976 l 750 660 l 747 660 l 601 926 b 563 950 590 947 582 950 l 361 950 b 339 921 343 950 339 946 l 339 507 l 475 507 b 513 531 493 508 499 513 l 618 664 l 621 664 l 621 325 l 618 325 l 513 460 b 474 482 499 476 493 482 l 339 482 l 339 56 b 361 26 339 31 343 26 l 569 26 b 614 44 596 26 604 29 l 760 317 l 763 317 l 763 0 "},"Ì":{"ha":486,"x_min":0,"x_max":0,"o":"m 339 108 b 356 78 339 92 340 88 l 463 3 l 463 0 l 24 0 l 24 3 l 131 78 b 146 108 144 88 146 92 l 146 868 b 131 899 146 885 144 889 l 24 974 l 24 976 l 463 976 l 463 974 l 356 899 b 339 868 340 888 339 885 m 217 1271 l 333 1044 l 331 1042 l 24 1268 l 24 1271 "},"Í":{"ha":486,"x_min":0,"x_max":0,"o":"m 339 108 b 356 78 339 92 340 88 l 463 3 l 463 0 l 24 0 l 24 3 l 131 78 b 146 108 144 88 146 92 l 146 868 b 131 899 146 885 144 889 l 24 974 l 24 976 l 463 976 l 463 974 l 356 899 b 339 868 340 888 339 885 m 464 1271 l 464 1268 l 157 1042 l 154 1044 l 272 1271 "},"Î":{"ha":486,"x_min":0,"x_max":0,"o":"m 339 108 b 356 78 339 92 340 88 l 463 3 l 463 0 l 24 0 l 24 3 l 131 78 b 146 108 144 88 146 92 l 146 868 b 131 899 146 885 144 889 l 24 974 l 24 976 l 463 976 l 463 974 l 356 899 b 339 868 340 888 339 885 m 453 1039 l 243 1139 l 33 1039 l 32 1042 l 242 1282 l 244 1282 l 454 1042 "},"Ï":{"ha":486,"x_min":0,"x_max":0,"o":"m 339 108 b 356 78 339 92 340 88 l 463 3 l 463 0 l 24 0 l 24 3 l 131 78 b 146 108 144 88 146 92 l 146 868 b 131 899 146 885 144 889 l 24 974 l 24 976 l 463 976 l 463 974 l 356 899 b 339 868 340 888 339 885 m 35 1158 b 118 1242 35 1206 72 1242 b 200 1158 163 1242 200 1206 b 118 1078 200 1114 163 1078 b 35 1158 72 1078 35 1114 m 285 1158 b 365 1242 285 1206 321 1242 b 450 1158 413 1242 450 1206 b 365 1078 450 1114 413 1078 b 285 1158 321 1078 285 1114 "},"Ð":{"ha":975,"x_min":0,"x_max":0,"o":"m 33 508 l 157 508 l 157 864 b 142 900 157 886 156 890 l 32 974 l 32 976 l 465 976 b 933 507 778 976 933 796 b 453 0 933 201 765 0 l 32 0 l 32 3 l 142 76 b 157 114 156 86 157 90 l 157 483 l 33 483 m 375 950 b 350 924 357 950 350 946 l 350 508 l 513 508 l 513 483 l 350 483 l 350 57 b 383 26 350 29 354 26 l 413 26 b 713 493 601 26 713 163 b 432 950 713 815 607 950 "},"Ñ":{"ha":963,"x_min":0,"x_max":0,"o":"m 306 976 l 792 199 l 792 794 b 772 838 792 814 790 819 l 636 974 l 636 976 l 975 976 l 975 974 l 840 838 b 819 794 824 819 819 815 l 819 0 l 690 0 l 194 792 l 194 182 b 215 139 194 160 197 156 l 351 3 l 351 0 l 11 0 l 11 3 l 147 139 b 167 182 164 156 167 161 l 167 806 b 151 851 167 829 163 839 l 25 974 l 25 976 m 572 1075 b 383 1140 507 1075 443 1140 b 297 1074 344 1140 315 1119 l 294 1074 b 297 1115 294 1088 296 1101 b 404 1238 306 1189 343 1238 b 592 1171 469 1238 532 1171 b 679 1238 629 1171 661 1190 l 682 1238 b 679 1193 682 1222 681 1207 b 572 1075 671 1122 632 1075 "},"Ò":{"ha":983,"x_min":0,"x_max":0,"o":"m 493 10 b 719 489 626 10 719 140 b 493 967 719 838 626 967 b 265 489 358 967 265 838 b 493 10 265 140 358 11 m 493 990 b 939 489 775 990 939 808 b 493 -14 939 168 775 -14 b 44 489 210 -14 44 168 b 493 990 44 808 210 990 m 465 1271 l 582 1044 l 579 1042 l 272 1268 l 272 1271 "},"Ó":{"ha":983,"x_min":0,"x_max":0,"o":"m 713 1271 l 713 1268 l 406 1042 l 403 1044 l 521 1271 m 493 10 b 719 489 626 10 719 140 b 493 967 719 838 626 967 b 265 489 358 967 265 838 b 493 10 265 140 358 11 m 493 990 b 939 489 775 990 939 808 b 493 -14 939 168 775 -14 b 44 489 210 -14 44 168 b 493 990 44 808 210 990 "},"Ô":{"ha":983,"x_min":0,"x_max":0,"o":"m 701 1039 l 492 1139 l 282 1039 l 281 1042 l 490 1282 l 493 1282 l 703 1042 m 493 10 b 719 489 626 10 719 140 b 493 967 719 838 626 967 b 265 489 358 967 265 838 b 493 10 265 140 358 11 m 493 990 b 939 489 775 990 939 808 b 493 -14 939 168 775 -14 b 44 489 210 -14 44 168 b 493 990 44 808 210 990 "},"Õ":{"ha":983,"x_min":0,"x_max":0,"o":"m 493 10 b 719 489 626 10 719 140 b 493 967 719 838 626 967 b 265 489 358 967 265 838 b 493 10 265 140 358 11 m 493 990 b 939 489 775 990 939 808 b 493 -14 939 168 775 -14 b 44 489 210 -14 44 168 b 493 990 44 808 210 990 m 576 1075 b 388 1140 511 1075 447 1140 b 301 1074 349 1140 319 1119 l 299 1074 b 301 1115 299 1088 300 1101 b 408 1238 310 1189 347 1238 b 596 1171 474 1238 536 1171 b 683 1238 633 1171 665 1190 l 686 1238 b 683 1193 686 1222 685 1207 b 576 1075 675 1122 636 1075 "},"Ö":{"ha":983,"x_min":0,"x_max":0,"o":"m 283 1158 b 367 1242 283 1206 321 1242 b 449 1158 411 1242 449 1206 b 367 1078 449 1114 411 1078 b 283 1158 321 1078 283 1114 m 533 1158 b 614 1242 533 1206 569 1242 b 699 1158 661 1242 699 1206 b 614 1078 699 1114 661 1078 b 533 1158 569 1078 533 1114 m 493 10 b 719 489 626 10 719 140 b 493 967 719 838 626 967 b 265 489 358 967 265 838 b 493 10 265 140 358 11 m 493 990 b 939 489 775 990 939 808 b 493 -14 939 168 775 -14 b 44 489 210 -14 44 168 b 493 990 44 808 210 990 "},"×":{"ha":750,"x_min":0,"x_max":0,"o":"m 150 242 l 357 449 l 150 656 l 168 674 l 375 467 l 582 674 l 600 656 l 393 449 l 600 242 l 582 224 l 375 431 l 168 224 "},"Ø":{"ha":983,"x_min":0,"x_max":0,"o":"m 493 990 b 692 953 568 990 635 978 l 750 1083 l 774 1072 l 715 942 b 939 489 860 867 939 711 b 493 -14 939 168 775 -14 b 308 18 424 -14 363 -3 l 250 -114 l 226 -103 l 283 28 b 44 489 129 99 44 257 b 493 990 44 808 210 990 m 265 489 b 326 124 265 318 288 200 l 653 864 b 493 967 613 935 557 967 b 265 489 358 967 265 838 m 493 10 b 719 489 626 10 719 140 b 668 833 719 644 700 757 l 342 96 b 493 10 381 36 433 10 "},"Ù":{"ha":919,"x_min":0,"x_max":0,"o":"m 475 -14 b 122 306 218 -14 122 100 l 122 865 b 106 896 122 882 121 885 l 8 974 l 8 976 l 435 976 l 435 974 l 331 896 b 315 865 317 886 315 882 l 315 329 b 539 31 315 124 394 31 b 761 347 679 31 761 140 l 761 794 b 740 838 761 814 760 821 l 606 974 l 606 976 l 943 976 l 943 974 l 808 838 b 789 794 790 821 789 814 l 789 349 b 475 -14 789 131 704 -14 m 485 1271 l 601 1044 l 599 1042 l 292 1268 l 292 1271 "},"Ú":{"ha":919,"x_min":0,"x_max":0,"o":"m 732 1271 l 732 1268 l 425 1042 l 422 1044 l 540 1271 m 475 -14 b 122 306 218 -14 122 100 l 122 865 b 106 896 122 882 121 885 l 8 974 l 8 976 l 435 976 l 435 974 l 331 896 b 315 865 317 886 315 882 l 315 329 b 539 31 315 124 394 31 b 761 347 679 31 761 140 l 761 794 b 740 838 761 814 760 821 l 606 974 l 606 976 l 943 976 l 943 974 l 808 838 b 789 794 790 821 789 814 l 789 349 b 475 -14 789 131 704 -14 "},"Û":{"ha":919,"x_min":0,"x_max":0,"o":"m 721 1039 l 511 1139 l 301 1039 l 300 1042 l 510 1282 l 513 1282 l 722 1042 m 475 -14 b 122 306 218 -14 122 100 l 122 865 b 106 896 122 882 121 885 l 8 974 l 8 976 l 435 976 l 435 974 l 331 896 b 315 865 317 886 315 882 l 315 329 b 539 31 315 124 394 31 b 761 347 679 31 761 140 l 761 794 b 740 838 761 814 760 821 l 606 974 l 606 976 l 943 976 l 943 974 l 808 838 b 789 794 790 821 789 814 l 789 349 b 475 -14 789 131 704 -14 "},"Ü":{"ha":919,"x_min":0,"x_max":0,"o":"m 303 1158 b 386 1242 303 1206 340 1242 b 468 1158 431 1242 468 1206 b 386 1078 468 1114 431 1078 b 303 1158 340 1078 303 1114 m 553 1158 b 633 1242 553 1206 589 1242 b 718 1158 681 1242 718 1206 b 633 1078 718 1114 681 1078 b 553 1158 589 1078 553 1114 m 475 -14 b 122 306 218 -14 122 100 l 122 865 b 106 896 122 882 121 885 l 8 974 l 8 976 l 435 976 l 435 974 l 331 896 b 315 865 317 886 315 882 l 315 329 b 539 31 315 124 394 31 b 761 347 679 31 761 140 l 761 794 b 740 838 761 814 760 821 l 606 974 l 606 976 l 943 976 l 943 974 l 808 838 b 789 794 790 821 789 814 l 789 349 b 475 -14 789 131 704 -14 "},"Ý":{"ha":856,"x_min":0,"x_max":0,"o":"m 531 113 b 547 82 531 94 532 92 l 663 3 l 663 0 l 206 0 l 206 3 l 322 82 b 338 113 336 92 338 94 l 338 367 b 328 406 338 385 336 392 l 90 846 b 53 897 78 869 67 882 l -18 974 l -18 976 l 390 976 l 390 974 l 304 892 b 299 863 293 881 292 876 l 517 449 l 699 804 b 694 842 708 824 706 829 l 575 974 l 575 976 l 906 976 l 906 974 l 767 844 b 724 792 744 825 738 817 l 542 438 b 531 386 532 419 531 411 m 692 1271 l 692 1268 l 385 1042 l 382 1044 l 500 1271 "},"Þ":{"ha":856,"x_min":0,"x_max":0,"o":"m 826 517 b 446 211 826 315 661 211 l 339 211 l 339 115 b 356 83 339 99 340 93 l 494 3 l 494 0 l 24 0 l 24 3 l 131 78 b 146 110 144 88 146 93 l 146 868 b 131 899 146 885 144 889 l 24 974 l 24 976 l 339 976 l 339 813 l 471 813 b 826 517 664 813 826 732 m 422 238 b 624 514 531 238 624 321 b 424 786 624 696 542 786 l 339 786 l 339 238 "},"ß":{"ha":844,"x_min":0,"x_max":0,"o":"m 828 207 b 563 -11 828 64 706 -11 b 332 36 493 -11 404 4 l 408 231 l 411 231 l 493 32 b 519 14 497 21 503 17 b 565 11 533 11 547 11 b 681 132 640 11 681 68 b 581 253 681 189 639 222 l 478 306 b 358 456 404 343 358 390 b 450 599 358 518 393 551 l 504 644 b 574 819 551 683 574 739 b 433 968 574 904 521 968 b 297 756 342 968 297 894 l 297 0 l 26 0 l 26 3 l 108 63 b 122 93 121 71 122 75 l 122 656 l 32 656 l 32 681 l 122 681 b 431 990 124 919 239 990 b 697 821 567 990 697 932 b 596 679 697 758 654 717 b 522 629 588 675 528 633 b 478 554 492 606 478 585 b 581 446 478 508 526 472 l 688 393 b 828 207 769 354 828 303 "},"à":{"ha":676,"x_min":0,"x_max":0,"o":"m 415 490 l 415 496 b 288 668 415 597 375 668 b 246 650 257 668 254 667 l 149 454 l 146 454 l 72 643 b 326 692 157 676 243 692 b 521 635 414 692 476 678 b 586 411 561 593 586 525 l 586 386 l 578 165 b 624 78 575 107 590 78 b 665 111 644 78 658 90 l 668 111 b 658 64 669 96 665 79 b 539 -11 640 22 599 -11 b 411 131 469 -11 413 35 b 222 -11 383 43 311 -11 b 38 176 124 -11 38 56 b 267 383 38 314 154 383 b 413 342 319 383 374 371 m 344 343 b 210 197 257 343 210 276 b 306 78 210 122 251 78 b 410 143 346 78 385 103 l 413 332 b 344 343 390 340 367 343 m 303 976 l 419 750 l 417 747 l 110 974 l 110 976 "},"á":{"ha":676,"x_min":0,"x_max":0,"o":"m 415 490 l 415 496 b 288 668 415 597 375 668 b 246 650 257 668 254 667 l 149 454 l 146 454 l 72 643 b 326 692 157 676 243 692 b 521 635 414 692 476 678 b 586 411 561 593 586 525 l 586 386 l 578 165 b 624 78 575 107 590 78 b 665 111 644 78 658 90 l 668 111 b 658 64 669 96 665 79 b 539 -11 640 22 599 -11 b 411 131 469 -11 413 35 b 222 -11 383 43 311 -11 b 38 176 124 -11 38 56 b 267 383 38 314 154 383 b 413 342 319 383 374 371 m 344 343 b 210 197 257 343 210 276 b 306 78 210 122 251 78 b 410 143 346 78 385 103 l 413 332 b 344 343 390 340 367 343 m 551 976 l 551 974 l 244 747 l 242 750 l 360 976 "},"â":{"ha":676,"x_min":0,"x_max":0,"o":"m 415 490 l 415 496 b 288 668 415 597 375 668 b 246 650 257 668 254 667 l 149 454 l 146 454 l 72 643 b 326 692 157 676 243 692 b 521 635 414 692 476 678 b 586 411 561 593 586 525 l 586 386 l 578 165 b 624 78 575 107 590 78 b 665 111 644 78 658 90 l 668 111 b 658 64 669 96 665 79 b 539 -11 640 22 599 -11 b 411 131 469 -11 413 35 b 222 -11 383 43 311 -11 b 38 176 124 -11 38 56 b 267 383 38 314 154 383 b 413 342 319 383 374 371 m 344 343 b 210 197 257 343 210 276 b 306 78 210 122 251 78 b 410 143 346 78 385 103 l 413 332 b 344 343 390 340 367 343 m 539 744 l 329 844 l 119 744 l 118 747 l 328 988 l 331 988 l 540 747 "},"ã":{"ha":676,"x_min":0,"x_max":0,"o":"m 415 490 l 415 496 b 288 668 415 597 375 668 b 246 650 257 668 254 667 l 149 454 l 146 454 l 72 643 b 326 692 157 676 243 692 b 521 635 414 692 476 678 b 586 411 561 593 586 525 l 586 386 l 578 165 b 624 78 575 107 590 78 b 665 111 644 78 658 90 l 668 111 b 658 64 669 96 665 79 b 539 -11 640 22 599 -11 b 411 131 469 -11 413 35 b 222 -11 383 43 311 -11 b 38 176 124 -11 38 56 b 267 383 38 314 154 383 b 413 342 319 383 374 371 m 344 343 b 210 197 257 343 210 276 b 306 78 210 122 251 78 b 410 143 346 78 385 103 l 413 332 b 344 343 390 340 367 343 m 415 781 b 226 846 350 781 286 846 b 140 779 188 846 158 825 l 138 779 b 140 821 138 793 139 807 b 247 943 149 894 186 943 b 435 876 313 943 375 876 b 522 943 472 876 504 896 l 525 943 b 522 899 525 928 524 913 b 415 781 514 828 475 781 "},"ä":{"ha":676,"x_min":0,"x_max":0,"o":"m 415 490 l 415 496 b 288 668 415 597 375 668 b 246 650 257 668 254 667 l 149 454 l 146 454 l 72 643 b 326 692 157 676 243 692 b 521 635 414 692 476 678 b 586 411 561 593 586 525 l 586 386 l 578 165 b 624 78 575 107 590 78 b 665 111 644 78 658 90 l 668 111 b 658 64 669 96 665 79 b 539 -11 640 22 599 -11 b 411 131 469 -11 413 35 b 222 -11 383 43 311 -11 b 38 176 124 -11 38 56 b 267 383 38 314 154 383 b 413 342 319 383 374 371 m 344 343 b 210 197 257 343 210 276 b 306 78 210 122 251 78 b 410 143 346 78 385 103 l 413 332 b 344 343 390 340 367 343 m 121 864 b 204 947 121 911 158 947 b 286 864 249 947 286 911 b 204 783 286 819 249 783 b 121 864 158 783 121 819 m 371 864 b 451 947 371 911 407 947 b 536 864 499 947 536 911 b 451 783 536 819 499 783 b 371 864 407 783 371 819 "},"å":{"ha":676,"x_min":0,"x_max":0,"o":"m 415 490 l 415 496 b 288 668 415 597 375 668 b 246 650 257 668 254 667 l 149 454 l 146 454 l 72 643 b 326 692 157 676 243 692 b 521 635 414 692 476 678 b 586 411 561 593 586 525 l 586 386 l 578 165 b 624 78 575 107 590 78 b 665 111 644 78 658 90 l 668 111 b 658 64 669 96 665 79 b 539 -11 640 22 599 -11 b 411 131 469 -11 413 35 b 222 -11 383 43 311 -11 b 38 176 124 -11 38 56 b 267 383 38 314 154 383 b 413 342 319 383 374 371 m 344 343 b 210 197 257 343 210 276 b 306 78 210 122 251 78 b 410 143 346 78 385 103 l 413 332 b 344 343 390 340 367 343 m 451 869 b 329 750 451 801 397 750 b 208 869 264 750 208 803 b 329 990 208 938 261 990 b 451 869 397 990 451 939 m 424 869 b 329 964 424 924 383 964 b 236 869 276 964 236 924 b 329 776 236 818 278 776 b 424 869 383 776 424 817 "},"æ":{"ha":1050,"x_min":0,"x_max":0,"o":"m 261 383 b 413 342 326 383 374 368 b 415 493 413 351 415 482 b 286 667 415 596 375 667 b 246 649 258 667 253 664 l 149 456 l 146 456 l 68 649 b 326 692 153 678 238 692 b 503 635 400 692 456 681 l 524 608 b 731 692 581 665 651 692 b 1011 421 871 692 1011 618 b 1010 386 1011 408 1011 400 l 590 386 l 590 363 b 792 90 590 179 681 90 b 1007 242 881 90 960 132 l 1010 242 b 724 -11 978 71 876 -11 b 456 140 615 -11 513 38 b 235 -11 432 60 354 -11 b 38 182 125 -11 38 58 b 261 383 38 317 158 383 m 728 669 b 590 411 646 669 597 583 l 840 411 b 728 669 843 596 806 669 m 319 76 b 451 149 374 76 419 103 b 413 332 426 197 413 258 b 346 343 390 339 367 343 b 210 201 257 343 210 279 b 319 76 210 125 253 76 "},"ç":{"ha":631,"x_min":0,"x_max":0,"o":"m 414 92 b 599 229 492 92 556 135 l 601 229 b 336 -11 576 86 490 -11 l 333 -11 l 322 -86 b 493 -197 417 -67 493 -122 b 338 -328 493 -271 436 -328 b 175 -204 247 -328 181 -274 l 178 -203 b 289 -281 193 -256 247 -281 b 379 -201 338 -281 379 -251 b 288 -121 379 -150 340 -121 b 236 -129 272 -121 254 -122 l 235 -126 l 324 -11 b 36 333 175 -6 36 100 b 381 692 36 597 211 692 b 597 653 442 692 515 682 l 522 433 l 519 433 l 426 651 b 400 669 419 664 415 669 l 386 669 b 219 388 276 669 219 569 b 414 92 219 171 311 92 "},"è":{"ha":675,"x_min":0,"x_max":0,"o":"m 217 386 l 217 364 b 417 90 217 179 306 90 b 632 242 506 90 585 132 l 635 242 b 349 -11 603 71 501 -11 b 38 335 188 -11 38 94 b 356 692 38 596 200 692 b 636 421 496 692 636 618 b 633 386 636 408 635 397 m 353 669 b 217 411 271 669 224 582 l 465 411 b 467 438 467 422 467 432 b 353 669 467 596 429 669 m 331 976 l 447 750 l 444 747 l 138 974 l 138 976 "},"é":{"ha":675,"x_min":0,"x_max":0,"o":"m 579 976 l 579 974 l 272 747 l 269 750 l 388 976 m 217 386 l 217 364 b 417 90 217 179 306 90 b 632 242 506 90 585 132 l 635 242 b 349 -11 603 71 501 -11 b 38 335 188 -11 38 94 b 356 692 38 596 200 692 b 636 421 496 692 636 618 b 633 386 636 408 635 397 m 353 669 b 217 411 271 669 224 582 l 465 411 b 467 438 467 422 467 432 b 353 669 467 596 429 669 "},"ê":{"ha":675,"x_min":0,"x_max":0,"o":"m 567 744 l 357 844 l 147 744 l 146 747 l 356 988 l 358 988 l 568 747 m 217 386 l 217 364 b 417 90 217 179 306 90 b 632 242 506 90 585 132 l 635 242 b 349 -11 603 71 501 -11 b 38 335 188 -11 38 94 b 356 692 38 596 200 692 b 636 421 496 692 636 618 b 633 386 636 408 635 397 m 353 669 b 217 411 271 669 224 582 l 465 411 b 467 438 467 422 467 432 b 353 669 467 596 429 669 "},"ë":{"ha":675,"x_min":0,"x_max":0,"o":"m 149 864 b 232 947 149 911 186 947 b 314 864 276 947 314 911 b 232 783 314 819 276 783 b 149 864 186 783 149 819 m 399 864 b 479 947 399 911 435 947 b 564 864 526 947 564 911 b 479 783 564 819 526 783 b 399 864 435 783 399 819 m 217 386 l 217 364 b 417 90 217 179 306 90 b 632 242 506 90 585 132 l 635 242 b 349 -11 603 71 501 -11 b 38 335 188 -11 38 94 b 356 692 38 596 200 692 b 636 421 496 692 636 618 b 633 386 636 408 635 397 m 353 669 b 217 411 271 669 224 582 l 465 411 b 467 438 467 422 467 432 b 353 669 467 596 429 669 "},"ì":{"ha":413,"x_min":0,"x_max":0,"o":"m 303 93 b 318 63 303 78 303 74 l 400 3 l 400 0 l 32 0 l 32 3 l 114 63 b 128 93 128 72 128 78 l 128 576 b 114 608 128 593 126 599 l 32 678 l 32 681 l 303 681 m 182 976 l 299 750 l 296 747 l -11 974 l -11 976 "},"í":{"ha":413,"x_min":0,"x_max":0,"o":"m 429 976 l 429 974 l 122 747 l 119 750 l 238 976 m 303 93 b 318 63 303 78 303 74 l 400 3 l 400 0 l 32 0 l 32 3 l 114 63 b 128 93 128 72 128 78 l 128 576 b 114 608 128 593 126 599 l 32 678 l 32 681 l 303 681 "},"î":{"ha":413,"x_min":0,"x_max":0,"o":"m 404 744 l 194 844 l -15 744 l -17 747 l 193 988 l 196 988 l 406 747 m 303 93 b 318 63 303 78 303 74 l 400 3 l 400 0 l 32 0 l 32 3 l 114 63 b 128 93 128 72 128 78 l 128 576 b 114 608 128 593 126 599 l 32 678 l 32 681 l 303 681 "},"ï":{"ha":413,"x_min":0,"x_max":0,"o":"m -12 864 b 71 947 -12 911 25 947 b 153 864 115 947 153 911 b 71 783 153 819 115 783 b -12 864 25 783 -12 819 m 238 864 b 318 947 238 911 274 947 b 403 864 365 947 403 911 b 318 783 403 819 365 783 b 238 864 274 783 238 819 m 303 93 b 318 63 303 78 303 74 l 400 3 l 400 0 l 32 0 l 32 3 l 114 63 b 128 93 128 72 128 78 l 128 576 b 114 608 128 593 126 599 l 32 678 l 32 681 l 303 681 "},"ð":{"ha":733,"x_min":0,"x_max":0,"o":"m 175 990 b 200 988 178 990 190 989 b 444 901 296 975 378 944 l 608 994 l 619 972 l 468 886 b 693 390 621 775 693 589 b 358 -11 693 126 585 -11 b 39 332 182 -11 39 114 b 322 682 39 553 171 682 b 489 594 397 682 454 650 b 383 839 468 693 433 774 l 213 742 l 201 764 l 368 858 b 175 988 318 917 253 960 m 510 369 b 493 571 510 443 504 510 b 379 631 461 611 426 631 b 233 324 276 631 233 483 b 363 13 233 139 281 13 b 510 369 454 13 510 107 "},"ñ":{"ha":815,"x_min":0,"x_max":0,"o":"m 542 369 b 428 596 542 519 513 596 b 301 511 371 596 331 561 l 301 93 b 317 63 301 78 303 74 l 399 3 l 399 0 l 31 0 l 31 3 l 113 63 b 126 93 125 72 126 78 l 126 576 b 113 608 126 594 125 599 l 31 678 l 31 681 l 301 681 l 301 522 b 514 692 335 633 407 692 b 717 408 644 692 717 600 b 714 93 717 332 715 204 b 729 63 714 76 717 72 l 811 3 l 811 0 l 443 0 l 443 3 l 521 63 b 538 92 535 72 538 79 b 542 369 538 107 542 308 m 499 781 b 310 846 433 781 369 846 b 224 779 271 846 242 825 l 221 779 b 224 821 221 793 222 807 b 331 943 232 894 269 943 b 518 876 396 943 458 876 b 606 943 556 876 588 896 l 608 943 b 606 899 608 928 607 913 b 499 781 597 828 558 781 "},"ò":{"ha":744,"x_min":0,"x_max":0,"o":"m 372 669 b 236 342 289 669 236 596 b 372 11 236 88 289 11 b 510 340 456 11 510 86 b 372 669 510 594 456 669 m 372 -11 b 38 342 171 -11 38 113 b 372 692 38 569 171 692 b 707 340 575 692 707 571 b 372 -11 707 113 575 -11 m 344 976 l 461 750 l 458 747 l 151 974 l 151 976 "},"ó":{"ha":744,"x_min":0,"x_max":0,"o":"m 593 976 l 593 974 l 286 747 l 283 750 l 401 976 m 372 669 b 236 342 289 669 236 596 b 372 11 236 88 289 11 b 510 340 456 11 510 86 b 372 669 510 594 456 669 m 372 -11 b 38 342 171 -11 38 113 b 372 692 38 569 171 692 b 707 340 575 692 707 571 b 372 -11 707 113 575 -11 "},"ô":{"ha":744,"x_min":0,"x_max":0,"o":"m 581 744 l 371 844 l 161 744 l 160 747 l 369 988 l 372 988 l 582 747 m 372 669 b 236 342 289 669 236 596 b 372 11 236 88 289 11 b 510 340 456 11 510 86 b 372 669 510 594 456 669 m 372 -11 b 38 342 171 -11 38 113 b 372 692 38 569 171 692 b 707 340 575 692 707 571 b 372 -11 707 113 575 -11 "},"õ":{"ha":744,"x_min":0,"x_max":0,"o":"m 372 669 b 236 342 289 669 236 596 b 372 11 236 88 289 11 b 510 340 456 11 510 86 b 372 669 510 594 456 669 m 372 -11 b 38 342 171 -11 38 113 b 372 692 38 569 171 692 b 707 340 575 692 707 571 b 372 -11 707 113 575 -11 m 457 781 b 268 846 392 781 328 846 b 182 779 229 846 200 825 l 179 779 b 182 821 179 793 181 807 b 289 943 190 894 228 943 b 476 876 354 943 417 876 b 564 943 514 876 546 896 l 567 943 b 564 899 567 928 565 913 b 457 781 556 828 517 781 "},"ö":{"ha":744,"x_min":0,"x_max":0,"o":"m 164 864 b 247 947 164 911 201 947 b 329 864 292 947 329 911 b 247 783 329 819 292 783 b 164 864 201 783 164 819 m 414 864 b 494 947 414 911 450 947 b 579 864 542 947 579 911 b 494 783 579 819 542 783 b 414 864 450 783 414 819 m 372 669 b 236 342 289 669 236 596 b 372 11 236 88 289 11 b 510 340 456 11 510 86 b 372 669 510 594 456 669 m 372 -11 b 38 342 171 -11 38 113 b 372 692 38 569 171 692 b 707 340 575 692 707 571 b 372 -11 707 113 575 -11 "},"÷":{"ha":750,"x_min":0,"x_max":0,"o":"m 69 451 l 681 451 l 681 426 l 69 426 m 281 657 b 374 749 281 711 322 749 b 467 657 426 749 467 711 b 374 567 467 604 426 567 b 281 657 322 567 281 604 m 281 213 b 374 304 281 267 322 304 b 467 213 426 304 467 267 b 374 122 467 160 426 122 b 281 213 322 122 281 160 "},"ø":{"ha":744,"x_min":0,"x_max":0,"o":"m 529 663 b 708 340 640 615 708 510 b 372 -11 708 103 575 -11 b 242 8 324 -11 281 -4 l 188 -114 l 163 -101 l 215 18 b 38 342 104 65 38 172 b 372 692 38 579 171 692 b 504 672 421 692 465 685 l 553 781 l 578 771 m 372 669 b 236 342 286 669 236 596 b 258 117 236 240 243 167 l 472 600 b 372 669 449 650 415 669 m 508 340 b 486 563 508 440 500 513 l 272 79 b 372 13 296 31 329 13 b 508 340 458 13 508 86 "},"ù":{"ha":785,"x_min":0,"x_max":0,"o":"m 676 104 b 690 72 676 86 678 82 l 772 3 l 772 0 l 500 0 l 500 154 b 294 -11 464 51 396 -11 b 96 271 167 -11 96 81 b 99 576 96 358 97 465 b 85 610 99 594 97 599 l 1 678 l 1 681 l 274 681 b 271 313 274 674 271 350 b 381 85 271 164 299 85 b 500 169 432 85 471 119 l 500 576 b 486 608 500 594 499 599 l 404 678 l 404 681 l 676 681 m 344 976 l 461 750 l 458 747 l 151 974 l 151 976 "},"ú":{"ha":785,"x_min":0,"x_max":0,"o":"m 593 976 l 593 974 l 286 747 l 283 750 l 401 976 m 676 104 b 690 72 676 86 678 82 l 772 3 l 772 0 l 500 0 l 500 154 b 294 -11 464 51 396 -11 b 96 271 167 -11 96 81 b 99 576 96 358 97 465 b 85 610 99 594 97 599 l 1 678 l 1 681 l 274 681 b 271 313 274 674 271 350 b 381 85 271 164 299 85 b 500 169 432 85 471 119 l 500 576 b 486 608 500 594 499 599 l 404 678 l 404 681 l 676 681 "},"û":{"ha":785,"x_min":0,"x_max":0,"o":"m 581 744 l 371 844 l 161 744 l 160 747 l 369 988 l 372 988 l 582 747 m 676 104 b 690 72 676 86 678 82 l 772 3 l 772 0 l 500 0 l 500 154 b 294 -11 464 51 396 -11 b 96 271 167 -11 96 81 b 99 576 96 358 97 465 b 85 610 99 594 97 599 l 1 678 l 1 681 l 274 681 b 271 313 274 674 271 350 b 381 85 271 164 299 85 b 500 169 432 85 471 119 l 500 576 b 486 608 500 594 499 599 l 404 678 l 404 681 l 676 681 "},"ü":{"ha":785,"x_min":0,"x_max":0,"o":"m 163 864 b 246 947 163 911 200 947 b 328 864 290 947 328 911 b 246 783 328 819 290 783 b 163 864 200 783 163 819 m 413 864 b 493 947 413 911 449 947 b 578 864 540 947 578 911 b 493 783 578 819 540 783 b 413 864 449 783 413 819 m 676 104 b 690 72 676 86 678 82 l 772 3 l 772 0 l 500 0 l 500 154 b 294 -11 464 51 396 -11 b 96 271 167 -11 96 81 b 99 576 96 358 97 465 b 85 610 99 594 97 599 l 1 678 l 1 681 l 274 681 b 271 313 274 674 271 350 b 381 85 271 164 299 85 b 500 169 432 85 471 119 l 500 576 b 486 608 500 594 499 599 l 404 678 l 404 681 l 676 681 "},"ý":{"ha":631,"x_min":0,"x_max":0,"o":"m 78 -328 b 15 -314 54 -328 33 -322 l 65 -89 l 68 -89 l 174 -226 b 192 -240 181 -236 185 -240 b 208 -226 197 -240 201 -236 b 296 -61 233 -193 265 -132 l 46 576 b 21 624 36 600 29 610 l -14 678 l -14 681 l 299 681 l 299 678 l 238 610 b 233 576 228 599 226 593 l 388 165 l 519 501 b 517 546 528 524 528 528 l 433 678 l 433 681 l 658 681 l 658 678 l 575 556 b 544 497 561 535 556 524 l 336 -37 b 243 -221 311 -101 281 -162 b 78 -328 196 -296 147 -328 m 572 976 l 572 974 l 265 747 l 263 750 l 381 976 "},"þ":{"ha":765,"x_min":0,"x_max":0,"o":"m 475 692 b 724 358 629 692 724 567 b 450 -11 724 138 619 -11 b 264 107 349 -11 292 36 l 264 -211 b 283 -244 264 -228 265 -235 l 399 -314 l 399 -317 l -8 -317 l -8 -314 l 74 -254 b 89 -224 88 -246 89 -240 l 89 872 b 74 904 89 890 88 893 l -8 974 l -8 976 l 264 989 l 264 526 b 475 692 307 642 379 692 m 392 596 b 264 513 346 596 297 569 l 264 121 b 378 57 289 79 328 57 b 536 349 472 57 536 153 b 392 596 536 532 485 596 "},"ÿ":{"ha":631,"x_min":0,"x_max":0,"o":"m 78 -328 b 15 -314 54 -328 33 -322 l 65 -89 l 68 -89 l 174 -226 b 192 -240 181 -236 185 -240 b 208 -226 197 -240 201 -236 b 296 -61 233 -193 265 -132 l 46 576 b 21 624 36 600 29 610 l -14 678 l -14 681 l 299 681 l 299 678 l 238 610 b 233 576 228 599 226 593 l 388 165 l 519 501 b 517 546 528 524 528 528 l 433 678 l 433 681 l 658 681 l 658 678 l 575 556 b 544 497 561 535 556 524 l 336 -37 b 243 -221 311 -101 281 -162 b 78 -328 196 -296 147 -328 m 143 864 b 226 947 143 911 181 947 b 308 864 271 947 308 911 b 226 783 308 819 271 783 b 143 864 181 783 143 819 m 393 864 b 474 947 393 911 429 947 b 558 864 521 947 558 911 b 474 783 558 819 521 783 b 393 864 429 783 393 819 "},"Ā":{"ha":885,"x_min":0,"x_max":0,"o":"m 799 132 b 829 76 807 108 815 93 l 888 3 l 888 0 l 513 0 l 513 3 l 596 86 b 601 122 606 96 607 104 l 529 342 l 211 342 l 158 182 b 169 140 151 163 154 157 l 296 3 l 296 0 l -24 0 l -24 3 l 97 135 b 132 189 119 160 124 165 l 346 835 b 336 885 356 863 353 867 l 257 974 l 257 976 l 522 976 l 799 132 m 219 368 l 521 368 l 372 825 m 236 1117 l 236 1142 l 600 1142 l 600 1117 "},"ā":{"ha":676,"x_min":0,"x_max":0,"o":"m 415 490 l 415 496 b 288 668 415 597 375 668 b 246 650 257 668 254 667 l 149 454 l 146 454 l 72 643 b 326 692 157 676 243 692 b 521 635 414 692 476 678 b 586 411 561 593 586 525 l 586 386 l 578 165 b 624 78 575 107 590 78 b 665 111 644 78 658 90 l 668 111 b 658 64 669 96 665 79 b 539 -11 640 22 599 -11 b 411 131 469 -11 413 35 b 222 -11 383 43 311 -11 b 38 176 124 -11 38 56 b 267 383 38 314 154 383 b 413 342 319 383 374 371 m 344 343 b 210 197 257 343 210 276 b 306 78 210 122 251 78 b 410 143 346 78 385 103 l 413 332 b 344 343 390 340 367 343 m 144 822 l 144 847 l 508 847 l 508 822 "},"Ă":{"ha":885,"x_min":0,"x_max":0,"o":"m 799 132 b 829 76 807 108 815 93 l 888 3 l 888 0 l 513 0 l 513 3 l 596 86 b 601 122 606 96 607 104 l 529 342 l 211 342 l 158 182 b 169 140 151 163 154 157 l 296 3 l 296 0 l -24 0 l -24 3 l 97 135 b 132 189 119 160 124 165 l 346 835 b 336 885 356 863 353 867 l 257 974 l 257 976 l 522 976 l 799 132 m 219 368 l 521 368 l 372 825 m 589 1219 b 415 1046 589 1096 501 1046 b 243 1219 331 1046 243 1096 b 249 1275 243 1236 244 1254 l 251 1275 b 415 1140 256 1189 324 1140 b 581 1275 508 1140 576 1189 l 583 1275 b 589 1219 588 1254 589 1236 "},"ă":{"ha":676,"x_min":0,"x_max":0,"o":"m 415 490 l 415 496 b 288 668 415 597 375 668 b 246 650 257 668 254 667 l 149 454 l 146 454 l 72 643 b 326 692 157 676 243 692 b 521 635 414 692 476 678 b 586 411 561 593 586 525 l 586 386 l 578 165 b 624 78 575 107 590 78 b 665 111 644 78 658 90 l 668 111 b 658 64 669 96 665 79 b 539 -11 640 22 599 -11 b 411 131 469 -11 413 35 b 222 -11 383 43 311 -11 b 38 176 124 -11 38 56 b 267 383 38 314 154 383 b 413 342 319 383 374 371 m 344 343 b 210 197 257 343 210 276 b 306 78 210 122 251 78 b 410 143 346 78 385 103 l 413 332 b 344 343 390 340 367 343 m 497 925 b 324 751 497 801 410 751 b 151 925 239 751 151 801 b 157 981 151 942 153 960 l 160 981 b 324 846 164 894 232 846 b 489 981 417 846 485 894 l 492 981 b 497 925 496 960 497 942 "},"Ą":{"ha":885,"x_min":0,"x_max":0,"o":"m 799 132 b 829 76 807 108 815 93 l 888 3 l 888 0 l 531 0 b 436 -147 469 -32 436 -86 b 539 -254 436 -218 483 -254 b 644 -199 574 -254 617 -237 l 647 -200 b 483 -328 621 -269 572 -328 b 339 -186 414 -328 339 -279 b 513 3 339 -110 406 -32 l 596 86 b 601 122 606 96 607 104 l 529 342 l 211 342 l 158 182 b 169 140 153 163 154 157 l 296 3 l 296 0 l -24 0 l -24 3 l 97 135 b 132 189 119 160 124 165 l 346 835 b 336 885 356 863 353 867 l 257 974 l 257 976 l 522 976 l 799 132 m 219 368 l 521 368 l 372 825 "},"ą":{"ha":676,"x_min":0,"x_max":0,"o":"m 561 -10 b 469 -147 501 -39 469 -86 b 572 -254 469 -218 517 -254 b 676 -199 607 -254 650 -237 l 679 -200 b 517 -328 654 -269 606 -328 b 372 -186 447 -328 372 -279 b 546 -11 372 -108 439 -43 l 539 -11 b 411 131 469 -11 413 35 b 222 -11 383 43 311 -11 b 38 176 124 -11 38 56 b 267 383 38 314 154 383 b 413 342 319 383 374 371 l 415 490 l 415 496 b 288 668 415 597 375 668 b 246 650 257 668 254 667 l 149 454 l 146 454 l 72 643 b 326 692 157 676 243 692 b 521 635 414 692 476 678 b 586 411 561 593 586 525 l 586 386 l 578 165 b 624 78 575 107 590 78 b 665 111 644 78 658 90 l 668 111 b 658 64 669 96 665 79 b 561 -10 643 28 608 -3 m 344 343 b 210 197 257 343 210 276 b 306 78 210 122 251 78 b 410 143 346 78 385 103 l 413 332 b 344 343 390 340 367 343 "},"Ć":{"ha":850,"x_min":0,"x_max":0,"o":"m 724 1271 l 724 1268 l 417 1042 l 414 1044 l 532 1271 m 43 485 b 504 990 43 786 208 990 b 779 961 590 990 685 982 l 779 647 l 776 647 l 604 939 b 560 965 592 960 586 963 b 519 967 546 967 532 967 b 264 488 332 967 264 771 b 525 10 264 186 342 10 b 560 11 536 10 550 10 b 603 35 586 14 592 18 l 776 336 l 779 336 l 779 10 b 518 -14 689 -8 593 -14 b 43 485 188 -14 43 189 "},"ć":{"ha":631,"x_min":0,"x_max":0,"o":"m 590 976 l 590 974 l 283 747 l 281 750 l 399 976 m 336 -11 b 36 333 183 -11 36 94 b 381 692 36 597 211 692 b 597 653 442 692 515 682 l 522 433 l 519 433 l 426 651 b 400 669 419 664 415 669 l 386 669 b 219 388 276 669 219 569 b 414 92 219 171 311 92 b 599 229 492 92 556 135 l 601 229 b 336 -11 576 86 490 -11 "},"Ĉ":{"ha":850,"x_min":0,"x_max":0,"o":"m 711 1039 l 501 1139 l 292 1039 l 290 1042 l 500 1282 l 503 1282 l 713 1042 m 43 485 b 504 990 43 786 208 990 b 779 961 590 990 685 982 l 779 647 l 776 647 l 604 939 b 560 965 592 960 586 963 b 519 967 546 967 532 967 b 264 488 332 967 264 771 b 525 10 264 186 342 10 b 560 11 536 10 550 10 b 603 35 586 14 592 18 l 776 336 l 779 336 l 779 10 b 518 -14 689 -8 593 -14 b 43 485 188 -14 43 189 "},"ĉ":{"ha":631,"x_min":0,"x_max":0,"o":"m 579 744 l 369 844 l 160 744 l 158 747 l 368 988 l 371 988 l 581 747 m 336 -11 b 36 333 183 -11 36 94 b 381 692 36 597 211 692 b 597 653 442 692 515 682 l 522 433 l 519 433 l 426 651 b 400 669 419 664 415 669 l 386 669 b 219 388 276 669 219 569 b 414 92 219 171 311 92 b 599 229 492 92 556 135 l 601 229 b 336 -11 576 86 490 -11 "},"Ċ":{"ha":850,"x_min":0,"x_max":0,"o":"m 43 485 b 504 990 43 786 208 990 b 779 961 590 990 685 982 l 779 647 l 776 647 l 604 939 b 560 965 592 960 586 963 b 519 967 546 967 532 967 b 264 488 332 967 264 771 b 525 10 264 186 342 10 b 560 11 536 10 550 10 b 603 35 586 14 592 18 l 776 336 l 779 336 l 779 10 b 518 -14 689 -8 593 -14 b 43 485 188 -14 43 189 m 408 1154 b 501 1246 408 1208 450 1246 b 594 1154 554 1246 594 1208 b 501 1064 594 1101 554 1064 b 408 1154 450 1064 408 1101 "},"ċ":{"ha":631,"x_min":0,"x_max":0,"o":"m 336 -11 b 36 333 183 -11 36 94 b 381 692 36 597 211 692 b 597 653 442 692 515 682 l 522 433 l 519 433 l 426 651 b 400 669 419 664 415 669 l 386 669 b 219 388 276 669 219 569 b 414 92 219 171 311 92 b 599 229 492 92 556 135 l 601 229 b 336 -11 576 86 490 -11 m 275 860 b 368 951 275 914 317 951 b 461 860 421 951 461 914 b 368 769 461 807 421 769 b 275 860 317 769 275 807 "},"Č":{"ha":850,"x_min":0,"x_max":0,"o":"m 711 1274 l 713 1272 l 503 1031 l 500 1031 l 290 1272 l 292 1274 l 501 1174 m 43 485 b 504 990 43 786 208 990 b 779 961 590 990 685 982 l 779 647 l 776 647 l 604 939 b 560 965 592 960 586 963 b 519 967 546 967 532 967 b 264 488 332 967 264 771 b 525 10 264 186 342 10 b 560 11 536 10 550 10 b 603 35 586 14 592 18 l 776 336 l 779 336 l 779 10 b 518 -14 689 -8 593 -14 b 43 485 188 -14 43 189 "},"č":{"ha":631,"x_min":0,"x_max":0,"o":"m 579 981 l 581 979 l 371 738 l 368 738 l 158 979 l 160 981 l 369 881 m 336 -11 b 36 333 183 -11 36 94 b 381 692 36 597 211 692 b 597 653 442 692 515 682 l 522 433 l 519 433 l 426 651 b 400 669 419 664 415 669 l 386 669 b 219 388 276 669 219 569 b 414 92 219 171 311 92 b 599 229 492 92 556 135 l 601 229 b 336 -11 576 86 490 -11 "},"Ď":{"ha":964,"x_min":0,"x_max":0,"o":"m 663 1274 l 664 1272 l 454 1031 l 451 1031 l 242 1272 l 243 1274 l 453 1174 m 24 3 l 131 78 b 146 108 144 88 146 92 l 146 868 b 131 899 146 885 144 889 l 24 974 l 24 976 l 454 976 b 922 506 767 976 922 794 b 442 0 922 196 754 0 l 24 0 m 401 26 b 703 493 597 26 703 163 b 422 950 703 815 596 950 l 361 950 b 339 924 344 950 339 946 l 339 57 b 372 26 339 29 343 26 "},"ď":{"ha":810,"x_min":0,"x_max":0,"o":"m 760 976 l 901 976 l 750 708 l 747 708 m 675 104 b 689 72 675 86 676 82 l 772 3 l 772 0 l 500 0 l 500 136 b 299 -11 460 33 383 -11 b 39 336 147 -11 39 122 b 321 692 39 553 163 692 b 500 575 415 692 469 640 l 500 882 b 486 914 500 900 499 904 l 404 974 l 404 976 l 675 1008 m 382 74 b 500 149 424 74 463 97 l 500 561 b 386 625 471 601 432 625 b 226 349 300 625 226 546 b 382 74 226 151 299 74 "},"Đ":{"ha":972,"x_min":0,"x_max":0,"o":"m 32 508 l 156 508 l 156 864 b 140 900 156 886 154 890 l 31 974 l 31 976 l 464 976 b 932 507 776 976 932 796 b 451 0 932 201 764 0 l 31 0 l 31 3 l 140 76 b 156 114 154 86 156 90 l 156 483 l 32 483 m 374 950 b 349 924 356 950 349 946 l 349 508 l 511 508 l 511 483 l 349 483 l 349 57 b 382 26 349 29 353 26 l 411 26 b 711 493 600 26 711 163 b 431 950 711 815 606 950 "},"đ":{"ha":788,"x_min":0,"x_max":0,"o":"m 675 807 l 776 807 l 776 783 l 675 783 l 675 104 b 689 72 675 86 676 82 l 772 3 l 772 0 l 500 0 l 500 136 b 299 -11 460 33 383 -11 b 39 336 147 -11 39 122 b 321 692 39 553 163 692 b 500 575 415 692 469 640 l 500 783 l 319 783 l 319 807 l 500 807 l 500 882 b 486 914 500 900 499 904 l 404 974 l 404 976 l 675 1008 m 382 74 b 500 149 424 74 463 97 l 500 561 b 386 625 471 601 432 625 b 226 349 300 625 226 546 b 382 74 226 151 299 74 "},"Ē":{"ha":832,"x_min":0,"x_max":0,"o":"m 24 0 l 24 3 l 131 78 b 146 108 144 88 146 92 l 146 868 b 131 899 146 885 144 889 l 24 974 l 24 976 l 750 976 l 750 660 l 747 660 l 601 926 b 563 950 590 947 582 950 l 361 950 b 339 921 343 950 339 946 l 339 507 l 475 507 b 513 531 493 508 499 513 l 618 664 l 621 664 l 621 325 l 618 325 l 513 460 b 474 482 499 476 493 482 l 339 482 l 339 56 b 361 26 339 31 343 26 l 569 26 b 614 44 596 26 604 29 l 760 317 l 763 317 l 763 0 m 250 1117 l 250 1142 l 614 1142 l 614 1117 "},"ē":{"ha":675,"x_min":0,"x_max":0,"o":"m 217 386 l 217 364 b 417 90 217 179 306 90 b 632 242 506 90 585 132 l 635 242 b 349 -11 603 71 501 -11 b 38 335 188 -11 38 94 b 356 692 38 596 200 692 b 636 421 496 692 636 618 b 633 386 636 408 635 397 m 353 669 b 217 411 271 669 224 582 l 465 411 b 467 438 467 422 467 432 b 353 669 467 596 429 669 m 172 822 l 172 847 l 536 847 l 536 822 "},"Ĕ":{"ha":832,"x_min":0,"x_max":0,"o":"m 24 0 l 24 3 l 131 78 b 146 108 144 88 146 92 l 146 868 b 131 899 146 885 144 889 l 24 974 l 24 976 l 750 976 l 750 660 l 747 660 l 601 926 b 563 950 590 947 582 950 l 361 950 b 339 921 343 950 339 946 l 339 507 l 475 507 b 513 531 493 508 499 513 l 618 664 l 621 664 l 621 325 l 618 325 l 513 460 b 474 482 499 476 493 482 l 339 482 l 339 56 b 361 26 339 31 343 26 l 569 26 b 614 44 596 26 604 29 l 760 317 l 763 317 l 763 0 m 603 1219 b 429 1046 603 1096 515 1046 b 257 1219 344 1046 257 1096 b 263 1275 257 1236 258 1254 l 265 1275 b 429 1140 269 1189 338 1140 b 594 1275 522 1140 590 1189 l 597 1275 b 603 1219 601 1254 603 1236 "},"ĕ":{"ha":675,"x_min":0,"x_max":0,"o":"m 217 386 l 217 364 b 417 90 217 179 306 90 b 632 242 506 90 585 132 l 635 242 b 349 -11 603 71 501 -11 b 38 335 188 -11 38 94 b 356 692 38 596 200 692 b 636 421 496 692 636 618 b 633 386 636 408 635 397 m 353 669 b 217 411 271 669 224 582 l 465 411 b 467 438 467 422 467 432 b 353 669 467 596 429 669 m 525 925 b 351 751 525 801 438 751 b 179 925 267 751 179 801 b 185 981 179 942 181 960 l 188 981 b 351 846 192 894 260 846 b 517 981 444 846 513 894 l 519 981 b 525 925 524 960 525 942 "},"Ė":{"ha":832,"x_min":0,"x_max":0,"o":"m 24 0 l 24 3 l 131 78 b 146 108 144 88 146 92 l 146 868 b 131 899 146 885 144 889 l 24 974 l 24 976 l 750 976 l 750 660 l 747 660 l 601 926 b 563 950 590 947 582 950 l 361 950 b 339 921 343 950 339 946 l 339 507 l 475 507 b 513 531 493 508 499 513 l 618 664 l 621 664 l 621 325 l 618 325 l 513 460 b 474 482 499 476 493 482 l 339 482 l 339 56 b 361 26 339 31 343 26 l 569 26 b 614 44 596 26 604 29 l 760 317 l 763 317 l 763 0 m 342 1154 b 435 1246 342 1208 383 1246 b 528 1154 488 1246 528 1208 b 435 1064 528 1101 488 1064 b 342 1154 383 1064 342 1101 "},"ė":{"ha":675,"x_min":0,"x_max":0,"o":"m 217 386 l 217 364 b 417 90 217 179 306 90 b 632 242 506 90 585 132 l 635 242 b 349 -11 603 71 501 -11 b 38 335 188 -11 38 94 b 356 692 38 596 200 692 b 636 421 496 692 636 618 b 633 386 636 408 635 397 m 353 669 b 217 411 271 669 224 582 l 465 411 b 467 438 467 422 467 432 b 353 669 467 596 429 669 m 264 860 b 357 951 264 914 306 951 b 450 860 410 951 450 914 b 357 769 450 807 410 769 b 264 860 306 769 264 807 "},"Ę":{"ha":832,"x_min":0,"x_max":0,"o":"m 563 -328 b 418 -186 493 -328 418 -279 b 604 0 418 -106 488 -32 l 24 0 l 24 3 l 131 78 b 146 108 144 88 146 92 l 146 868 b 131 899 146 885 144 889 l 24 974 l 24 976 l 750 976 l 750 660 l 747 660 l 601 926 b 563 950 590 947 582 950 l 361 950 b 339 921 343 950 339 946 l 339 507 l 475 507 b 513 531 493 508 499 513 l 618 664 l 621 664 l 621 325 l 618 325 l 513 460 b 474 482 499 476 493 482 l 339 482 l 339 56 b 361 26 339 31 343 26 l 569 26 b 614 44 596 26 604 29 l 760 317 l 763 317 l 763 0 l 615 0 b 515 -147 550 -32 515 -83 b 618 -254 515 -218 561 -254 b 722 -199 651 -254 696 -237 l 725 -200 b 563 -328 699 -269 651 -328 "},"ę":{"ha":675,"x_min":0,"x_max":0,"o":"m 365 -328 b 221 -186 294 -328 221 -279 b 392 -8 221 -110 286 -39 b 349 -11 378 -10 363 -11 b 38 335 188 -11 38 94 b 356 692 38 596 200 692 b 636 421 496 692 636 618 b 635 386 636 418 636 406 l 217 386 l 217 364 b 417 90 217 179 306 90 b 632 242 506 90 585 132 l 635 242 b 421 -4 608 99 533 18 b 318 -147 356 -28 318 -85 b 419 -254 318 -218 364 -254 b 525 -199 454 -254 497 -237 l 528 -200 b 365 -328 501 -269 454 -328 m 353 669 b 217 411 271 669 224 582 l 465 411 b 467 438 467 422 467 432 b 353 669 467 596 429 669 "},"Ě":{"ha":832,"x_min":0,"x_max":0,"o":"m 644 1274 l 646 1272 l 436 1031 l 433 1031 l 224 1272 l 225 1274 l 435 1174 m 24 0 l 24 3 l 131 78 b 146 108 144 88 146 92 l 146 868 b 131 899 146 885 144 889 l 24 974 l 24 976 l 750 976 l 750 660 l 747 660 l 601 926 b 563 950 590 947 582 950 l 361 950 b 339 921 343 950 339 946 l 339 507 l 475 507 b 513 531 493 508 499 513 l 618 664 l 621 664 l 621 325 l 618 325 l 513 460 b 474 482 499 476 493 482 l 339 482 l 339 56 b 361 26 339 31 343 26 l 569 26 b 614 44 596 26 604 29 l 760 317 l 763 317 l 763 0 "},"ě":{"ha":675,"x_min":0,"x_max":0,"o":"m 567 981 l 568 979 l 358 738 l 356 738 l 146 979 l 147 981 l 357 881 m 217 386 l 217 364 b 417 90 217 179 306 90 b 632 242 506 90 585 132 l 635 242 b 349 -11 603 71 501 -11 b 38 335 188 -11 38 94 b 356 692 38 596 200 692 b 636 421 496 692 636 618 b 633 386 636 408 635 397 m 353 669 b 217 411 271 669 224 582 l 465 411 b 467 438 467 422 467 432 b 353 669 467 596 429 669 "},"Ĝ":{"ha":925,"x_min":0,"x_max":0,"o":"m 706 1039 l 496 1139 l 286 1039 l 285 1042 l 494 1282 l 497 1282 l 707 1042 m 475 -14 b 43 486 189 -14 43 185 b 506 990 43 785 211 990 b 796 960 596 990 692 983 l 796 644 l 793 644 l 619 938 b 579 965 608 957 604 964 b 531 967 560 967 547 967 b 265 494 333 967 265 775 b 503 13 265 165 340 13 b 594 29 535 13 564 18 b 611 56 606 33 611 40 l 611 317 b 597 351 611 339 610 340 l 503 429 l 503 432 l 914 432 l 914 429 l 819 353 b 804 317 806 342 804 339 l 804 -14 l 636 18 b 475 -14 589 0 542 -14 "},"ĝ":{"ha":696,"x_min":0,"x_max":0,"o":"m 549 744 l 339 844 l 129 744 l 128 747 l 338 988 l 340 988 l 550 747 m 56 465 b 331 692 56 617 179 692 b 503 650 404 692 461 675 b 529 656 515 643 518 643 l 668 824 l 671 824 l 671 614 l 542 614 b 617 458 582 582 617 533 b 335 240 617 311 489 240 b 242 250 301 240 271 243 b 176 186 193 236 176 211 b 306 122 176 149 219 122 l 425 122 b 674 -68 585 122 674 56 b 317 -328 674 -232 510 -328 b 33 -174 178 -328 33 -278 b 194 -35 33 -110 85 -56 b 64 101 110 -17 64 36 b 222 256 64 174 124 232 b 56 465 125 283 56 351 m 210 -37 b 139 -146 165 -60 139 -94 b 354 -301 139 -249 246 -301 b 560 -156 458 -301 560 -254 b 406 -46 560 -92 519 -50 l 244 -40 m 229 467 b 336 263 229 325 267 263 b 443 467 407 263 443 326 b 336 671 443 607 407 671 b 229 467 265 671 229 607 "},"Ğ":{"ha":925,"x_min":0,"x_max":0,"o":"m 475 -14 b 43 486 189 -14 43 185 b 506 990 43 785 211 990 b 796 960 596 990 692 983 l 796 644 l 793 644 l 619 938 b 579 965 608 957 604 964 b 531 967 560 967 547 967 b 265 494 333 967 265 775 b 503 13 265 165 340 13 b 594 29 535 13 564 18 b 611 56 606 33 611 40 l 611 317 b 597 351 611 339 610 340 l 503 429 l 503 432 l 914 432 l 914 429 l 819 353 b 804 317 806 342 804 339 l 804 -14 l 636 18 b 475 -14 589 0 542 -14 m 664 1219 b 490 1046 664 1096 576 1046 b 318 1219 406 1046 318 1096 b 324 1275 318 1236 319 1254 l 326 1275 b 490 1140 331 1189 399 1140 b 656 1275 583 1140 651 1189 l 658 1275 b 664 1219 663 1254 664 1236 "},"ğ":{"ha":696,"x_min":0,"x_max":0,"o":"m 56 465 b 331 692 56 617 179 692 b 503 650 404 692 461 675 b 529 656 515 643 518 643 l 668 824 l 671 824 l 671 614 l 542 614 b 617 458 582 582 617 533 b 335 240 617 311 489 240 b 242 250 301 240 271 243 b 176 186 193 236 176 211 b 306 122 176 149 219 122 l 425 122 b 674 -68 585 122 674 56 b 317 -328 674 -232 510 -328 b 33 -174 178 -328 33 -278 b 194 -35 33 -110 85 -56 b 64 101 110 -17 64 36 b 222 256 64 174 124 232 b 56 465 125 283 56 351 m 210 -37 b 139 -146 165 -60 139 -94 b 354 -301 139 -249 246 -301 b 560 -156 458 -301 560 -254 b 406 -46 560 -92 519 -50 l 244 -40 m 229 467 b 336 263 229 325 267 263 b 443 467 407 263 443 326 b 336 671 443 607 407 671 b 229 467 265 671 229 607 m 507 925 b 333 751 507 801 419 751 b 161 925 249 751 161 801 b 167 981 161 942 163 960 l 169 981 b 333 846 174 894 242 846 b 499 981 426 846 494 894 l 501 981 b 507 925 506 960 507 942 "},"Ġ":{"ha":925,"x_min":0,"x_max":0,"o":"m 475 -14 b 43 486 189 -14 43 185 b 506 990 43 785 211 990 b 796 960 596 990 692 983 l 796 644 l 793 644 l 619 938 b 579 965 608 957 604 964 b 531 967 560 967 547 967 b 265 494 333 967 265 775 b 503 13 265 165 340 13 b 594 29 535 13 564 18 b 611 56 606 33 611 40 l 611 317 b 597 351 611 339 610 340 l 503 429 l 503 432 l 914 432 l 914 429 l 819 353 b 804 317 806 342 804 339 l 804 -14 l 636 18 b 475 -14 589 0 542 -14 m 403 1154 b 496 1246 403 1208 444 1246 b 589 1154 549 1246 589 1208 b 496 1064 589 1101 549 1064 b 403 1154 444 1064 403 1101 "},"ġ":{"ha":696,"x_min":0,"x_max":0,"o":"m 56 465 b 331 692 56 617 179 692 b 503 650 404 692 461 675 b 529 656 515 643 518 643 l 668 824 l 671 824 l 671 614 l 542 614 b 617 458 582 582 617 533 b 335 240 617 311 489 240 b 242 250 301 240 271 243 b 176 186 193 236 176 211 b 306 122 176 149 219 122 l 425 122 b 674 -68 585 122 674 56 b 317 -328 674 -232 510 -328 b 33 -174 178 -328 33 -278 b 194 -35 33 -110 85 -56 b 64 101 110 -17 64 36 b 222 256 64 174 124 232 b 56 465 125 283 56 351 m 210 -37 b 139 -146 165 -60 139 -94 b 354 -301 139 -249 246 -301 b 560 -156 458 -301 560 -254 b 406 -46 560 -92 519 -50 l 244 -40 m 229 467 b 336 263 229 325 267 263 b 443 467 407 263 443 326 b 336 671 443 607 407 671 b 229 467 265 671 229 607 m 246 860 b 339 951 246 914 288 951 b 432 860 392 951 432 914 b 339 769 432 807 392 769 b 246 860 288 769 246 807 "},"Ģ":{"ha":925,"x_min":0,"x_max":0,"o":"m 414 -337 b 490 -222 456 -311 488 -274 b 478 -208 490 -211 486 -208 b 411 -129 438 -208 411 -174 b 492 -49 411 -85 444 -49 b 576 -146 540 -49 576 -86 b 415 -340 576 -233 506 -317 m 475 -14 b 43 486 189 -14 43 185 b 506 990 43 785 211 990 b 796 960 596 990 692 983 l 796 644 l 793 644 l 619 938 b 579 965 608 957 604 964 b 531 967 560 967 547 967 b 265 494 333 967 265 775 b 503 13 265 165 340 13 b 594 29 535 13 564 18 b 611 56 606 33 611 40 l 611 317 b 597 351 611 339 610 340 l 503 429 l 503 432 l 914 432 l 914 429 l 819 353 b 804 317 806 342 804 339 l 804 -14 l 636 18 b 475 -14 589 0 542 -14 "},"ģ":{"ha":696,"x_min":0,"x_max":0,"o":"m 56 465 b 331 692 56 617 179 692 b 503 650 404 692 461 675 b 529 656 515 643 518 643 l 668 824 l 671 824 l 671 614 l 542 614 b 617 458 582 582 617 533 b 335 240 617 311 489 240 b 242 250 301 240 271 243 b 176 186 193 236 176 211 b 306 122 176 149 219 122 l 425 122 b 674 -68 585 122 674 56 b 317 -328 674 -232 510 -328 b 33 -174 178 -328 33 -278 b 194 -35 33 -110 85 -56 b 64 101 110 -17 64 36 b 222 256 64 174 124 232 b 56 465 125 283 56 351 m 210 -37 b 139 -146 165 -60 139 -94 b 354 -301 139 -249 246 -301 b 560 -156 458 -301 560 -254 b 406 -46 560 -92 519 -50 l 244 -40 m 229 467 b 336 263 229 325 267 263 b 443 467 407 263 443 326 b 336 671 443 607 407 671 b 229 467 265 671 229 607 m 425 1042 b 350 926 383 1015 356 979 b 363 913 349 915 354 914 b 429 835 403 907 429 878 b 349 753 429 789 396 753 b 263 850 299 753 263 790 b 424 1044 263 939 335 1021 "},"Ĥ":{"ha":1051,"x_min":0,"x_max":0,"o":"m 735 1039 l 525 1139 l 315 1039 l 314 1042 l 524 1282 l 526 1282 l 736 1042 m 906 108 b 922 78 906 92 907 88 l 1029 3 l 1029 0 l 590 0 l 590 3 l 697 78 b 713 108 710 88 713 92 l 713 488 l 339 488 l 339 108 b 356 78 339 92 340 88 l 463 3 l 463 0 l 24 0 l 24 3 l 131 78 b 146 108 144 88 146 92 l 146 868 b 131 899 146 885 144 889 l 24 974 l 24 976 l 463 976 l 463 974 l 356 899 b 339 868 340 888 339 885 l 339 514 l 713 514 l 713 868 b 697 899 713 885 711 889 l 590 974 l 590 976 l 1029 976 l 1029 974 l 922 899 b 906 868 907 888 906 885 "},"ĥ":{"ha":794,"x_min":0,"x_max":0,"o":"m 404 1039 l 194 1139 l -15 1039 l -17 1042 l 193 1282 l 196 1282 l 406 1042 m 694 93 b 710 63 694 76 697 72 l 793 3 l 793 0 l 424 0 l 424 3 l 503 63 b 518 92 515 72 518 79 b 522 369 518 107 522 308 b 408 596 522 519 493 596 b 282 511 353 596 311 561 l 282 93 b 297 63 282 78 283 74 l 379 3 l 379 0 l 11 0 l 11 3 l 93 63 b 107 93 106 72 107 78 l 107 882 b 93 914 107 900 106 904 l 11 974 l 11 976 l 282 1008 l 282 522 b 494 692 315 633 388 692 b 697 408 625 692 697 600 b 694 93 697 332 696 204 "},"Ħ":{"ha":1051,"x_min":0,"x_max":0,"o":"m 31 661 l 31 686 l 146 686 l 146 868 b 131 900 146 886 146 890 l 21 974 l 21 976 l 465 976 l 465 974 l 356 900 b 339 868 340 890 339 886 l 339 686 l 713 686 l 713 868 b 697 900 713 886 711 890 l 586 974 l 586 976 l 1032 976 l 1032 974 l 922 900 b 906 868 907 890 906 886 l 906 686 l 1021 686 l 1021 661 l 906 661 l 906 108 b 922 76 906 90 907 86 l 1032 3 l 1032 0 l 586 0 l 586 3 l 697 76 b 713 108 711 86 713 90 l 713 418 l 339 418 l 339 108 b 356 76 339 90 340 86 l 465 3 l 465 0 l 21 0 l 21 3 l 131 76 b 146 108 144 86 146 90 l 146 661 m 339 446 l 713 446 l 713 661 l 339 661 "},"ħ":{"ha":794,"x_min":0,"x_max":0,"o":"m 694 93 b 710 63 694 76 697 72 l 793 3 l 793 0 l 424 0 l 424 3 l 503 63 b 518 92 515 72 518 79 b 522 369 518 107 522 308 b 408 596 522 519 493 596 b 282 511 353 596 311 561 l 282 93 b 297 63 282 78 283 74 l 379 3 l 379 0 l 11 0 l 11 3 l 93 63 b 107 93 106 72 107 78 l 107 783 l 8 783 l 8 807 l 107 807 l 107 882 b 93 914 107 900 106 904 l 11 974 l 11 976 l 282 1008 l 282 807 l 469 807 l 469 783 l 282 783 l 282 522 b 494 692 315 633 388 692 b 697 408 625 692 697 600 b 694 93 697 332 696 204 "},"Ĩ":{"ha":486,"x_min":0,"x_max":0,"o":"m 339 108 b 356 78 339 92 340 88 l 463 3 l 463 0 l 24 0 l 24 3 l 131 78 b 146 108 144 88 146 92 l 146 868 b 131 899 146 885 144 889 l 24 974 l 24 976 l 463 976 l 463 974 l 356 899 b 339 868 340 888 339 885 m 329 1075 b 140 1140 264 1075 200 1140 b 54 1074 101 1140 72 1119 l 51 1074 b 54 1115 51 1088 53 1101 b 161 1238 63 1189 100 1238 b 349 1171 226 1238 289 1171 b 436 1238 386 1171 418 1190 l 439 1238 b 436 1193 439 1222 438 1207 b 329 1075 428 1122 389 1075 "},"ĩ":{"ha":413,"x_min":0,"x_max":0,"o":"m 303 93 b 318 63 303 78 303 74 l 400 3 l 400 0 l 32 0 l 32 3 l 114 63 b 128 93 128 72 128 78 l 128 576 b 114 608 128 593 126 599 l 32 678 l 32 681 l 303 681 m 281 781 b 92 846 215 781 151 846 b 6 779 53 846 24 825 l 3 779 b 6 821 3 793 4 807 b 113 943 14 894 51 943 b 300 876 178 943 240 876 b 388 943 338 876 369 896 l 390 943 b 388 899 390 928 389 913 b 281 781 379 828 340 781 "},"Ī":{"ha":486,"x_min":0,"x_max":0,"o":"m 339 108 b 356 78 339 92 340 88 l 463 3 l 463 0 l 24 0 l 24 3 l 131 78 b 146 108 144 88 146 92 l 146 868 b 131 899 146 885 144 889 l 24 974 l 24 976 l 463 976 l 463 974 l 356 899 b 339 868 340 888 339 885 m 58 1117 l 58 1142 l 422 1142 l 422 1117 "},"ī":{"ha":413,"x_min":0,"x_max":0,"o":"m 303 93 b 318 63 303 78 303 74 l 400 3 l 400 0 l 32 0 l 32 3 l 114 63 b 128 93 128 72 128 78 l 128 576 b 114 608 128 593 126 599 l 32 678 l 32 681 l 303 681 m 8 822 l 8 847 l 372 847 l 372 822 "},"Ĭ":{"ha":486,"x_min":0,"x_max":0,"o":"m 339 108 b 356 78 339 92 340 88 l 463 3 l 463 0 l 24 0 l 24 3 l 131 78 b 146 108 144 88 146 92 l 146 868 b 131 899 146 885 144 889 l 24 974 l 24 976 l 463 976 l 463 974 l 356 899 b 339 868 340 888 339 885 m 411 1219 b 238 1046 411 1096 324 1046 b 65 1219 153 1046 65 1096 b 71 1275 65 1236 67 1254 l 74 1275 b 238 1140 78 1189 146 1140 b 403 1275 331 1140 399 1189 l 406 1275 b 411 1219 410 1254 411 1236 "},"ĭ":{"ha":413,"x_min":0,"x_max":0,"o":"m 303 93 b 318 63 303 78 303 74 l 400 3 l 400 0 l 32 0 l 32 3 l 114 63 b 128 93 128 72 128 78 l 128 576 b 114 608 128 593 126 599 l 32 678 l 32 681 l 303 681 m 363 925 b 189 751 363 801 275 751 b 17 925 104 751 17 801 b 22 981 17 942 18 960 l 25 981 b 189 846 29 894 97 846 b 354 981 282 846 350 894 l 357 981 b 363 925 361 960 363 942 "},"Į":{"ha":486,"x_min":0,"x_max":0,"o":"m 242 -328 b 97 -186 172 -328 97 -279 b 279 0 97 -104 165 -28 l 24 0 l 24 3 l 131 78 b 146 108 144 88 146 92 l 146 868 b 131 899 146 885 144 889 l 24 974 l 24 976 l 463 976 l 463 974 l 356 899 b 339 868 340 888 339 885 l 339 108 b 356 78 339 92 340 88 l 463 3 l 463 0 l 293 0 b 194 -147 226 -29 194 -83 b 296 -254 194 -218 240 -254 b 401 -199 331 -254 374 -237 l 404 -200 b 242 -328 378 -269 331 -328 "},"į":{"ha":413,"x_min":0,"x_max":0,"o":"m 217 -328 b 72 -186 147 -328 72 -279 b 254 0 72 -104 140 -28 l 31 0 l 31 3 l 113 63 b 126 93 125 72 126 78 l 126 576 b 113 608 126 594 125 599 l 31 678 l 31 681 l 301 681 l 301 93 b 317 63 301 78 303 74 l 399 3 l 399 0 l 268 0 b 169 -147 201 -29 169 -83 b 271 -254 169 -218 215 -254 b 376 -199 306 -254 349 -237 l 379 -200 b 217 -328 353 -269 306 -328 m 207 772 b 111 864 154 772 111 811 b 207 960 111 921 154 960 b 304 864 261 960 304 921 b 207 772 304 811 261 772 "},"İ":{"ha":486,"x_min":0,"x_max":0,"o":"m 339 108 b 356 78 339 92 340 88 l 463 3 l 463 0 l 24 0 l 24 3 l 131 78 b 146 108 144 88 146 92 l 146 868 b 131 899 146 885 144 889 l 24 974 l 24 976 l 463 976 l 463 974 l 356 899 b 339 868 340 888 339 885 m 147 1154 b 240 1246 147 1208 189 1246 b 333 1154 293 1246 333 1208 b 240 1064 333 1101 293 1064 b 147 1154 189 1064 147 1101 "},"ı":{"ha":413,"x_min":0,"x_max":0,"o":"m 303 93 b 318 63 303 78 303 74 l 400 3 l 400 0 l 32 0 l 32 3 l 114 63 b 128 93 128 72 128 78 l 128 576 b 114 608 128 593 126 599 l 32 678 l 32 681 l 303 681 "},"Ĳ":{"ha":931,"x_min":0,"x_max":0,"o":"m 339 108 b 356 78 339 92 340 88 l 463 3 l 463 0 l 24 0 l 24 3 l 131 78 b 146 108 144 88 146 92 l 146 868 b 131 899 146 885 144 889 l 24 974 l 24 976 l 463 976 l 463 974 l 356 899 b 339 868 340 888 339 885 m 611 868 b 594 899 611 885 608 889 l 488 974 l 488 976 l 926 976 l 926 974 l 819 899 b 803 868 804 888 803 885 l 803 94 b 438 -293 803 -137 663 -274 l 436 -290 b 611 56 561 -228 611 -96 "},"ĳ":{"ha":792,"x_min":0,"x_max":0,"o":"m 207 772 b 111 864 154 772 111 811 b 207 960 111 921 154 960 b 304 864 261 960 304 921 b 207 772 304 811 261 772 m 301 681 l 301 93 b 317 63 301 78 303 74 l 399 3 l 399 0 l 31 0 l 31 3 l 113 63 b 126 93 125 72 126 78 l 126 576 b 113 608 126 594 125 599 l 31 678 l 31 681 m 704 681 l 704 39 b 403 -304 704 -161 606 -304 b 365 -301 392 -304 378 -303 l 365 -299 b 529 -15 472 -283 529 -203 l 529 576 b 515 608 529 594 528 599 l 433 678 l 433 681 m 514 864 b 610 960 514 921 557 960 b 706 864 664 960 706 921 b 610 772 706 811 664 772 b 514 864 557 772 514 811 "},"Ĵ":{"ha":444,"x_min":0,"x_max":0,"o":"m 433 1039 l 224 1139 l 14 1039 l 13 1042 l 222 1282 l 225 1282 l 435 1042 m 126 868 b 110 899 126 885 124 889 l 3 974 l 3 976 l 442 976 l 442 974 l 335 899 b 318 868 319 888 318 885 l 318 94 b -47 -293 318 -137 178 -274 l -49 -290 b 126 56 76 -228 126 -96 "},"ĵ":{"ha":379,"x_min":0,"x_max":0,"o":"m -7 -304 b -47 -301 -19 -304 -33 -304 l -47 -299 b 117 -15 60 -283 117 -203 l 117 576 b 103 608 117 594 114 599 l 21 678 l 21 681 l 292 681 l 292 39 b -7 -304 292 -161 194 -304 m 400 744 l 190 844 l -19 744 l -21 747 l 189 988 l 192 988 l 401 747 "},"Ķ":{"ha":938,"x_min":0,"x_max":0,"o":"m 443 -337 b 519 -222 485 -311 517 -274 b 507 -208 519 -211 515 -208 b 440 -129 467 -208 440 -174 b 521 -49 440 -85 474 -49 b 606 -146 569 -49 606 -86 b 444 -340 606 -233 535 -317 m 339 108 b 356 78 339 92 340 88 l 463 3 l 463 0 l 24 0 l 24 3 l 131 78 b 146 108 144 88 146 92 l 146 868 b 131 899 146 885 144 889 l 24 974 l 24 976 l 463 976 l 463 974 l 356 899 b 339 868 340 888 339 885 m 500 603 l 824 128 b 865 81 836 110 850 93 l 956 3 l 956 0 l 681 0 l 351 483 l 679 828 b 675 865 694 844 690 850 l 563 974 l 563 976 l 956 976 l 956 974 l 768 863 b 704 815 738 844 728 839 "},"ķ":{"ha":743,"x_min":0,"x_max":0,"o":"m 329 -337 b 406 -222 371 -311 403 -274 b 393 -208 406 -211 401 -208 b 326 -129 353 -208 326 -174 b 407 -49 326 -85 360 -49 b 492 -146 456 -49 492 -86 b 331 -340 492 -233 421 -317 m 657 97 b 689 57 665 81 675 68 l 758 3 l 758 0 l 507 0 l 339 336 b 310 357 332 350 324 357 b 282 347 303 357 290 353 l 282 93 b 297 63 282 78 283 74 l 379 3 l 379 0 l 11 0 l 11 3 l 93 63 b 107 93 106 72 107 78 l 107 882 b 93 914 107 900 106 904 l 11 974 l 11 976 l 282 1008 l 282 360 l 532 549 b 533 572 542 556 540 564 l 433 678 l 433 681 l 740 681 l 740 678 l 476 479 b 468 456 465 471 463 467 l 657 97 "},"ĸ":{"ha":763,"x_min":0,"x_max":0,"o":"m 526 0 l 358 336 b 331 357 351 350 344 357 b 301 347 324 357 310 353 l 301 93 b 317 63 301 78 303 74 l 399 3 l 399 0 l 31 0 l 31 3 l 113 63 b 126 93 125 72 126 78 l 126 576 b 113 608 126 594 125 599 l 31 678 l 31 681 l 301 681 l 301 360 l 551 549 b 553 572 561 556 560 564 l 453 678 l 453 681 l 760 681 l 760 678 l 496 479 b 488 456 485 471 482 467 l 676 97 b 708 57 685 81 694 68 l 778 3 l 778 0 "},"Ĺ":{"ha":788,"x_min":0,"x_max":0,"o":"m 464 1271 l 464 1268 l 157 1042 l 154 1044 l 272 1271 m 24 0 l 24 3 l 131 78 b 146 108 144 88 146 92 l 146 868 b 131 899 146 885 144 889 l 24 974 l 24 976 l 463 976 l 463 974 l 356 899 b 339 868 340 888 339 885 l 339 56 b 361 26 339 31 343 26 l 540 26 b 585 44 567 26 576 29 l 743 333 l 746 333 l 746 0 "},"ĺ":{"ha":390,"x_min":0,"x_max":0,"o":"m 417 1271 l 417 1268 l 110 1042 l 107 1044 l 225 1271 m 282 93 b 297 63 282 78 283 74 l 379 3 l 379 0 l 11 0 l 11 3 l 93 63 b 107 93 106 72 107 78 l 107 882 b 93 914 107 900 106 904 l 11 974 l 11 976 l 282 1008 "},"Ļ":{"ha":788,"x_min":0,"x_max":0,"o":"m 349 -337 b 425 -222 390 -311 422 -274 b 413 -208 425 -211 421 -208 b 346 -129 372 -208 346 -174 b 426 -49 346 -85 379 -49 b 511 -146 475 -49 511 -86 b 350 -340 511 -233 440 -317 m 24 0 l 24 3 l 131 78 b 146 108 144 88 146 92 l 146 868 b 131 899 146 885 144 889 l 24 974 l 24 976 l 463 976 l 463 974 l 356 899 b 339 868 340 888 339 885 l 339 56 b 361 26 339 31 343 26 l 540 26 b 585 44 567 26 576 29 l 743 333 l 746 333 l 746 0 "},"ļ":{"ha":390,"x_min":0,"x_max":0,"o":"m 118 -337 b 194 -222 160 -311 192 -274 b 182 -208 194 -211 190 -208 b 115 -129 142 -208 115 -174 b 196 -49 115 -85 149 -49 b 281 -146 244 -49 281 -86 b 119 -340 281 -233 210 -317 m 282 93 b 297 63 282 78 283 74 l 379 3 l 379 0 l 11 0 l 11 3 l 93 63 b 107 93 106 72 107 78 l 107 882 b 93 914 107 900 106 904 l 11 974 l 11 976 l 282 1008 "},"Ľ":{"ha":785,"x_min":0,"x_max":0,"o":"m 554 976 l 696 976 l 544 708 l 542 708 m 24 0 l 24 3 l 131 78 b 146 108 144 88 146 92 l 146 868 b 131 899 146 885 144 889 l 24 974 l 24 976 l 463 976 l 463 974 l 356 899 b 339 868 340 888 339 885 l 339 56 b 361 26 339 31 343 26 l 540 26 b 585 44 567 26 576 29 l 743 333 l 746 333 l 746 0 "},"ľ":{"ha":418,"x_min":0,"x_max":0,"o":"m 368 976 l 510 976 l 358 708 l 356 708 m 282 93 b 297 63 282 78 283 74 l 379 3 l 379 0 l 11 0 l 11 3 l 93 63 b 107 93 106 72 107 78 l 107 882 b 93 914 107 900 106 904 l 11 974 l 11 976 l 282 1008 "},"Ŀ":{"ha":794,"x_min":0,"x_max":0,"o":"m 25 0 l 25 3 l 132 78 b 147 108 146 88 147 92 l 147 868 b 132 899 147 885 146 889 l 25 974 l 25 976 l 464 976 l 464 974 l 357 899 b 340 868 342 888 340 885 l 340 56 b 363 26 340 31 344 26 l 542 26 b 586 44 568 26 578 29 l 744 333 l 747 333 l 747 0 m 501 536 b 594 628 501 590 543 628 b 688 536 647 628 688 590 b 594 446 688 483 647 446 b 501 536 543 446 501 483 "},"ŀ":{"ha":532,"x_min":0,"x_max":0,"o":"m 282 93 b 297 63 282 78 283 74 l 379 3 l 379 0 l 11 0 l 11 3 l 93 63 b 107 93 106 72 107 78 l 107 882 b 93 914 107 900 106 904 l 11 974 l 11 976 l 282 1008 m 347 493 b 440 585 347 547 389 585 b 533 493 493 585 533 547 b 440 403 533 440 493 403 b 347 493 389 403 347 440 "},"Ł":{"ha":796,"x_min":0,"x_max":0,"o":"m 347 53 b 372 26 347 28 354 26 l 549 26 b 593 44 575 26 585 29 l 751 333 l 754 333 l 754 0 l 32 0 l 32 3 l 139 78 b 154 108 153 88 154 92 l 154 410 l 43 364 l 33 386 l 154 436 l 154 868 b 139 899 154 885 153 889 l 32 974 l 32 976 l 471 976 l 471 974 l 364 899 b 347 868 349 888 347 885 l 347 517 l 522 590 l 532 567 l 347 489 l 347 53 "},"ł":{"ha":431,"x_min":0,"x_max":0,"o":"m 300 93 b 315 63 300 78 301 74 l 397 3 l 397 0 l 29 0 l 29 3 l 111 63 b 125 93 124 72 125 78 l 125 418 l -6 364 l -15 386 l 125 444 l 125 882 b 111 914 125 900 124 904 l 29 974 l 29 976 l 300 1008 l 300 518 l 450 581 l 460 558 l 300 492 l 300 93 "},"Ń":{"ha":963,"x_min":0,"x_max":0,"o":"m 708 1271 l 708 1268 l 401 1042 l 399 1044 l 517 1271 m 306 976 l 792 199 l 792 794 b 772 838 792 814 790 819 l 636 974 l 636 976 l 975 976 l 975 974 l 840 838 b 819 794 824 819 819 815 l 819 0 l 690 0 l 194 792 l 194 182 b 215 139 194 160 197 156 l 351 3 l 351 0 l 11 0 l 11 3 l 147 139 b 167 182 164 156 167 161 l 167 806 b 151 851 167 829 163 839 l 25 974 l 25 976 "},"ń":{"ha":815,"x_min":0,"x_max":0,"o":"m 635 976 l 635 974 l 328 747 l 325 750 l 443 976 m 542 369 b 428 596 542 519 513 596 b 301 511 371 596 331 561 l 301 93 b 317 63 301 78 303 74 l 399 3 l 399 0 l 31 0 l 31 3 l 113 63 b 126 93 125 72 126 78 l 126 576 b 113 608 126 594 125 599 l 31 678 l 31 681 l 301 681 l 301 522 b 514 692 335 633 407 692 b 717 408 644 692 717 600 b 714 93 717 332 715 204 b 729 63 714 76 717 72 l 811 3 l 811 0 l 443 0 l 443 3 l 521 63 b 538 92 535 72 538 79 b 542 369 538 107 542 308 "},"Ņ":{"ha":963,"x_min":0,"x_max":0,"o":"m 411 -337 b 488 -222 453 -311 485 -274 b 475 -208 488 -211 483 -208 b 408 -129 435 -208 408 -174 b 489 -49 408 -85 442 -49 b 574 -146 538 -49 574 -86 b 413 -340 574 -233 503 -317 m 306 976 l 792 199 l 792 794 b 772 838 792 814 790 819 l 636 974 l 636 976 l 975 976 l 975 974 l 840 838 b 819 794 824 819 819 815 l 819 0 l 690 0 l 194 792 l 194 182 b 215 139 194 160 197 156 l 351 3 l 351 0 l 11 0 l 11 3 l 147 139 b 167 182 164 156 167 161 l 167 806 b 151 851 167 829 163 839 l 25 974 l 25 976 "},"ņ":{"ha":815,"x_min":0,"x_max":0,"o":"m 344 -337 b 421 -222 386 -311 418 -274 b 408 -208 421 -211 417 -208 b 342 -129 368 -208 342 -174 b 422 -49 342 -85 375 -49 b 507 -146 471 -49 507 -86 b 346 -340 507 -233 436 -317 m 542 369 b 428 596 542 519 513 596 b 301 511 371 596 331 561 l 301 93 b 317 63 301 78 303 74 l 399 3 l 399 0 l 31 0 l 31 3 l 113 63 b 126 93 125 72 126 78 l 126 576 b 113 608 126 594 125 599 l 31 678 l 31 681 l 301 681 l 301 522 b 514 692 335 633 407 692 b 717 408 644 692 717 600 b 714 93 717 332 715 204 b 729 63 714 76 717 72 l 811 3 l 811 0 l 443 0 l 443 3 l 521 63 b 538 92 535 72 538 79 b 542 369 538 107 542 308 "},"Ň":{"ha":963,"x_min":0,"x_max":0,"o":"m 696 1274 l 697 1272 l 488 1031 l 485 1031 l 275 1272 l 276 1274 l 486 1174 m 306 976 l 792 199 l 792 794 b 772 838 792 814 790 819 l 636 974 l 636 976 l 975 976 l 975 974 l 840 838 b 819 794 824 819 819 815 l 819 0 l 690 0 l 194 792 l 194 182 b 215 139 194 160 197 156 l 351 3 l 351 0 l 11 0 l 11 3 l 147 139 b 167 182 164 156 167 161 l 167 806 b 151 851 167 829 163 839 l 25 974 l 25 976 "},"ň":{"ha":815,"x_min":0,"x_max":0,"o":"m 622 981 l 624 979 l 414 738 l 411 738 l 201 979 l 203 981 l 413 881 m 542 369 b 428 596 542 519 513 596 b 301 511 371 596 331 561 l 301 93 b 317 63 301 78 303 74 l 399 3 l 399 0 l 31 0 l 31 3 l 113 63 b 126 93 125 72 126 78 l 126 576 b 113 608 126 594 125 599 l 31 678 l 31 681 l 301 681 l 301 522 b 514 692 335 633 407 692 b 717 408 644 692 717 600 b 714 93 717 332 715 204 b 729 63 714 76 717 72 l 811 3 l 811 0 l 443 0 l 443 3 l 521 63 b 538 92 535 72 538 79 b 542 369 538 107 542 308 "},"ŉ":{"ha":875,"x_min":0,"x_max":0,"o":"m -39 669 b 38 785 3 696 35 733 b 25 799 38 796 33 799 b -42 878 -15 799 -42 833 b 39 958 -42 922 -8 958 b 124 861 88 958 124 921 b -37 667 124 774 53 690 m 601 369 b 488 596 601 519 572 596 b 361 511 431 596 390 561 l 361 93 b 376 63 361 78 363 74 l 458 3 l 458 0 l 90 0 l 90 3 l 172 63 b 186 93 185 72 186 78 l 186 576 b 172 608 186 594 185 599 l 90 678 l 90 681 l 361 681 l 361 522 b 574 692 394 633 467 692 b 776 408 704 692 776 600 b 774 93 776 332 775 204 b 789 63 774 76 776 72 l 871 3 l 871 0 l 503 0 l 503 3 l 581 63 b 597 92 594 72 597 79 b 601 369 597 107 601 308 "},"Ŋ":{"ha":918,"x_min":0,"x_max":0,"o":"m 849 78 b 506 -286 849 -153 715 -286 l 506 -283 b 665 -10 615 -258 665 -158 l 665 675 b 497 893 665 833 594 893 b 339 807 440 893 368 857 l 339 108 b 356 78 339 92 340 88 l 463 3 l 463 0 l 24 0 l 24 3 l 131 78 b 146 108 144 88 146 92 l 146 868 b 131 899 146 885 144 889 l 24 974 l 24 976 l 339 976 l 339 818 b 583 989 374 929 475 989 b 849 704 731 989 849 896 "},"ŋ":{"ha":794,"x_min":0,"x_max":0,"o":"m 542 369 b 428 596 542 519 513 596 b 301 511 371 596 331 561 l 301 93 b 317 63 301 78 303 74 l 399 3 l 399 0 l 31 0 l 31 3 l 113 63 b 126 93 125 72 126 78 l 126 576 b 113 608 126 594 125 599 l 31 678 l 31 681 l 301 681 l 301 522 b 514 692 335 633 407 692 b 717 408 644 692 717 600 l 717 63 b 378 -301 717 -168 588 -301 l 378 -299 b 542 -25 488 -274 542 -174 "},"Ō":{"ha":983,"x_min":0,"x_max":0,"o":"m 306 1117 l 306 1142 l 669 1142 l 669 1117 m 493 10 b 719 489 626 10 719 140 b 493 967 719 838 626 967 b 265 489 358 967 265 838 b 493 10 265 140 358 11 m 493 990 b 939 489 775 990 939 808 b 493 -14 939 168 775 -14 b 44 489 210 -14 44 168 b 493 990 44 808 210 990 "},"ō":{"ha":744,"x_min":0,"x_max":0,"o":"m 186 822 l 186 847 l 550 847 l 550 822 m 372 669 b 236 342 289 669 236 596 b 372 11 236 88 289 11 b 510 340 456 11 510 86 b 372 669 510 594 456 669 m 372 -11 b 38 342 171 -11 38 113 b 372 692 38 569 171 692 b 707 340 575 692 707 571 b 372 -11 707 113 575 -11 "},"Ŏ":{"ha":983,"x_min":0,"x_max":0,"o":"m 493 10 b 719 489 626 10 719 140 b 493 967 719 838 626 967 b 265 489 358 967 265 838 b 493 10 265 140 358 11 m 493 990 b 939 489 775 990 939 808 b 493 -14 939 168 775 -14 b 44 489 210 -14 44 168 b 493 990 44 808 210 990 m 658 1219 b 485 1046 658 1096 571 1046 b 313 1219 400 1046 313 1096 b 318 1275 313 1236 314 1254 l 321 1275 b 485 1140 325 1189 393 1140 b 650 1275 578 1140 646 1189 l 653 1275 b 658 1219 657 1254 658 1236 "},"ŏ":{"ha":744,"x_min":0,"x_max":0,"o":"m 372 669 b 236 342 289 669 236 596 b 372 11 236 88 289 11 b 510 340 456 11 510 86 b 372 669 510 594 456 669 m 372 -11 b 38 342 171 -11 38 113 b 372 692 38 569 171 692 b 707 340 575 692 707 571 b 372 -11 707 113 575 -11 m 539 925 b 365 751 539 801 451 751 b 193 925 281 751 193 801 b 199 981 193 942 194 960 l 201 981 b 365 846 206 894 274 846 b 531 981 458 846 526 894 l 533 981 b 539 925 538 960 539 942 "},"Ő":{"ha":983,"x_min":0,"x_max":0,"o":"m 588 1271 l 588 1268 l 346 1032 l 343 1032 l 428 1271 m 796 1271 l 796 1268 l 556 1032 l 553 1032 l 638 1271 m 493 10 b 719 489 626 10 719 140 b 493 967 719 838 626 967 b 265 489 358 967 265 838 b 493 10 265 140 358 11 m 493 990 b 939 489 775 990 939 808 b 493 -14 939 168 775 -14 b 44 489 210 -14 44 168 b 493 990 44 808 210 990 "},"ő":{"ha":744,"x_min":0,"x_max":0,"o":"m 468 976 l 468 974 l 226 738 l 224 738 l 308 976 m 676 976 l 676 974 l 436 738 l 433 738 l 518 976 m 372 669 b 236 342 289 669 236 596 b 372 11 236 88 289 11 b 510 340 456 11 510 86 b 372 669 510 594 456 669 m 372 -11 b 38 342 171 -11 38 113 b 372 692 38 569 171 692 b 707 340 575 692 707 571 b 372 -11 707 113 575 -11 "},"Œ":{"ha":1354,"x_min":0,"x_max":0,"o":"m 1043 457 b 1004 479 1029 476 1024 479 l 860 479 l 860 57 b 897 26 860 29 863 26 l 1090 26 b 1135 44 1117 26 1126 29 l 1281 307 l 1285 307 l 1285 0 l 699 0 b 524 -14 639 -10 571 -14 b 44 489 200 -14 44 182 b 511 990 44 794 217 990 b 693 976 565 990 632 988 l 1264 976 l 1264 669 l 1261 669 l 1114 926 b 1074 950 1101 947 1093 950 l 882 950 b 860 921 864 950 860 946 l 860 504 l 1006 504 b 1043 528 1024 506 1029 508 l 1139 661 l 1142 661 l 1142 324 l 1139 324 m 667 871 b 644 925 667 897 661 913 b 511 967 601 956 567 967 b 265 490 333 967 265 778 b 524 10 265 175 342 10 b 646 53 578 10 628 38 b 667 100 660 65 667 76 "},"œ":{"ha":1160,"x_min":0,"x_max":0,"o":"m 372 -11 b 38 342 171 -11 38 113 b 372 692 38 569 171 692 b 615 588 474 692 563 656 b 842 692 671 660 760 692 b 1121 421 981 692 1121 618 b 1119 386 1121 415 1121 401 l 701 386 l 701 349 b 901 90 701 175 793 90 b 1118 242 992 90 1069 132 l 1121 242 b 833 -11 1089 71 986 -11 b 613 92 750 -11 664 22 b 372 -11 560 25 472 -11 m 372 669 b 236 342 289 669 236 596 b 372 13 236 88 289 13 b 510 340 456 13 510 86 b 372 669 510 594 456 669 m 951 411 l 951 415 b 839 669 951 597 915 669 b 703 411 757 669 710 585 "},"Ŕ":{"ha":922,"x_min":0,"x_max":0,"o":"m 658 1271 l 658 1268 l 351 1042 l 349 1044 l 467 1271 m 339 449 l 339 107 b 356 76 339 90 340 86 l 465 3 l 465 0 l 24 0 l 24 3 l 131 78 b 146 108 144 88 146 92 l 146 868 b 131 899 146 885 144 889 l 24 974 l 24 976 l 496 976 b 818 718 672 976 818 900 b 557 464 818 586 718 489 l 557 461 l 660 407 l 831 113 b 872 61 842 93 854 78 l 939 3 l 939 0 l 672 0 l 435 428 b 399 449 429 438 421 449 m 339 475 l 408 475 b 608 707 524 475 608 536 b 419 950 608 890 533 950 l 365 950 b 339 922 344 950 339 944 "},"ŕ":{"ha":572,"x_min":0,"x_max":0,"o":"m 532 976 l 532 974 l 225 747 l 222 750 l 340 976 m 301 104 b 321 72 301 89 303 82 l 464 3 l 464 0 l 31 0 l 31 3 l 113 63 b 126 93 125 72 126 78 l 126 576 b 113 608 126 594 125 599 l 31 678 l 31 681 l 301 681 l 301 485 b 503 692 322 582 389 692 b 583 663 536 692 563 681 l 510 451 l 507 451 l 419 594 b 401 599 414 601 408 601 b 301 469 351 576 328 522 "},"Ŗ":{"ha":922,"x_min":0,"x_max":0,"o":"m 431 -337 b 507 -222 472 -311 504 -274 b 494 -208 507 -211 503 -208 b 428 -129 454 -208 428 -174 b 508 -49 428 -85 461 -49 b 593 -146 557 -49 593 -86 b 432 -340 593 -233 522 -317 m 339 449 l 339 107 b 356 76 339 90 340 86 l 465 3 l 465 0 l 24 0 l 24 3 l 131 78 b 146 108 144 88 146 92 l 146 868 b 131 899 146 885 144 889 l 24 974 l 24 976 l 496 976 b 818 718 672 976 818 900 b 557 464 818 586 718 489 l 557 461 l 660 407 l 831 113 b 872 61 842 93 854 78 l 939 3 l 939 0 l 672 0 l 435 428 b 399 449 429 438 421 449 m 339 475 l 408 475 b 608 707 524 475 608 536 b 419 950 608 890 533 950 l 365 950 b 339 922 344 950 339 944 "},"ŗ":{"ha":572,"x_min":0,"x_max":0,"o":"m 136 -337 b 213 -222 178 -311 210 -274 b 200 -208 213 -211 208 -208 b 133 -129 160 -208 133 -174 b 214 -49 133 -85 167 -49 b 299 -146 263 -49 299 -86 b 138 -340 299 -233 228 -317 m 301 104 b 321 72 301 89 303 82 l 464 3 l 464 0 l 31 0 l 31 3 l 113 63 b 126 93 125 72 126 78 l 126 576 b 113 608 126 594 125 599 l 31 678 l 31 681 l 301 681 l 301 485 b 503 692 322 582 389 692 b 583 663 536 692 563 681 l 510 451 l 507 451 l 419 594 b 401 599 414 601 408 601 b 301 469 351 576 328 522 "},"Ř":{"ha":922,"x_min":0,"x_max":0,"o":"m 647 1274 l 649 1272 l 439 1031 l 436 1031 l 226 1272 l 228 1274 l 438 1174 m 339 449 l 339 107 b 356 76 339 90 340 86 l 465 3 l 465 0 l 24 0 l 24 3 l 131 78 b 146 108 144 88 146 92 l 146 868 b 131 899 146 885 144 889 l 24 974 l 24 976 l 496 976 b 818 718 672 976 818 900 b 557 464 818 586 718 489 l 557 461 l 660 407 l 831 113 b 872 61 842 93 854 78 l 939 3 l 939 0 l 672 0 l 435 428 b 399 449 429 438 421 449 m 339 475 l 408 475 b 608 707 524 475 608 536 b 419 950 608 890 533 950 l 365 950 b 339 922 344 950 339 944 "},"ř":{"ha":572,"x_min":0,"x_max":0,"o":"m 519 981 l 521 979 l 311 738 l 308 738 l 99 979 l 100 981 l 310 881 m 301 104 b 321 72 301 89 303 82 l 464 3 l 464 0 l 31 0 l 31 3 l 113 63 b 126 93 125 72 126 78 l 126 576 b 113 608 126 594 125 599 l 31 678 l 31 681 l 301 681 l 301 485 b 503 692 322 582 389 692 b 583 663 536 692 563 681 l 510 451 l 507 451 l 419 594 b 401 599 414 601 408 601 b 301 469 351 576 328 522 "},"Ś":{"ha":747,"x_min":0,"x_max":0,"o":"m 596 1271 l 596 1268 l 289 1042 l 286 1044 l 404 1271 m 353 -14 b 83 24 268 -14 164 0 l 83 333 l 86 333 l 238 40 b 268 15 247 24 251 18 b 339 10 292 13 317 10 b 549 186 456 10 549 65 b 365 385 549 282 483 328 l 281 425 b 60 714 171 476 60 561 b 388 990 60 878 192 990 b 639 958 461 990 543 982 l 639 660 l 636 660 l 479 940 b 449 965 471 956 464 964 b 400 967 432 967 417 967 b 213 792 289 967 213 901 b 368 610 213 700 278 653 l 471 561 b 710 286 606 497 710 431 b 353 -14 710 114 571 -14 "},"ś":{"ha":603,"x_min":0,"x_max":0,"o":"m 531 976 l 531 974 l 224 747 l 221 750 l 339 976 m 563 208 b 279 -11 563 64 436 -11 b 43 32 206 -11 115 4 l 110 235 l 113 235 l 206 32 b 231 15 211 21 214 18 b 278 11 246 13 260 11 b 414 128 367 11 414 65 b 283 257 414 196 363 221 l 194 297 b 61 488 119 332 61 392 b 317 692 61 614 174 692 b 542 657 386 692 464 682 l 478 468 l 475 468 l 378 649 b 335 669 369 664 361 669 l 318 669 b 199 558 254 669 199 632 b 315 435 199 494 247 464 l 407 396 b 563 208 490 360 563 314 "},"Ŝ":{"ha":747,"x_min":0,"x_max":0,"o":"m 583 1039 l 374 1139 l 164 1039 l 163 1042 l 372 1282 l 375 1282 l 585 1042 m 353 -14 b 83 24 268 -14 164 0 l 83 333 l 86 333 l 238 40 b 268 15 247 24 251 18 b 339 10 292 13 317 10 b 549 186 456 10 549 65 b 365 385 549 282 483 328 l 281 425 b 60 714 171 476 60 561 b 388 990 60 878 192 990 b 639 958 461 990 543 982 l 639 660 l 636 660 l 479 940 b 449 965 471 956 464 964 b 400 967 432 967 417 967 b 213 792 289 967 213 901 b 368 610 213 700 278 653 l 471 561 b 710 286 606 497 710 431 b 353 -14 710 114 571 -14 "},"ŝ":{"ha":603,"x_min":0,"x_max":0,"o":"m 519 744 l 310 844 l 100 744 l 99 747 l 308 988 l 311 988 l 521 747 m 563 208 b 279 -11 563 64 436 -11 b 43 32 206 -11 115 4 l 110 235 l 113 235 l 206 32 b 231 15 211 21 214 18 b 278 11 246 13 260 11 b 414 128 367 11 414 65 b 283 257 414 196 363 221 l 194 297 b 61 488 119 332 61 392 b 317 692 61 614 174 692 b 542 657 386 692 464 682 l 478 468 l 475 468 l 378 649 b 335 669 369 664 361 669 l 318 669 b 199 558 254 669 199 632 b 315 435 199 494 247 464 l 407 396 b 563 208 490 360 563 314 "},"Ş":{"ha":747,"x_min":0,"x_max":0,"o":"m 372 -328 b 210 -204 283 -328 217 -274 l 213 -203 b 324 -281 229 -256 282 -281 b 414 -201 374 -281 414 -251 b 326 -119 414 -151 376 -121 b 272 -129 310 -119 292 -122 l 271 -126 l 363 -14 l 353 -14 b 83 24 268 -14 164 0 l 83 333 l 86 333 l 238 40 b 268 15 247 24 251 18 b 339 10 292 13 317 10 b 549 186 456 10 549 65 b 365 385 549 282 483 328 l 281 425 b 60 714 171 476 60 561 b 388 990 60 878 192 990 b 639 958 461 990 543 982 l 639 660 l 636 660 l 479 940 b 444 965 471 956 464 964 b 400 967 428 967 417 967 b 213 792 289 967 213 901 b 368 610 213 700 278 653 l 471 561 b 710 286 606 497 710 431 b 368 -14 710 118 578 -7 l 358 -86 b 529 -197 453 -67 529 -122 b 372 -328 529 -271 472 -328 "},"ş":{"ha":603,"x_min":0,"x_max":0,"o":"m 285 -328 b 122 -204 194 -328 128 -274 l 125 -203 b 236 -281 140 -256 194 -281 b 326 -201 285 -281 326 -251 b 235 -121 326 -150 288 -121 b 183 -129 219 -121 201 -122 l 182 -126 l 271 -11 b 43 32 199 -10 113 4 l 110 235 l 113 235 l 206 32 b 231 15 211 21 214 18 b 278 11 246 13 260 11 b 414 128 367 11 414 65 b 283 257 414 196 363 221 l 194 297 b 61 488 119 332 61 392 b 317 692 61 614 174 692 b 542 657 386 692 464 682 l 478 468 l 475 468 l 378 649 b 335 669 369 664 361 669 l 318 669 b 199 558 254 669 199 632 b 315 435 199 494 247 464 l 407 396 b 563 208 490 360 563 314 b 281 -11 563 64 436 -10 l 269 -86 b 440 -197 364 -67 440 -122 b 285 -328 440 -271 383 -328 "},"Š":{"ha":747,"x_min":0,"x_max":0,"o":"m 583 1274 l 585 1272 l 375 1031 l 372 1031 l 163 1272 l 164 1274 l 374 1174 m 353 -14 b 83 24 268 -14 164 0 l 83 333 l 86 333 l 238 40 b 268 15 247 24 251 18 b 339 10 292 13 317 10 b 549 186 456 10 549 65 b 365 385 549 282 483 328 l 281 425 b 60 714 171 476 60 561 b 388 990 60 878 192 990 b 639 958 461 990 543 982 l 639 660 l 636 660 l 479 940 b 449 965 471 956 464 964 b 400 967 432 967 417 967 b 213 792 289 967 213 901 b 368 610 213 700 278 653 l 471 561 b 710 286 606 497 710 431 b 353 -14 710 114 571 -14 "},"š":{"ha":603,"x_min":0,"x_max":0,"o":"m 519 981 l 521 979 l 311 738 l 308 738 l 99 979 l 100 981 l 310 881 m 563 208 b 279 -11 563 64 436 -11 b 43 32 206 -11 115 4 l 110 235 l 113 235 l 206 32 b 231 15 211 21 214 18 b 278 11 246 13 260 11 b 414 128 367 11 414 65 b 283 257 414 196 363 221 l 194 297 b 61 488 119 332 61 392 b 317 692 61 614 174 692 b 542 657 386 692 464 682 l 478 468 l 475 468 l 378 649 b 335 669 369 664 361 669 l 318 669 b 199 558 254 669 199 632 b 315 435 199 494 247 464 l 407 396 b 563 208 490 360 563 314 "},"Ţ":{"ha":857,"x_min":0,"x_max":0,"o":"m 347 -347 b 424 -232 389 -321 421 -283 b 411 -218 424 -221 419 -218 b 344 -139 371 -218 344 -183 b 425 -58 344 -94 378 -58 b 510 -156 474 -58 510 -96 b 349 -350 510 -243 439 -326 m 525 113 b 540 82 525 94 526 92 l 657 3 l 657 0 l 200 0 l 200 3 l 315 82 b 332 113 329 92 332 94 l 332 950 l 210 950 b 174 925 188 950 183 949 l 29 633 l 26 633 l 26 976 l 829 976 l 829 633 l 826 633 l 683 925 b 647 950 674 946 669 950 l 525 950 l 525 113 "},"ţ":{"ha":447,"x_min":0,"x_max":0,"o":"m 175 -337 b 251 -222 217 -311 249 -274 b 239 -208 251 -211 247 -208 b 172 -129 199 -208 172 -174 b 253 -49 172 -85 206 -49 b 338 -146 301 -49 338 -86 b 176 -340 338 -233 267 -317 m 269 176 b 346 78 269 114 297 78 b 442 146 390 78 426 110 l 444 144 b 257 -11 431 65 376 -11 b 94 161 151 -11 94 46 l 94 656 l 7 656 l 7 681 l 78 681 b 115 699 97 681 103 683 l 267 910 l 269 910 l 269 681 l 454 681 l 454 656 l 269 656 "},"Ť":{"ha":857,"x_min":0,"x_max":0,"o":"m 638 1274 l 639 1272 l 429 1031 l 426 1031 l 217 1272 l 218 1274 l 428 1174 m 525 113 b 540 82 525 94 526 92 l 657 3 l 657 0 l 200 0 l 200 3 l 315 82 b 332 113 329 92 332 94 l 332 950 l 210 950 b 174 925 188 950 183 949 l 29 633 l 26 633 l 26 976 l 829 976 l 829 633 l 826 633 l 683 925 b 647 950 674 946 669 950 l 525 950 l 525 113 "},"ť":{"ha":447,"x_min":0,"x_max":0,"o":"m 343 976 l 485 976 l 333 708 l 331 708 m 269 176 b 346 78 269 114 297 78 b 442 146 390 78 426 110 l 444 144 b 257 -11 431 65 376 -11 b 94 161 151 -11 94 46 l 94 656 l 7 656 l 7 681 l 78 681 b 115 699 97 681 103 683 l 267 910 l 269 910 l 269 681 l 454 681 l 454 656 l 269 656 "},"Ŧ":{"ha":863,"x_min":0,"x_max":0,"o":"m 528 464 l 528 113 b 543 82 528 94 529 92 l 660 3 l 660 0 l 203 0 l 203 3 l 318 82 b 335 113 332 92 335 94 l 335 464 l 146 464 l 146 489 l 335 489 l 335 950 l 213 950 b 176 925 190 950 186 949 l 32 633 l 29 633 l 29 976 l 832 976 l 832 633 l 829 633 l 686 925 b 650 950 676 946 672 950 l 528 950 l 528 489 l 717 489 l 717 464 "},"ŧ":{"ha":463,"x_min":0,"x_max":0,"o":"m 14 488 l 101 488 l 101 656 l 14 656 l 14 681 l 85 681 b 122 699 104 681 110 683 l 274 910 l 276 910 l 276 681 l 461 681 l 461 656 l 276 656 l 276 488 l 461 488 l 461 463 l 276 463 l 276 176 b 353 78 276 114 304 78 b 449 146 397 78 433 110 l 451 144 b 264 -11 438 65 383 -11 b 101 161 158 -11 101 46 l 101 463 l 14 463 "},"Ũ":{"ha":919,"x_min":0,"x_max":0,"o":"m 475 -14 b 122 306 218 -14 122 100 l 122 865 b 106 896 122 882 121 885 l 8 974 l 8 976 l 435 976 l 435 974 l 331 896 b 315 865 317 886 315 882 l 315 329 b 539 31 315 124 394 31 b 761 347 679 31 761 140 l 761 794 b 740 838 761 814 760 821 l 606 974 l 606 976 l 943 976 l 943 974 l 808 838 b 789 794 790 821 789 814 l 789 349 b 475 -14 789 131 704 -14 m 597 1075 b 408 1140 532 1075 468 1140 b 322 1074 369 1140 340 1119 l 319 1074 b 322 1115 319 1088 321 1101 b 429 1238 331 1189 368 1238 b 617 1171 494 1238 557 1171 b 704 1238 654 1171 686 1190 l 707 1238 b 704 1193 707 1222 706 1207 b 597 1075 696 1122 657 1075 "},"ũ":{"ha":785,"x_min":0,"x_max":0,"o":"m 676 104 b 690 72 676 86 678 82 l 772 3 l 772 0 l 500 0 l 500 154 b 294 -11 464 51 396 -11 b 96 271 167 -11 96 81 b 99 576 96 358 97 465 b 85 610 99 594 97 599 l 1 678 l 1 681 l 274 681 b 271 313 274 674 271 350 b 381 85 271 164 299 85 b 500 169 432 85 471 119 l 500 576 b 486 608 500 594 499 599 l 404 678 l 404 681 l 676 681 m 457 781 b 268 846 392 781 328 846 b 182 779 229 846 200 825 l 179 779 b 182 821 179 793 181 807 b 289 943 190 894 228 943 b 476 876 354 943 417 876 b 564 943 514 876 546 896 l 567 943 b 564 899 567 928 565 913 b 457 781 556 828 517 781 "},"Ū":{"ha":919,"x_min":0,"x_max":0,"o":"m 475 -14 b 122 306 218 -14 122 100 l 122 865 b 106 896 122 882 121 885 l 8 974 l 8 976 l 435 976 l 435 974 l 331 896 b 315 865 317 886 315 882 l 315 329 b 539 31 315 124 394 31 b 761 347 679 31 761 140 l 761 794 b 740 838 761 814 760 821 l 606 974 l 606 976 l 943 976 l 943 974 l 808 838 b 789 794 790 821 789 814 l 789 349 b 475 -14 789 131 704 -14 m 326 1117 l 326 1142 l 690 1142 l 690 1117 "},"ū":{"ha":785,"x_min":0,"x_max":0,"o":"m 676 104 b 690 72 676 86 678 82 l 772 3 l 772 0 l 500 0 l 500 154 b 294 -11 464 51 396 -11 b 96 271 167 -11 96 81 b 99 576 96 358 97 465 b 85 610 99 594 97 599 l 1 678 l 1 681 l 274 681 b 271 313 274 674 271 350 b 381 85 271 164 299 85 b 500 169 432 85 471 119 l 500 576 b 486 608 500 594 499 599 l 404 678 l 404 681 l 676 681 m 186 822 l 186 847 l 550 847 l 550 822 "},"Ŭ":{"ha":919,"x_min":0,"x_max":0,"o":"m 475 -14 b 122 306 218 -14 122 100 l 122 865 b 106 896 122 882 121 885 l 8 974 l 8 976 l 435 976 l 435 974 l 331 896 b 315 865 317 886 315 882 l 315 329 b 539 31 315 124 394 31 b 761 347 679 31 761 140 l 761 794 b 740 838 761 814 760 821 l 606 974 l 606 976 l 943 976 l 943 974 l 808 838 b 789 794 790 821 789 814 l 789 349 b 475 -14 789 131 704 -14 m 679 1219 b 506 1046 679 1096 592 1046 b 333 1219 421 1046 333 1096 b 339 1275 333 1236 335 1254 l 342 1275 b 506 1140 346 1189 414 1140 b 671 1275 599 1140 667 1189 l 674 1275 b 679 1219 678 1254 679 1236 "},"ŭ":{"ha":785,"x_min":0,"x_max":0,"o":"m 676 104 b 690 72 676 86 678 82 l 772 3 l 772 0 l 500 0 l 500 154 b 294 -11 464 51 396 -11 b 96 271 167 -11 96 81 b 99 576 96 358 97 465 b 85 610 99 594 97 599 l 1 678 l 1 681 l 274 681 b 271 313 274 674 271 350 b 381 85 271 164 299 85 b 500 169 432 85 471 119 l 500 576 b 486 608 500 594 499 599 l 404 678 l 404 681 l 676 681 m 539 925 b 365 751 539 801 451 751 b 193 925 281 751 193 801 b 199 981 193 942 194 960 l 201 981 b 365 846 206 894 274 846 b 531 981 458 846 526 894 l 533 981 b 539 925 538 960 539 942 "},"Ů":{"ha":919,"x_min":0,"x_max":0,"o":"m 633 1164 b 511 1044 633 1096 579 1044 b 390 1164 446 1044 390 1097 b 511 1285 390 1232 443 1285 b 633 1164 579 1285 633 1233 m 606 1164 b 511 1258 606 1218 565 1258 b 418 1164 458 1258 418 1218 b 511 1071 418 1113 460 1071 b 606 1164 565 1071 606 1111 m 475 -14 b 122 306 218 -14 122 100 l 122 865 b 106 896 122 882 121 885 l 8 974 l 8 976 l 435 976 l 435 974 l 331 896 b 315 865 317 886 315 882 l 315 329 b 539 31 315 124 394 31 b 761 347 679 31 761 140 l 761 794 b 740 838 761 814 760 821 l 606 974 l 606 976 l 943 976 l 943 974 l 808 838 b 789 794 790 821 789 814 l 789 349 b 475 -14 789 131 704 -14 "},"ů":{"ha":785,"x_min":0,"x_max":0,"o":"m 493 869 b 371 750 493 801 439 750 b 250 869 306 750 250 803 b 371 990 250 938 303 990 b 493 869 439 990 493 939 m 465 869 b 371 964 465 924 425 964 b 278 869 318 964 278 924 b 371 776 278 818 319 776 b 465 869 425 776 465 817 m 676 104 b 690 72 676 86 678 82 l 772 3 l 772 0 l 500 0 l 500 154 b 294 -11 464 51 396 -11 b 96 271 167 -11 96 81 b 99 576 96 358 97 465 b 85 610 99 594 97 599 l 1 678 l 1 681 l 274 681 b 271 313 274 674 271 350 b 381 85 271 164 299 85 b 500 169 432 85 471 119 l 500 576 b 486 608 500 594 499 599 l 404 678 l 404 681 l 676 681 "},"Ű":{"ha":919,"x_min":0,"x_max":0,"o":"m 475 -14 b 122 306 218 -14 122 100 l 122 865 b 106 896 122 882 121 885 l 8 974 l 8 976 l 435 976 l 435 974 l 331 896 b 315 865 317 886 315 882 l 315 329 b 539 31 315 124 394 31 b 761 347 679 31 761 140 l 761 794 b 740 838 761 814 760 821 l 606 974 l 606 976 l 943 976 l 943 974 l 808 838 b 789 794 790 821 789 814 l 789 349 b 475 -14 789 131 704 -14 m 608 1271 l 608 1268 l 367 1032 l 364 1032 l 449 1271 m 817 1271 l 817 1268 l 576 1032 l 574 1032 l 658 1271 "},"ű":{"ha":785,"x_min":0,"x_max":0,"o":"m 676 104 b 690 72 676 86 678 82 l 772 3 l 772 0 l 500 0 l 500 154 b 294 -11 464 51 396 -11 b 96 271 167 -11 96 81 b 99 576 96 358 97 465 b 85 610 99 594 97 599 l 1 678 l 1 681 l 274 681 b 271 313 274 674 271 350 b 381 85 271 164 299 85 b 500 169 432 85 471 119 l 500 576 b 486 608 500 594 499 599 l 404 678 l 404 681 l 676 681 m 468 976 l 468 974 l 226 738 l 224 738 l 308 976 m 676 976 l 676 974 l 436 738 l 433 738 l 518 976 "},"Ų":{"ha":919,"x_min":0,"x_max":0,"o":"m 451 -328 b 307 -187 381 -328 307 -279 b 463 -14 307 -112 367 -47 b 122 306 215 -10 122 103 l 122 865 b 106 896 122 882 121 885 l 8 974 l 8 976 l 435 976 l 435 974 l 331 896 b 315 865 317 886 315 882 l 315 329 b 539 31 315 124 394 31 b 761 347 679 31 761 140 l 761 794 b 740 838 761 814 760 821 l 606 974 l 606 976 l 943 976 l 943 974 l 808 838 b 789 794 790 821 789 814 l 789 349 b 483 -14 789 133 706 -10 b 404 -147 431 -46 404 -92 b 506 -254 404 -218 450 -254 b 611 -199 540 -254 583 -237 l 614 -200 b 451 -328 588 -269 539 -328 "},"ų":{"ha":785,"x_min":0,"x_max":0,"o":"m 271 313 b 381 85 271 164 299 85 b 500 169 432 85 471 119 l 500 576 b 486 608 500 594 499 599 l 404 678 l 404 681 l 676 681 l 676 104 b 690 72 676 86 678 82 l 772 3 l 772 0 l 518 0 b 431 -147 458 -26 431 -81 b 533 -254 431 -218 478 -254 b 639 -199 568 -254 611 -237 l 642 -200 b 479 -328 615 -269 567 -328 b 333 -186 408 -328 333 -279 b 500 0 333 -104 400 -25 l 500 154 b 294 -11 464 51 396 -11 b 96 271 167 -11 96 81 b 99 576 96 358 97 465 b 85 610 99 594 97 599 l 1 678 l 1 681 l 274 681 b 271 313 274 674 271 350 "},"Ŵ":{"ha":1368,"x_min":0,"x_max":0,"o":"m 917 1039 l 707 1139 l 497 1039 l 496 1042 l 706 1282 l 708 1282 l 918 1042 m 878 0 l 682 615 l 485 0 l 351 0 l 75 844 b 44 900 67 868 58 883 l -14 974 l -14 976 l 361 976 l 361 974 l 278 890 b 272 856 268 881 267 874 l 503 147 l 668 660 l 610 844 b 582 899 603 868 594 881 l 529 974 l 529 976 l 897 976 l 897 974 l 814 890 b 808 857 804 881 803 874 l 1029 151 l 1233 789 b 1218 839 1240 813 1235 819 l 1096 974 l 1096 976 l 1415 976 l 1415 974 l 1299 844 b 1263 788 1276 821 1271 815 l 1011 0 "},"ŵ":{"ha":1019,"x_min":0,"x_max":0,"o":"m 744 744 l 535 844 l 325 744 l 324 747 l 533 988 l 536 988 l 746 747 m 957 553 b 931 501 942 531 939 525 l 754 0 l 647 0 l 503 404 l 357 0 l 250 0 l 51 557 b 28 611 43 582 39 592 l -15 678 l -15 681 l 293 681 l 293 678 l 235 608 b 231 574 225 597 225 592 l 381 142 l 489 442 l 449 557 b 425 611 440 582 436 593 l 382 678 l 382 681 l 689 681 l 689 678 l 632 608 b 626 574 622 596 619 592 l 778 143 l 904 504 b 899 551 913 526 911 533 l 818 678 l 818 681 l 1044 681 l 1044 678 "},"Ŷ":{"ha":856,"x_min":0,"x_max":0,"o":"m 531 113 b 547 82 531 94 532 92 l 663 3 l 663 0 l 206 0 l 206 3 l 322 82 b 338 113 336 92 338 94 l 338 367 b 328 406 338 385 336 392 l 90 846 b 53 897 78 869 67 882 l -18 974 l -18 976 l 390 976 l 390 974 l 304 892 b 299 863 293 881 292 876 l 517 449 l 699 804 b 694 842 708 824 706 829 l 575 974 l 575 976 l 906 976 l 906 974 l 767 844 b 724 792 744 825 738 817 l 542 438 b 531 386 532 419 531 411 m 681 1039 l 471 1139 l 261 1039 l 260 1042 l 469 1282 l 472 1282 l 682 1042 "},"ŷ":{"ha":631,"x_min":0,"x_max":0,"o":"m 78 -328 b 15 -314 54 -328 33 -322 l 65 -89 l 68 -89 l 174 -226 b 192 -240 181 -236 185 -240 b 208 -226 197 -240 201 -236 b 296 -61 233 -193 265 -132 l 46 576 b 21 624 36 600 29 610 l -14 678 l -14 681 l 299 681 l 299 678 l 238 610 b 233 576 228 599 226 593 l 388 165 l 519 501 b 517 546 528 524 528 528 l 433 678 l 433 681 l 658 681 l 658 678 l 575 556 b 544 497 561 535 556 524 l 336 -37 b 243 -221 311 -101 281 -162 b 78 -328 196 -296 147 -328 m 560 744 l 350 844 l 140 744 l 139 747 l 349 988 l 351 988 l 561 747 "},"Ÿ":{"ha":856,"x_min":0,"x_max":0,"o":"m 531 113 b 547 82 531 94 532 92 l 663 3 l 663 0 l 206 0 l 206 3 l 322 82 b 338 113 336 92 338 94 l 338 367 b 328 406 338 385 336 392 l 90 846 b 53 897 78 869 67 882 l -18 974 l -18 976 l 390 976 l 390 974 l 304 892 b 299 863 293 881 292 876 l 517 449 l 699 804 b 694 842 708 824 706 829 l 575 974 l 575 976 l 906 976 l 906 974 l 767 844 b 724 792 744 825 738 817 l 542 438 b 531 386 532 419 531 411 m 263 1158 b 346 1242 263 1206 300 1242 b 428 1158 390 1242 428 1206 b 346 1078 428 1114 390 1078 b 263 1158 300 1078 263 1114 m 513 1158 b 593 1242 513 1206 549 1242 b 678 1158 640 1242 678 1206 b 593 1078 678 1114 640 1078 b 513 1158 549 1078 513 1114 "},"Ź":{"ha":832,"x_min":0,"x_max":0,"o":"m 649 1271 l 649 1268 l 342 1042 l 339 1044 l 457 1271 m 765 0 l 18 0 l 18 3 l 572 950 l 289 950 b 246 932 263 950 256 947 l 81 631 l 78 631 l 78 976 l 800 976 l 800 974 l 244 26 l 550 26 b 593 44 575 26 585 29 l 763 342 l 765 342 "},"ź":{"ha":628,"x_min":0,"x_max":0,"o":"m 550 976 l 550 974 l 243 747 l 240 750 l 358 976 m 583 278 l 588 278 l 567 0 l 19 0 l 19 3 l 406 657 l 238 657 b 200 636 214 657 213 656 l 57 417 l 53 417 l 53 681 l 606 681 l 606 678 l 224 25 l 392 25 b 431 46 417 25 418 26 "},"Ż":{"ha":832,"x_min":0,"x_max":0,"o":"m 765 0 l 18 0 l 18 3 l 572 950 l 289 950 b 246 932 263 950 256 947 l 81 631 l 78 631 l 78 976 l 800 976 l 800 974 l 244 26 l 550 26 b 593 44 575 26 585 29 l 763 342 l 765 342 m 333 1154 b 426 1246 333 1208 375 1246 b 519 1154 479 1246 519 1208 b 426 1064 519 1101 479 1064 b 333 1154 375 1064 333 1101 "},"ż":{"ha":628,"x_min":0,"x_max":0,"o":"m 583 278 l 588 278 l 567 0 l 19 0 l 19 3 l 406 657 l 238 657 b 200 636 214 657 213 656 l 57 417 l 53 417 l 53 681 l 606 681 l 606 678 l 224 25 l 392 25 b 431 46 417 25 418 26 m 235 860 b 328 951 235 914 276 951 b 421 860 381 951 421 914 b 328 769 421 807 381 769 b 235 860 276 769 235 807 "},"Ž":{"ha":832,"x_min":0,"x_max":0,"o":"m 636 1274 l 638 1272 l 428 1031 l 425 1031 l 215 1272 l 217 1274 l 426 1174 m 765 0 l 18 0 l 18 3 l 572 950 l 289 950 b 246 932 263 950 256 947 l 81 631 l 78 631 l 78 976 l 800 976 l 800 974 l 244 26 l 550 26 b 593 44 575 26 585 29 l 763 342 l 765 342 "},"ž":{"ha":628,"x_min":0,"x_max":0,"o":"m 538 981 l 539 979 l 329 738 l 326 738 l 117 979 l 118 981 l 328 881 m 583 278 l 588 278 l 567 0 l 19 0 l 19 3 l 406 657 l 238 657 b 200 636 214 657 213 656 l 57 417 l 53 417 l 53 681 l 606 681 l 606 678 l 224 25 l 392 25 b 431 46 417 25 418 26 "},"ƒ":{"ha":611,"x_min":0,"x_max":0,"o":"m 78 431 l 208 431 l 208 707 b 451 990 208 913 293 990 b 647 957 519 990 586 978 l 569 769 l 567 769 l 485 950 b 456 968 478 967 475 968 b 383 824 404 968 383 924 l 383 431 l 533 431 l 533 406 l 383 406 l 383 3 b 144 -328 383 -231 300 -328 b -56 -294 75 -328 8 -315 l 22 -107 l 25 -107 l 106 -286 b 136 -307 113 -303 118 -307 b 208 -165 204 -307 208 -246 l 208 406 l 78 406 "},"Ƶ":{"ha":832,"x_min":0,"x_max":0,"o":"m 511 481 l 244 26 l 550 26 b 593 44 575 26 585 29 l 763 342 l 765 342 l 765 0 l 18 0 l 18 3 l 297 481 l 93 481 l 93 506 l 313 506 l 572 950 l 289 950 b 246 932 263 950 256 947 l 81 631 l 78 631 l 78 976 l 800 976 l 800 974 l 525 506 l 717 506 l 717 481 "},"ƶ":{"ha":632,"x_min":0,"x_max":0,"o":"m 72 361 l 232 361 l 407 657 l 239 657 b 201 636 215 657 214 656 l 58 417 l 54 417 l 54 681 l 607 681 l 607 678 l 422 361 l 565 361 l 565 336 l 407 336 l 225 25 l 393 25 b 432 46 418 25 419 26 l 585 278 l 589 278 l 568 0 l 21 0 l 21 3 l 217 336 l 72 336 "},"Ǻ":{"ha":885,"x_min":0,"x_max":0,"o":"m 599 1360 l 599 1357 l 388 1222 b 326 1174 363 1206 336 1188 b 419 1210 358 1203 393 1210 b 542 1117 483 1210 542 1176 b 421 1026 542 1060 483 1026 b 299 1117 360 1026 299 1061 b 315 1169 299 1138 306 1153 l 415 1360 m 514 1118 b 421 1185 514 1163 469 1185 b 326 1118 372 1185 326 1161 b 421 1051 326 1075 374 1051 b 514 1118 469 1051 514 1074 m 799 132 b 829 76 807 108 815 93 l 888 3 l 888 0 l 513 0 l 513 3 l 596 86 b 601 122 606 96 607 104 l 529 342 l 211 342 l 158 182 b 169 140 153 163 154 157 l 296 3 l 296 0 l -24 0 l -24 3 l 97 135 b 132 189 119 160 124 165 l 346 835 b 336 885 356 863 353 867 l 257 974 l 257 976 l 522 976 l 799 132 m 219 368 l 521 368 l 372 825 "},"ǻ":{"ha":676,"x_min":0,"x_max":0,"o":"m 507 1061 l 507 1058 l 296 924 b 233 875 269 908 243 889 b 328 911 265 904 300 911 b 450 819 392 911 450 878 b 328 728 450 761 392 728 b 207 819 268 728 207 763 b 222 871 207 839 214 854 l 324 1061 m 422 819 b 328 886 422 864 376 886 b 235 819 279 886 235 863 b 328 753 235 776 282 753 b 422 819 376 753 422 775 m 415 490 l 415 496 b 288 668 415 597 375 668 b 246 650 257 668 254 667 l 149 454 l 146 454 l 72 643 b 326 692 157 676 243 692 b 521 635 414 692 476 678 b 586 411 561 593 586 525 l 586 386 l 578 165 b 624 78 576 107 590 78 b 665 111 644 78 658 90 l 668 111 b 658 64 669 96 665 79 b 539 -11 640 22 599 -11 b 410 131 469 -11 411 35 b 222 -11 382 43 311 -11 b 38 176 124 -11 38 56 b 267 383 38 314 154 383 b 413 342 319 383 374 371 m 344 343 b 210 197 257 343 210 276 b 306 78 210 122 251 78 b 410 143 346 78 385 103 l 413 332 b 344 343 390 340 367 343 "},"Ǽ":{"ha":1288,"x_min":0,"x_max":0,"o":"m 1031 1274 l 1031 1271 l 724 1044 l 721 1047 l 839 1274 m 929 507 b 967 531 947 508 953 513 l 1074 664 l 1076 664 l 1076 325 l 1074 325 l 967 460 b 929 482 953 476 947 482 l 793 482 l 793 56 b 817 26 793 31 797 26 l 1024 26 b 1068 44 1050 26 1058 29 l 1214 317 l 1218 317 l 1218 0 l 478 0 l 478 3 l 585 78 b 601 108 599 88 601 92 l 601 340 l 275 340 l 183 189 b 183 131 165 158 165 153 l 290 3 l 290 0 l -36 0 l -36 3 l 92 122 b 147 181 118 147 132 157 l 547 836 b 546 882 563 863 561 865 l 456 974 l 456 976 l 1204 976 l 1204 660 l 1201 660 l 1056 926 b 1017 950 1044 947 1036 950 l 817 950 b 793 921 797 950 793 946 l 793 507 l 929 507 m 601 874 l 292 367 l 601 367 "},"ǽ":{"ha":1050,"x_min":0,"x_max":0,"o":"m 772 976 l 772 974 l 465 747 l 463 750 l 581 976 m 261 383 b 413 342 326 383 374 368 b 415 493 413 351 415 482 b 286 667 415 596 375 667 b 246 649 258 667 253 664 l 149 456 l 146 456 l 68 649 b 326 692 153 678 238 692 b 503 635 400 692 456 681 l 524 608 b 731 692 581 665 651 692 b 1011 421 871 692 1011 618 b 1010 386 1011 408 1011 400 l 590 386 l 590 363 b 792 90 590 179 681 90 b 1007 242 881 90 960 132 l 1010 242 b 724 -11 978 71 876 -11 b 456 140 615 -11 513 38 b 235 -11 432 60 354 -11 b 38 182 125 -11 38 58 b 261 383 38 317 158 383 m 728 669 b 590 411 646 669 597 583 l 840 411 b 728 669 843 596 806 669 m 319 76 b 451 149 374 76 419 103 b 413 332 426 197 413 258 b 346 343 390 339 367 343 b 210 201 257 343 210 279 b 319 76 210 125 253 76 "},"Ǿ":{"ha":983,"x_min":0,"x_max":0,"o":"m 493 990 b 692 953 568 990 635 978 l 750 1083 l 774 1072 l 715 942 b 939 489 860 867 939 711 b 493 -14 939 168 775 -14 b 308 18 424 -14 363 -3 l 250 -114 l 226 -103 l 283 28 b 44 489 129 99 44 257 b 493 990 44 808 210 990 m 265 489 b 326 124 265 318 288 200 l 653 864 b 493 967 613 935 557 967 b 265 489 358 967 265 838 m 493 10 b 719 489 626 10 719 140 b 668 833 719 644 700 757 l 342 96 b 493 10 381 36 433 10 m 740 1271 l 740 1268 l 433 1042 l 431 1044 l 549 1271 "},"ǿ":{"ha":744,"x_min":0,"x_max":0,"o":"m 529 663 b 708 340 640 615 708 510 b 372 -11 708 103 575 -11 b 242 8 324 -11 281 -4 l 188 -114 l 163 -101 l 215 18 b 38 342 104 65 38 172 b 372 692 38 579 171 692 b 504 672 421 692 465 685 l 553 781 l 578 771 m 372 669 b 236 342 286 669 236 596 b 258 117 236 240 243 167 l 472 600 b 372 669 449 650 415 669 m 508 340 b 486 563 508 440 500 513 l 272 79 b 372 13 296 31 329 13 b 508 340 458 13 508 86 m 593 976 l 593 974 l 286 747 l 283 750 l 401 976 "},"Ș":{"ha":747,"x_min":0,"x_max":0,"o":"m 292 -337 b 368 -222 333 -311 365 -274 b 356 -208 368 -211 364 -208 b 289 -129 315 -208 289 -174 b 369 -49 289 -85 322 -49 b 454 -146 418 -49 454 -86 b 293 -340 454 -233 383 -317 m 353 -14 b 83 24 268 -14 164 0 l 83 333 l 86 333 l 238 40 b 268 15 247 24 251 18 b 339 10 292 13 317 10 b 549 186 456 10 549 65 b 365 385 549 282 483 328 l 281 425 b 60 714 171 476 60 561 b 388 990 60 878 192 990 b 639 958 461 990 543 982 l 639 660 l 636 660 l 479 940 b 449 965 471 956 464 964 b 400 967 432 967 417 967 b 213 792 289 967 213 901 b 368 610 213 700 278 653 l 471 561 b 710 286 606 497 710 431 b 353 -14 710 114 571 -14 "},"ș":{"ha":603,"x_min":0,"x_max":0,"o":"m 229 -347 b 306 -232 271 -321 303 -283 b 293 -218 306 -221 301 -218 b 226 -139 253 -218 226 -183 b 307 -58 226 -94 260 -58 b 392 -156 356 -58 392 -96 b 231 -350 392 -243 321 -326 m 563 208 b 279 -11 563 64 436 -11 b 43 32 206 -11 115 4 l 110 235 l 113 235 l 206 32 b 231 15 211 21 214 18 b 278 11 246 13 260 11 b 414 128 367 11 414 65 b 283 257 414 196 363 221 l 194 297 b 61 488 119 332 61 392 b 317 692 61 614 174 692 b 542 657 386 692 464 682 l 478 468 l 475 468 l 378 649 b 335 669 369 664 361 669 l 318 669 b 199 558 254 669 199 632 b 315 435 199 494 247 464 l 407 396 b 563 208 490 360 563 314 "},"Ț":{"ha":857,"x_min":0,"x_max":0,"o":"m 347 -347 b 424 -232 389 -321 421 -283 b 411 -218 424 -221 419 -218 b 344 -139 371 -218 344 -183 b 425 -58 344 -94 378 -58 b 510 -156 474 -58 510 -96 b 349 -350 510 -243 439 -326 m 525 113 b 540 82 525 94 526 92 l 657 3 l 657 0 l 200 0 l 200 3 l 315 82 b 332 113 329 92 332 94 l 332 950 l 210 950 b 174 925 188 950 183 949 l 29 633 l 26 633 l 26 976 l 829 976 l 829 633 l 826 633 l 683 925 b 647 950 674 946 669 950 l 525 950 l 525 113 "},"ț":{"ha":447,"x_min":0,"x_max":0,"o":"m 175 -337 b 251 -222 217 -311 249 -274 b 239 -208 251 -211 247 -208 b 172 -129 199 -208 172 -174 b 253 -49 172 -85 206 -49 b 338 -146 301 -49 338 -86 b 176 -340 338 -233 267 -317 m 269 176 b 346 78 269 114 297 78 b 442 146 390 78 426 110 l 444 144 b 257 -11 431 65 376 -11 b 94 161 151 -11 94 46 l 94 656 l 7 656 l 7 681 l 78 681 b 115 699 97 681 103 683 l 267 910 l 269 910 l 269 681 l 454 681 l 454 656 l 269 656 "},"ȷ":{"ha":378,"x_min":0,"x_max":0,"o":"m -7 -304 b -47 -301 -19 -304 -33 -304 l -47 -299 b 117 -15 60 -283 117 -203 l 117 576 b 103 608 117 594 114 599 l 21 678 l 21 681 l 292 681 l 292 39 b -7 -304 292 -161 194 -304 "},"ˆ":{"ha":561,"x_min":0,"x_max":0,"o":"m 490 744 l 281 844 l 71 744 l 69 747 l 279 988 l 282 988 l 492 747 "},"ˇ":{"ha":561,"x_min":0,"x_max":0,"o":"m 490 988 l 492 986 l 282 744 l 279 744 l 69 986 l 71 988 l 281 888 "},"ˉ":{"ha":517,"x_min":0,"x_max":0,"o":"m 74 822 l 74 847 l 436 847 l 436 822 "},"˘":{"ha":485,"x_min":0,"x_max":0,"o":"m 415 925 b 242 751 415 801 328 751 b 69 925 157 751 69 801 b 75 981 69 942 71 960 l 78 981 b 242 846 82 894 150 846 b 407 981 335 846 403 894 l 410 981 b 415 925 414 960 415 942 "},"˙":{"ha":325,"x_min":0,"x_max":0,"o":"m 69 860 b 163 951 69 914 111 951 b 256 860 215 951 256 914 b 163 769 256 807 215 769 b 69 860 111 769 69 807 "},"˚":{"ha":382,"x_min":0,"x_max":0,"o":"m 313 869 b 190 750 313 801 258 750 b 69 869 125 750 69 803 b 190 990 69 938 122 990 b 313 869 258 990 313 939 m 285 869 b 190 964 285 924 244 964 b 97 869 138 964 97 924 b 190 776 97 818 139 776 b 285 869 244 776 285 817 "},"˛":{"ha":446,"x_min":0,"x_max":0,"o":"m 376 -200 b 214 -328 350 -269 303 -328 b 69 -186 144 -328 69 -279 b 264 1 69 -104 144 -31 l 267 0 b 167 -147 201 -32 167 -83 b 269 -254 167 -218 213 -254 b 374 -199 303 -254 347 -237 "},"˜":{"ha":526,"x_min":0,"x_max":0,"o":"m 347 781 b 158 846 282 781 218 846 b 72 779 119 846 90 825 l 69 779 b 72 821 69 793 71 807 b 179 943 81 894 118 943 b 367 876 244 943 307 876 b 454 943 404 876 436 896 l 457 943 b 454 899 457 928 456 913 b 347 781 446 828 407 781 "},"˝":{"ha":592,"x_min":0,"x_max":0,"o":"m 314 976 l 314 974 l 72 738 l 69 738 l 154 976 m 522 976 l 522 974 l 282 738 l 279 738 l 364 976 "},"Δ":{"ha":906,"x_min":0,"x_max":0,"o":"m 367 831 b 356 892 378 860 376 869 l 276 974 l 276 976 l 543 976 l 881 0 l 42 0 m 393 821 l 81 26 l 671 26 "},"Ω":{"ha":1003,"x_min":0,"x_max":0,"o":"m 501 967 b 272 528 367 967 272 838 b 457 135 272 276 349 172 l 457 0 l 57 0 l 46 301 l 49 301 l 200 47 b 251 26 213 28 221 26 l 431 26 l 431 115 b 51 549 226 151 51 313 b 501 990 51 803 208 990 b 951 549 794 990 951 803 b 572 115 951 313 776 151 l 572 26 l 751 26 b 803 47 782 26 790 26 l 954 301 l 957 301 l 946 0 l 546 0 l 546 135 b 731 528 653 172 731 276 b 501 967 731 838 636 967 "},"μ":{"ha":786,"x_min":0,"x_max":0,"o":"m 678 100 b 692 67 678 82 679 76 l 774 3 l 774 0 l 501 0 l 501 156 b 315 -3 472 58 400 -3 b 272 3 301 -3 289 -1 l 272 -211 b 292 -244 272 -228 274 -235 l 407 -314 l 407 -317 l 0 -317 l 0 -314 l 85 -254 b 99 -224 99 -244 99 -240 l 99 582 b 85 614 99 600 97 604 l 3 678 l 3 681 l 272 681 l 272 285 b 381 82 272 133 303 82 b 501 169 433 82 472 117 l 501 581 b 488 614 501 599 500 603 l 406 678 l 406 681 l 678 681 l 678 100 "},"π":{"ha":842,"x_min":0,"x_max":0,"o":"m 714 93 b 728 63 714 78 715 71 l 811 3 l 811 0 l 443 0 l 443 3 l 524 63 b 539 93 539 74 539 78 l 539 656 l 301 656 l 301 93 b 317 63 301 78 303 74 l 399 3 l 399 0 l 31 0 l 31 3 l 113 63 b 126 93 125 72 126 78 l 126 576 b 113 608 126 594 125 599 l 31 678 l 31 681 l 811 681 l 811 678 l 728 608 b 714 576 715 599 714 594 "},"Ẁ":{"ha":1368,"x_min":0,"x_max":0,"o":"m 878 0 l 682 615 l 485 0 l 351 0 l 75 844 b 44 900 67 868 58 883 l -14 974 l -14 976 l 361 976 l 361 974 l 278 890 b 272 856 268 881 267 874 l 503 147 l 668 660 l 610 844 b 582 899 603 868 594 881 l 529 974 l 529 976 l 897 976 l 897 974 l 814 890 b 808 857 804 881 803 874 l 1029 151 l 1233 789 b 1218 839 1240 813 1235 819 l 1096 974 l 1096 976 l 1415 976 l 1415 974 l 1299 844 b 1263 788 1276 821 1271 815 l 1011 0 m 681 1271 l 797 1044 l 794 1042 l 488 1268 l 488 1271 "},"ẁ":{"ha":1019,"x_min":0,"x_max":0,"o":"m 957 553 b 931 501 942 531 939 525 l 754 0 l 647 0 l 503 404 l 357 0 l 250 0 l 51 557 b 28 611 43 582 39 592 l -15 678 l -15 681 l 293 681 l 293 678 l 235 608 b 231 574 225 597 225 592 l 381 142 l 489 442 l 449 557 b 425 611 440 582 436 593 l 382 678 l 382 681 l 689 681 l 689 678 l 632 608 b 626 574 622 596 619 592 l 778 143 l 904 504 b 899 551 913 526 911 533 l 818 678 l 818 681 l 1044 681 l 1044 678 m 508 976 l 625 750 l 622 747 l 315 974 l 315 976 "},"Ẃ":{"ha":1368,"x_min":0,"x_max":0,"o":"m 929 1271 l 929 1268 l 622 1042 l 619 1044 l 738 1271 m 878 0 l 682 615 l 485 0 l 351 0 l 75 844 b 44 900 67 868 58 883 l -14 974 l -14 976 l 361 976 l 361 974 l 278 890 b 272 856 268 881 267 874 l 503 147 l 668 660 l 610 844 b 582 899 603 868 594 881 l 529 974 l 529 976 l 897 976 l 897 974 l 814 890 b 808 857 804 881 803 874 l 1029 151 l 1233 789 b 1218 839 1240 813 1235 819 l 1096 974 l 1096 976 l 1415 976 l 1415 974 l 1299 844 b 1263 788 1276 821 1271 815 l 1011 0 "},"ẃ":{"ha":1019,"x_min":0,"x_max":0,"o":"m 757 976 l 757 974 l 450 747 l 447 750 l 565 976 m 957 553 b 931 501 942 531 939 525 l 754 0 l 647 0 l 503 404 l 357 0 l 250 0 l 51 557 b 28 611 43 582 39 592 l -15 678 l -15 681 l 293 681 l 293 678 l 235 608 b 231 574 225 597 225 592 l 381 142 l 489 442 l 449 557 b 425 611 440 582 436 593 l 382 678 l 382 681 l 689 681 l 689 678 l 632 608 b 626 574 622 596 619 592 l 778 143 l 904 504 b 899 551 913 526 911 533 l 818 678 l 818 681 l 1044 681 l 1044 678 "},"Ẅ":{"ha":1368,"x_min":0,"x_max":0,"o":"m 500 1158 b 583 1242 500 1206 538 1242 b 665 1158 628 1242 665 1206 b 583 1078 665 1114 628 1078 b 500 1158 538 1078 500 1114 m 750 1158 b 831 1242 750 1206 786 1242 b 915 1158 878 1242 915 1206 b 831 1078 915 1114 878 1078 b 750 1158 786 1078 750 1114 m 878 0 l 682 615 l 485 0 l 351 0 l 75 844 b 44 900 67 868 58 883 l -14 974 l -14 976 l 361 976 l 361 974 l 278 890 b 272 856 268 881 267 874 l 503 147 l 668 660 l 610 844 b 582 899 603 868 594 881 l 529 974 l 529 976 l 897 976 l 897 974 l 814 890 b 808 857 804 881 803 874 l 1029 151 l 1233 789 b 1218 839 1240 813 1235 819 l 1096 974 l 1096 976 l 1415 976 l 1415 974 l 1299 844 b 1263 788 1276 821 1271 815 l 1011 0 "},"ẅ":{"ha":1019,"x_min":0,"x_max":0,"o":"m 328 864 b 411 947 328 911 365 947 b 493 864 456 947 493 911 b 411 783 493 819 456 783 b 328 864 365 783 328 819 m 578 864 b 658 947 578 911 614 947 b 743 864 706 947 743 911 b 658 783 743 819 706 783 b 578 864 614 783 578 819 m 957 553 b 931 501 942 531 939 525 l 754 0 l 647 0 l 503 404 l 357 0 l 250 0 l 51 557 b 28 611 43 582 39 592 l -15 678 l -15 681 l 293 681 l 293 678 l 235 608 b 231 574 225 597 225 592 l 381 142 l 489 442 l 449 557 b 425 611 440 582 436 593 l 382 678 l 382 681 l 689 681 l 689 678 l 632 608 b 626 574 622 596 619 592 l 778 143 l 904 504 b 899 551 913 526 911 533 l 818 678 l 818 681 l 1044 681 l 1044 678 "},"Ẋ":{"ha":944,"x_min":0,"x_max":0,"o":"m 954 3 l 954 0 l 536 0 l 536 3 l 610 72 b 614 108 625 86 625 92 l 417 418 l 238 163 b 235 124 222 142 222 136 l 354 3 l 354 0 l -8 0 l -8 3 l 149 115 b 211 174 175 133 190 144 l 400 443 l 142 850 b 99 897 128 871 113 885 l 14 974 l 14 976 l 433 976 l 433 974 l 358 904 b 356 868 343 890 344 885 l 528 596 l 681 814 b 683 853 696 835 696 840 l 564 974 l 564 976 l 926 976 l 926 974 l 769 861 b 707 803 743 843 728 832 l 544 571 l 828 126 b 871 79 842 106 857 92 m 417 1154 b 510 1246 417 1208 458 1246 b 603 1154 563 1246 603 1208 b 510 1064 603 1101 563 1064 b 417 1154 458 1064 417 1101 "},"ẋ":{"ha":679,"x_min":0,"x_max":0,"o":"m 85 574 b 40 626 69 597 58 610 l -15 678 l -15 681 l 339 681 l 339 678 l 269 621 b 269 589 257 611 258 606 l 386 417 l 488 549 b 489 586 501 567 501 569 l 414 678 l 414 681 l 681 681 l 681 678 l 551 576 b 501 526 531 561 519 550 l 400 396 l 597 107 b 640 57 614 83 624 74 l 696 3 l 696 0 l 342 0 l 342 3 l 413 61 b 411 93 425 71 422 78 l 290 271 l 185 133 b 183 94 169 114 171 111 l 258 3 l 258 0 l -8 0 l -8 3 l 121 104 b 171 156 142 121 151 132 l 276 292 m 272 860 b 365 951 272 914 314 951 b 458 860 418 951 458 914 b 365 769 458 807 418 769 b 272 860 314 769 272 807 "},"Ỳ":{"ha":856,"x_min":0,"x_max":0,"o":"m 531 113 b 547 82 531 94 532 92 l 663 3 l 663 0 l 206 0 l 206 3 l 322 82 b 338 113 336 92 338 94 l 338 367 b 328 406 338 385 336 392 l 90 846 b 53 897 78 869 67 882 l -18 974 l -18 976 l 390 976 l 390 974 l 304 892 b 299 863 293 881 292 876 l 517 449 l 699 804 b 694 842 708 824 706 829 l 575 974 l 575 976 l 906 976 l 906 974 l 767 844 b 724 792 744 825 738 817 l 542 438 b 531 386 532 419 531 411 m 444 1271 l 561 1044 l 558 1042 l 251 1268 l 251 1271 "},"ỳ":{"ha":631,"x_min":0,"x_max":0,"o":"m 78 -328 b 15 -314 54 -328 33 -322 l 65 -89 l 68 -89 l 174 -226 b 192 -240 181 -236 185 -240 b 208 -226 197 -240 201 -236 b 296 -61 233 -193 265 -132 l 46 576 b 21 624 36 600 29 610 l -14 678 l -14 681 l 299 681 l 299 678 l 238 610 b 233 576 228 599 226 593 l 388 165 l 519 501 b 517 546 528 524 528 528 l 433 678 l 433 681 l 658 681 l 658 678 l 575 556 b 544 497 561 535 556 524 l 336 -37 b 243 -221 311 -101 281 -162 b 78 -328 196 -296 147 -328 m 324 976 l 440 750 l 438 747 l 131 974 l 131 976 "},"–":{"ha":694,"x_min":0,"x_max":0,"o":"m 7 326 l 7 351 l 688 351 l 688 326 "},"—":{"ha":1389,"x_min":0,"x_max":0,"o":"m 7 326 l 7 351 l 1382 351 l 1382 326 "},"‘":{"ha":282,"x_min":0,"x_max":0,"o":"m 235 996 b 149 851 182 967 149 907 b 164 836 149 842 151 838 b 235 750 204 831 235 796 b 147 664 235 703 197 664 b 53 767 94 664 53 703 b 233 999 53 863 124 969 "},"’":{"ha":282,"x_min":0,"x_max":0,"o":"m 51 658 b 138 803 104 688 138 746 b 121 818 138 813 133 815 b 50 903 81 825 50 857 b 138 990 50 951 88 990 b 232 888 192 990 232 951 b 53 656 232 790 161 685 "},"‚":{"ha":282,"x_min":0,"x_max":0,"o":"m 50 -142 b 138 3 103 -112 138 -53 b 121 18 138 13 133 17 b 50 104 81 24 50 58 b 138 190 50 151 88 190 b 232 88 192 190 232 151 b 51 -144 232 -8 161 -115 "},"“":{"ha":521,"x_min":0,"x_max":0,"o":"m 474 996 b 388 851 421 967 388 907 b 403 836 388 842 392 838 b 474 750 443 831 474 796 b 388 664 474 703 438 664 b 293 767 333 664 293 703 b 472 999 293 863 363 969 m 235 996 b 149 851 182 967 149 907 b 164 836 149 842 151 838 b 235 750 204 831 235 796 b 147 664 235 703 197 664 b 53 767 94 664 53 703 b 233 999 53 863 124 969 "},"”":{"ha":522,"x_min":0,"x_max":0,"o":"m 51 658 b 138 803 104 688 138 746 b 121 818 138 813 133 815 b 50 903 81 826 50 857 b 138 990 50 951 88 990 b 232 888 192 990 232 951 b 53 656 232 790 161 685 m 290 658 b 376 803 343 688 376 746 b 361 818 376 813 374 815 b 290 903 321 826 290 857 b 378 990 290 951 328 990 b 472 888 431 990 472 951 b 292 656 472 790 401 685 "},"„":{"ha":521,"x_min":0,"x_max":0,"o":"m 289 -142 b 376 3 342 -112 376 -53 b 360 18 376 13 372 17 b 289 104 319 24 289 58 b 376 190 289 151 326 190 b 471 88 431 190 471 151 b 290 -144 471 -8 400 -115 m 50 -142 b 138 3 103 -112 138 -53 b 121 18 138 13 133 17 b 50 104 81 24 50 58 b 138 190 50 151 88 190 b 232 88 192 190 232 151 b 51 -144 232 -8 161 -115 "},"†":{"ha":597,"x_min":0,"x_max":0,"o":"m 311 714 l 311 181 l 285 181 l 285 714 l 76 714 l 76 739 l 285 739 l 285 976 l 311 976 l 311 739 l 521 739 l 521 714 "},"‡":{"ha":597,"x_min":0,"x_max":0,"o":"m 76 739 l 285 739 l 285 976 l 311 976 l 311 739 l 521 739 l 521 714 l 311 714 l 311 443 l 521 443 l 521 418 l 311 418 l 311 181 l 285 181 l 285 418 l 76 418 l 76 443 l 285 443 l 285 714 l 76 714 "},"•":{"ha":481,"x_min":0,"x_max":0,"o":"m 97 492 b 240 632 97 574 163 632 b 383 492 319 632 383 574 b 240 357 383 411 319 357 b 97 492 163 357 97 411 "},"…":{"ha":904,"x_min":0,"x_max":0,"o":"m 67 83 b 164 181 67 140 110 181 b 263 83 219 181 263 140 b 164 -12 263 29 219 -12 b 67 83 110 -12 67 29 m 354 83 b 451 181 354 140 399 181 b 550 83 507 181 550 140 b 451 -12 550 29 507 -12 b 354 83 399 -12 354 29 m 643 83 b 740 181 643 140 686 181 b 838 83 794 181 838 140 b 740 -12 838 29 794 -12 b 643 83 686 -12 643 29 "},"‰":{"ha":1297,"x_min":0,"x_max":0,"o":"m 1078 381 b 1010 193 1019 381 1010 319 b 1078 7 1010 68 1019 7 b 1146 193 1138 7 1146 68 b 1078 381 1146 319 1138 381 m 1078 400 b 1263 193 1204 400 1263 315 b 1078 -12 1263 72 1204 -12 b 894 193 953 -12 894 72 b 1078 400 894 314 953 400 m 267 971 b 199 783 208 971 199 910 b 267 597 199 658 208 597 b 335 783 326 597 335 658 b 267 971 335 910 326 971 m 267 990 b 451 783 393 990 451 906 b 267 578 451 663 393 578 b 83 783 142 578 83 663 b 267 990 83 904 142 990 m 643 381 b 575 193 585 381 575 319 b 643 7 575 68 585 7 b 711 193 703 7 711 68 b 643 381 711 319 703 381 m 643 400 b 828 193 769 400 828 315 b 643 -12 828 72 769 -12 b 460 193 518 -12 460 72 b 643 400 460 314 518 400 m 118 -14 l 96 4 l 794 990 l 817 974 "},"‹":{"ha":376,"x_min":0,"x_max":0,"o":"m 335 646 l 336 644 l 203 349 l 336 53 l 335 51 l 40 347 l 40 350 "},"›":{"ha":376,"x_min":0,"x_max":0,"o":"m 42 51 l 40 53 l 172 349 l 40 644 l 42 646 l 336 350 l 336 347 "},"⁄":{"ha":67,"x_min":0,"x_max":0,"o":"m -292 -14 l -314 4 l 385 990 l 407 974 "},"€":{"ha":944,"x_min":0,"x_max":0,"o":"m 361 393 b 619 10 376 149 454 10 b 650 11 632 10 638 10 b 696 35 675 14 686 18 l 869 336 l 872 336 l 872 10 b 611 -14 782 -8 688 -14 b 142 393 317 -14 169 147 l 43 393 l 43 418 l 140 418 b 138 485 139 439 138 461 b 140 551 138 507 138 529 l 43 551 l 43 576 l 143 576 b 599 990 174 826 332 990 b 872 961 683 990 779 982 l 872 647 l 869 647 l 697 940 b 650 965 686 960 676 963 b 606 967 636 967 618 967 b 361 576 444 967 375 806 l 661 576 l 661 551 l 360 551 b 358 488 358 531 358 508 b 360 418 358 464 358 440 l 661 418 l 661 393 "},"™":{"ha":1153,"x_min":0,"x_max":0,"o":"m 600 594 b 614 563 600 578 600 574 l 676 507 l 676 504 l 500 504 l 500 507 l 564 563 b 575 594 574 571 575 578 l 575 913 b 568 932 575 924 572 928 l 514 974 l 514 976 l 682 976 l 811 675 l 932 976 l 1097 976 l 1097 974 l 1043 936 b 1035 921 1036 932 1035 929 l 1035 557 b 1044 542 1035 550 1036 547 l 1097 507 l 1097 504 l 864 504 l 864 507 l 917 542 b 925 557 925 547 925 550 l 925 856 b 926 900 925 868 925 886 l 769 499 l 768 499 l 615 850 l 600 892 l 600 594 m 311 561 b 318 544 311 553 313 549 l 369 507 l 369 504 l 139 504 l 139 507 l 192 544 b 200 561 199 549 200 553 l 200 953 l 144 953 b 125 940 133 953 132 953 l 49 810 l 46 810 l 56 976 l 456 976 l 464 810 l 461 810 l 386 940 b 365 953 379 951 376 953 l 311 953 l 311 561 "},"Ω":{"ha":1003,"x_min":0,"x_max":0,"o":"m 501 967 b 272 528 367 967 272 838 b 457 135 272 276 349 172 l 457 0 l 57 0 l 46 301 l 49 301 l 200 47 b 251 26 213 28 221 26 l 431 26 l 431 115 b 51 549 226 151 51 313 b 501 990 51 803 208 990 b 951 549 794 990 951 803 b 572 115 951 313 776 151 l 572 26 l 751 26 b 803 47 782 26 790 26 l 954 301 l 957 301 l 946 0 l 546 0 l 546 135 b 731 528 653 172 731 276 b 501 967 731 838 636 967 "},"℮":{"ha":922,"x_min":0,"x_max":0,"o":"m 126 326 b 464 13 132 135 282 13 b 785 233 613 13 740 97 l 814 224 b 464 -14 765 75 626 -14 b 97 339 261 -14 97 122 b 464 692 97 557 261 692 b 832 339 667 692 832 557 l 832 326 m 464 667 b 126 353 282 667 133 543 l 803 353 b 464 667 796 543 646 667 "},"⅓":{"ha":674,"x_min":0,"x_max":0,"o":"m 83 501 l 590 501 l 590 476 l 83 476 m 396 644 b 406 629 396 636 396 633 l 496 585 l 496 583 l 189 583 l 189 585 l 279 629 b 289 644 288 633 289 636 l 289 903 b 279 915 289 910 288 913 l 181 946 l 181 949 l 396 994 l 396 644 m 514 114 b 322 -6 514 47 446 -6 b 160 19 271 -6 206 3 l 229 154 l 232 154 l 271 28 b 285 17 274 21 276 18 b 317 15 296 15 307 15 b 403 113 364 15 403 50 b 289 206 403 169 367 201 l 289 208 b 390 313 357 219 390 256 b 326 386 390 361 367 386 l 301 386 b 285 375 292 386 289 382 l 228 250 l 225 250 l 169 376 b 336 407 215 394 274 407 b 499 310 443 407 499 372 b 389 214 499 256 456 228 l 389 211 b 514 114 468 207 514 171 "},"⅔":{"ha":674,"x_min":0,"x_max":0,"o":"m 83 501 l 590 501 l 590 476 l 83 476 m 514 114 b 322 -6 514 47 446 -6 b 160 19 271 -6 206 3 l 229 154 l 232 154 l 271 28 b 285 17 274 21 276 18 b 317 15 296 15 307 15 b 403 113 364 15 403 50 b 289 206 403 169 367 201 l 289 208 b 390 313 357 219 390 256 b 326 386 390 361 367 386 l 301 386 b 285 375 292 386 289 382 l 228 250 l 225 250 l 169 376 b 336 407 215 394 274 407 b 499 310 443 407 499 372 b 389 214 499 256 456 228 l 389 211 b 514 114 468 207 514 171 m 489 583 l 156 583 l 156 586 b 289 711 231 653 272 694 b 390 882 349 769 390 825 b 315 969 390 940 367 969 l 299 969 b 282 958 290 969 285 965 l 225 831 l 222 831 l 167 960 b 331 990 215 978 272 990 b 504 876 440 990 504 949 b 269 669 504 789 426 740 l 269 667 l 415 667 b 456 678 440 667 444 667 l 506 725 l 508 725 "},"⅕":{"ha":674,"x_min":0,"x_max":0,"o":"m 83 501 l 590 501 l 590 476 l 83 476 m 396 644 b 406 629 396 636 396 633 l 496 585 l 496 583 l 189 583 l 189 585 l 279 629 b 289 644 288 633 289 636 l 289 903 b 279 915 289 910 288 913 l 181 946 l 181 949 l 396 994 m 510 128 b 324 -6 510 35 435 -6 b 160 21 264 -6 201 4 l 229 151 l 231 151 l 269 31 b 289 15 274 19 278 17 b 317 14 300 14 306 14 b 401 115 367 14 401 54 b 292 210 401 171 367 210 b 200 189 260 210 228 201 l 197 190 l 208 403 b 356 399 243 401 322 399 b 413 400 376 399 390 399 b 479 418 443 401 465 403 l 489 429 l 492 429 l 486 376 b 422 317 482 336 461 317 l 349 317 b 225 321 324 317 249 319 l 218 214 b 357 253 258 236 307 253 b 510 128 456 253 510 197 "},"⅖":{"ha":674,"x_min":0,"x_max":0,"o":"m 83 476 l 590 476 l 590 501 l 83 501 m 510 128 b 324 -6 510 35 435 -6 b 160 21 264 -6 201 4 l 229 151 l 231 151 l 269 31 b 289 15 274 19 278 17 b 317 14 300 14 306 14 b 401 115 367 14 401 54 b 292 210 401 171 367 210 b 200 189 260 210 228 201 l 197 190 l 208 403 b 356 399 254 400 322 399 b 413 400 376 399 390 399 b 479 418 443 401 465 403 l 489 429 l 492 429 l 486 376 b 422 317 482 336 461 317 l 349 317 b 225 321 324 317 249 319 l 218 214 b 357 253 258 236 307 253 b 510 128 456 253 510 197 m 489 583 l 156 583 l 156 586 b 289 711 231 653 272 694 b 390 882 349 769 390 825 b 315 969 390 940 367 969 l 299 969 b 282 958 290 969 285 965 l 225 831 l 222 831 l 167 960 b 331 990 215 978 272 990 b 504 876 440 990 504 949 b 269 669 504 789 426 740 l 269 667 l 415 667 b 456 678 440 667 444 667 l 506 725 l 508 725 "},"⅗":{"ha":674,"x_min":0,"x_max":0,"o":"m 83 501 l 590 501 l 590 476 l 83 476 m 510 128 b 324 -6 510 35 435 -6 b 160 21 264 -6 201 4 l 229 151 l 231 151 l 269 31 b 289 15 274 19 278 17 b 317 14 300 14 306 14 b 401 115 367 14 401 54 b 292 210 401 171 367 210 b 200 189 260 210 228 201 l 197 190 l 208 403 b 356 399 256 400 322 399 b 413 400 376 399 390 399 b 479 418 443 401 465 403 l 489 429 l 492 429 l 486 376 b 422 317 482 336 461 317 l 349 317 b 225 321 324 317 249 319 l 218 214 b 357 253 258 236 307 253 b 510 128 456 253 510 197 m 514 697 b 322 578 514 631 446 578 b 160 603 271 578 206 586 l 229 738 l 232 738 l 271 611 b 285 600 274 604 276 601 b 317 599 296 599 307 599 b 403 696 364 599 403 633 b 289 789 403 753 367 785 l 289 792 b 390 896 357 803 390 839 b 326 969 390 944 367 969 l 301 969 b 285 958 292 969 289 965 l 228 833 l 225 833 l 169 960 b 336 990 215 978 274 990 b 499 893 443 990 499 956 b 389 797 499 839 456 811 l 389 794 b 514 697 468 790 514 754 "},"⅘":{"ha":674,"x_min":0,"x_max":0,"o":"m 83 501 l 590 501 l 590 476 l 83 476 m 428 704 l 449 704 b 469 715 460 704 464 706 l 535 829 l 538 829 l 528 683 l 428 683 l 428 638 b 438 622 428 629 429 628 l 496 585 l 496 583 l 256 583 l 256 585 l 318 622 b 326 638 324 626 326 629 l 326 683 l 128 683 l 128 686 l 347 985 l 428 985 m 326 704 l 326 918 l 169 704 m 218 214 b 357 253 258 236 307 253 b 510 128 456 253 510 197 b 324 -6 510 35 435 -6 b 160 21 264 -6 201 4 l 229 151 l 231 151 l 269 31 b 289 15 274 19 278 17 b 317 14 300 14 306 14 b 401 115 367 14 401 54 b 292 210 401 171 367 210 b 200 189 260 210 228 201 l 197 190 l 208 403 b 356 399 264 400 322 399 b 413 400 376 399 390 399 b 479 418 443 401 465 403 l 489 429 l 492 429 l 486 376 b 422 317 482 336 461 317 l 349 317 b 225 321 324 317 249 319 "},"⅙":{"ha":674,"x_min":0,"x_max":0,"o":"m 83 501 l 590 501 l 590 476 l 83 476 m 396 644 b 406 629 396 636 396 633 l 496 585 l 496 583 l 189 583 l 189 585 l 279 629 b 289 644 288 633 289 636 l 289 903 b 279 915 289 910 288 913 l 181 946 l 181 949 l 396 994 m 381 253 b 514 131 460 253 514 206 b 343 -6 514 54 451 -6 b 154 200 210 -6 154 79 b 354 407 154 325 222 407 b 499 388 407 407 449 401 l 450 274 l 447 274 l 385 378 b 368 386 381 383 378 386 l 351 386 b 269 204 282 386 269 318 b 381 253 301 236 329 253 m 339 221 b 269 189 308 221 293 210 b 344 14 269 63 285 14 b 404 124 386 14 404 56 b 339 221 404 183 388 221 "},"⅚":{"ha":674,"x_min":0,"x_max":0,"o":"m 83 501 l 590 501 l 590 476 l 83 476 m 324 578 b 160 604 264 578 201 588 l 229 735 l 231 735 l 269 614 b 289 599 274 603 278 600 b 317 597 300 597 306 597 b 401 699 367 597 401 638 b 292 793 401 754 367 793 b 200 772 260 793 228 785 l 197 774 l 208 986 b 356 982 253 983 322 982 b 413 983 376 982 390 982 b 479 1001 443 985 465 986 l 489 1013 l 492 1013 l 486 960 b 422 900 482 919 461 900 l 349 900 b 225 904 324 900 249 903 l 218 797 b 357 836 258 819 307 836 b 510 711 456 836 510 781 b 324 578 510 618 435 578 m 381 253 b 514 131 460 253 514 206 b 343 -6 514 54 451 -6 b 154 200 210 -6 154 79 b 354 407 154 325 222 407 b 499 388 407 407 449 401 l 450 274 l 447 274 l 385 378 b 368 386 381 383 378 386 l 351 386 b 269 204 282 386 269 318 b 381 253 301 236 329 253 m 339 221 b 269 189 308 221 293 210 b 344 14 269 63 285 14 b 404 124 386 14 404 56 b 339 221 404 183 388 221 "},"⅛":{"ha":674,"x_min":0,"x_max":0,"o":"m 83 501 l 590 501 l 590 476 l 83 476 m 332 -6 b 164 94 235 -6 164 39 b 268 181 164 140 200 168 b 182 294 214 201 182 244 b 336 407 182 358 240 407 b 489 314 429 407 489 361 b 386 233 489 264 449 240 l 424 218 b 514 114 482 194 514 163 b 332 -6 514 47 453 -6 m 279 176 b 250 100 254 154 250 131 b 340 14 250 56 283 14 b 422 76 397 14 422 44 b 360 146 422 108 404 129 m 268 325 b 340 251 268 290 300 268 l 375 238 b 407 310 399 257 407 283 b 335 388 407 351 379 388 b 268 325 290 388 268 354 m 496 583 l 189 583 l 189 585 l 279 629 b 289 644 288 633 289 636 l 289 903 b 279 915 289 910 288 913 l 181 946 l 181 949 l 396 994 l 396 644 b 406 629 396 636 396 633 l 496 585 "},"⅜":{"ha":674,"x_min":0,"x_max":0,"o":"m 590 476 l 83 476 l 83 501 l 590 501 m 332 -6 b 164 94 235 -6 164 39 b 268 181 164 140 200 168 b 182 294 214 201 182 244 b 336 407 182 358 240 407 b 489 314 429 407 489 361 b 386 233 489 264 449 240 l 424 218 b 514 114 482 194 514 163 b 332 -6 514 47 453 -6 m 279 176 b 250 100 254 154 250 131 b 340 14 250 56 283 14 b 422 76 397 14 422 44 b 360 146 422 108 404 129 m 268 325 b 340 251 268 290 300 267 l 375 238 b 407 310 399 257 407 283 b 335 388 407 351 379 388 b 268 325 290 388 268 354 m 514 697 b 322 578 514 631 446 578 b 160 603 271 578 206 586 l 229 738 l 232 738 l 271 611 b 285 600 274 604 276 601 b 317 599 296 599 307 599 b 403 696 364 599 403 633 b 289 789 403 753 367 785 l 289 792 b 390 896 357 803 390 839 b 326 969 390 944 367 969 l 301 969 b 285 958 292 969 289 965 l 228 833 l 225 833 l 169 960 b 336 990 215 978 274 990 b 499 893 443 990 499 956 b 389 797 499 839 456 811 l 389 794 b 514 697 468 790 514 754 "},"⅝":{"ha":674,"x_min":0,"x_max":0,"o":"m 83 501 l 590 501 l 590 476 l 83 476 m 332 -6 b 164 94 235 -6 164 39 b 268 181 164 140 200 168 b 182 294 214 201 182 244 b 336 407 182 358 240 407 b 489 314 429 407 489 361 b 386 233 489 264 449 240 l 424 218 b 514 114 482 196 514 163 b 332 -6 514 47 453 -6 m 279 176 b 250 100 254 154 250 131 b 340 14 250 56 283 14 b 422 76 397 14 422 44 b 360 146 422 108 404 128 m 268 325 b 340 251 268 290 300 267 l 375 238 b 407 310 399 257 407 283 b 335 388 407 351 379 388 b 268 325 290 388 268 354 m 510 711 b 324 578 510 618 435 578 b 160 604 264 578 201 588 l 229 735 l 231 735 l 269 614 b 289 599 274 603 278 600 b 317 597 300 597 306 597 b 401 699 367 597 401 638 b 292 793 401 754 367 793 b 200 772 260 793 228 785 l 197 774 l 208 986 b 356 982 260 983 322 982 b 413 983 376 982 390 982 b 479 1001 443 985 465 986 l 489 1013 l 492 1013 l 486 960 b 422 900 482 919 461 900 l 349 900 b 225 904 324 900 249 903 l 218 797 b 357 836 258 819 307 836 b 510 711 456 836 510 781 "},"⅞":{"ha":674,"x_min":0,"x_max":0,"o":"m 589 476 l 83 476 l 83 501 l 589 501 m 332 -6 b 164 94 235 -6 164 39 b 268 181 164 140 200 168 b 182 294 214 201 182 244 b 336 407 182 358 240 407 b 489 314 429 407 489 361 b 386 233 489 264 449 240 l 424 218 b 514 114 482 196 514 163 b 332 -6 514 47 453 -6 m 279 176 b 250 100 254 154 250 131 b 340 14 250 56 283 14 b 422 76 397 14 422 44 b 360 146 422 108 404 128 m 268 325 b 340 251 268 290 300 267 l 375 238 b 407 310 399 257 407 283 b 335 388 407 351 379 388 b 268 325 290 388 268 354 m 236 583 b 457 908 315 721 410 851 l 253 908 b 217 896 233 908 228 907 l 181 858 l 179 858 l 196 985 l 542 985 l 494 931 b 479 910 488 924 482 917 b 372 583 442 822 406 706 "},"←":{"ha":981,"x_min":0,"x_max":0,"o":"m 124 335 l 442 17 l 425 -3 l 76 346 l 425 694 l 443 676 l 124 358 l 904 358 l 904 335 "},"↑":{"ha":850,"x_min":0,"x_max":0,"o":"m 411 -68 l 411 713 l 94 393 l 76 411 l 425 760 l 774 411 l 756 393 l 436 713 l 436 -68 "},"→":{"ha":981,"x_min":0,"x_max":0,"o":"m 857 358 l 538 676 l 556 694 l 904 346 l 556 -3 l 539 17 l 857 335 l 76 335 l 76 358 "},"↓":{"ha":850,"x_min":0,"x_max":0,"o":"m 436 736 l 436 -44 l 756 275 l 774 257 l 425 -92 l 76 257 l 94 275 l 411 -44 l 411 736 "},"↖":{"ha":749,"x_min":0,"x_max":0,"o":"m 108 594 l 108 143 l 83 143 l 83 638 l 575 638 l 575 614 l 125 614 l 678 63 l 658 44 "},"↗":{"ha":749,"x_min":0,"x_max":0,"o":"m 640 143 l 640 594 l 90 44 l 71 63 l 624 614 l 174 614 l 174 638 l 665 638 l 665 143 "},"↘":{"ha":749,"x_min":0,"x_max":0,"o":"m 90 636 l 640 86 l 640 538 l 665 538 l 665 43 l 174 43 l 174 67 l 624 67 l 71 618 "},"↙":{"ha":749,"x_min":0,"x_max":0,"o":"m 678 618 l 125 67 l 575 67 l 575 43 l 83 43 l 83 538 l 108 538 l 108 86 l 658 636 "},"∂":{"ha":733,"x_min":0,"x_max":0,"o":"m 358 -11 b 39 332 182 -11 39 114 b 322 682 39 553 171 682 b 489 594 397 682 454 650 b 175 988 447 799 342 929 l 175 990 b 200 988 181 989 196 989 b 693 390 538 931 693 682 b 358 -11 693 126 585 -11 m 510 369 b 493 571 510 443 504 510 b 379 631 461 611 426 631 b 233 324 276 631 233 483 b 363 13 233 139 281 13 b 510 369 454 13 510 107 "},"∆":{"ha":921,"x_min":0,"x_max":0,"o":"m 367 831 b 356 892 378 860 376 869 l 276 974 l 276 976 l 543 976 l 881 0 l 42 0 m 393 821 l 81 26 l 671 26 "},"∏":{"ha":1051,"x_min":0,"x_max":0,"o":"m 906 108 b 922 78 906 92 907 88 l 1029 3 l 1029 0 l 590 0 l 590 3 l 697 78 b 713 108 711 88 713 92 l 713 950 l 339 950 l 339 108 b 356 78 339 92 340 88 l 463 3 l 463 0 l 24 0 l 24 3 l 131 78 b 146 108 144 88 146 92 l 146 868 b 131 899 146 885 144 889 l 24 974 l 24 976 l 1029 976 l 1029 974 l 922 899 b 906 868 907 889 906 885 "},"∑":{"ha":831,"x_min":0,"x_max":0,"o":"m 750 669 l 747 669 l 590 926 b 551 950 579 947 571 950 l 297 950 l 560 493 l 79 26 l 568 26 b 613 44 593 26 601 29 l 758 307 l 761 307 l 761 0 l 18 0 l 18 3 l 414 392 l 138 876 b 101 911 131 888 118 900 l 8 974 l 8 976 l 739 976 "},"−":{"ha":750,"x_min":0,"x_max":0,"o":"m 69 461 l 681 461 l 681 436 l 69 436 "},"∕":{"ha":67,"x_min":0,"x_max":0,"o":"m -292 -14 l -314 4 l 385 990 l 407 974 "},"∙":{"ha":326,"x_min":0,"x_max":0,"o":"m 65 589 b 163 688 65 646 108 688 b 261 589 218 688 261 646 b 163 493 261 535 218 493 b 65 589 108 493 65 535 "},"√":{"ha":750,"x_min":0,"x_max":0,"o":"m 307 0 l 304 0 l 85 617 l 110 626 l 306 75 l 647 1049 l 672 1042 "},"∞":{"ha":1063,"x_min":0,"x_max":0,"o":"m 71 451 b 254 647 71 550 146 647 b 531 468 367 647 438 556 b 807 647 624 556 693 647 b 990 451 915 647 990 550 b 807 256 990 353 915 256 b 531 435 693 256 624 347 b 254 256 438 347 367 256 b 71 451 146 256 71 353 m 807 281 b 965 451 906 281 965 365 b 807 622 965 538 906 622 b 549 451 703 622 640 539 b 807 281 640 364 703 281 m 97 451 b 254 281 97 365 157 281 b 513 451 357 281 421 364 b 254 622 421 539 357 622 b 97 451 157 622 97 538 "},"∫":{"ha":611,"x_min":0,"x_max":0,"o":"m 383 3 b 144 -328 383 -231 300 -328 b -56 -294 75 -328 8 -315 l 22 -107 l 25 -107 l 106 -286 b 136 -308 114 -304 118 -308 b 208 -165 204 -308 208 -247 l 208 707 b 451 990 208 913 293 990 b 647 957 519 990 586 978 l 569 769 l 567 769 l 485 950 b 456 968 478 967 475 968 b 383 824 404 968 383 924 "},"≈":{"ha":750,"x_min":0,"x_max":0,"o":"m 532 513 b 217 604 407 513 331 604 b 83 524 157 604 113 571 l 61 536 b 217 629 83 574 129 629 b 532 538 342 629 418 538 b 668 619 592 538 639 572 l 689 606 b 532 513 667 568 619 513 m 532 265 b 217 357 407 265 331 357 b 83 276 157 357 113 324 l 61 289 b 217 382 83 326 129 382 b 532 290 342 382 418 290 b 668 372 592 290 639 325 l 689 358 b 532 265 667 321 619 265 "},"≠":{"ha":750,"x_min":0,"x_max":0,"o":"m 69 586 l 435 586 l 514 728 l 538 715 l 465 586 l 681 586 l 681 561 l 451 561 l 328 338 l 681 338 l 681 313 l 314 313 l 232 165 l 208 178 l 283 313 l 69 313 l 69 338 l 297 338 l 421 561 l 69 561 "},"≤":{"ha":750,"x_min":0,"x_max":0,"o":"m 69 169 l 681 169 l 681 144 l 69 144 m 638 697 l 646 672 l 169 518 l 646 364 l 638 339 l 99 517 l 99 519 "},"≥":{"ha":750,"x_min":0,"x_max":0,"o":"m 681 144 l 69 144 l 69 169 l 681 169 m 651 519 l 651 517 l 113 339 l 104 364 l 581 518 l 104 672 l 113 697 "},"◊":{"ha":750,"x_min":0,"x_max":0,"o":"m 374 -112 l 69 450 l 374 1013 l 376 1013 l 681 450 l 376 -112 m 100 450 l 375 -58 l 650 450 l 375 958 "},"":{"ha":306,"x_min":0,"x_max":0,"o":"m 74 -347 b 150 -232 115 -321 147 -283 b 138 -218 150 -221 146 -218 b 71 -139 97 -218 71 -183 b 151 -58 71 -94 104 -58 b 236 -156 200 -58 236 -96 b 75 -350 236 -243 165 -326 "},"":{"ha":1742,"x_min":0,"x_max":0,"o":"m 925 474 b 814 478 896 474 839 478 b 625 339 708 478 664 426 b 396 172 583 247 524 172 b 281 178 361 172 313 178 b 103 31 172 178 103 113 b 104 0 103 15 103 8 l 78 0 b 76 31 76 10 76 15 b 282 204 76 131 161 204 b 397 199 315 204 368 199 b 601 350 507 199 567 267 b 814 504 633 428 692 504 b 925 500 843 504 900 500 b 1115 639 1028 500 1076 553 b 1343 804 1157 732 1215 804 b 1458 799 1378 804 1426 799 b 1639 946 1567 799 1639 868 b 1638 976 1639 961 1639 968 l 1664 976 b 1665 946 1665 967 1665 961 b 1457 772 1665 849 1578 772 b 1342 778 1424 772 1371 778 b 1139 629 1235 778 1179 721 b 925 474 1099 535 1035 474 "},"ﬁ":{"ha":851,"x_min":0,"x_max":0,"o":"m 742 93 b 756 63 742 78 742 74 l 838 3 l 838 0 l 469 0 l 469 3 l 551 63 b 567 93 565 72 567 78 l 567 633 b 549 656 567 653 563 656 l 297 656 l 297 97 b 315 67 297 81 300 76 l 419 3 l 419 0 l 26 0 l 26 3 l 108 63 b 122 93 122 72 122 78 l 122 656 l 36 656 l 36 681 l 122 681 b 450 990 131 885 251 990 b 692 950 522 990 603 979 l 613 763 l 610 763 l 525 946 b 497 965 519 958 513 964 b 457 967 485 967 476 967 b 297 738 340 967 297 876 l 297 681 l 742 681 "},"ﬂ":{"ha":853,"x_min":0,"x_max":0,"o":"m 744 93 b 760 63 744 78 744 74 l 842 3 l 842 0 l 474 0 l 474 3 l 556 63 b 569 93 569 72 569 78 l 569 903 b 554 931 569 918 568 922 b 440 964 528 947 488 964 b 297 751 353 964 297 901 l 297 681 l 485 681 l 485 656 l 297 656 l 297 100 b 318 69 297 82 301 78 l 433 3 l 433 0 l 26 0 l 26 3 l 108 63 b 122 93 122 72 122 78 l 122 656 l 36 656 l 36 681 l 122 681 b 424 990 126 897 251 990 b 574 951 482 990 535 972 l 744 1008 l 744 93 "}}}
